G04 #@! TF.GenerationSoftware,KiCad,Pcbnew,7.0.0-da2b9df05c~165~ubuntu22.04.1*
G04 #@! TF.CreationDate,2023-12-10T21:50:17+00:00*
G04 #@! TF.ProjectId,kicad_miao-panel,6b696361-645f-46d6-9961-6f2d70616e65,rev?*
G04 #@! TF.SameCoordinates,Original*
G04 #@! TF.FileFunction,Paste,Top*
G04 #@! TF.FilePolarity,Positive*
%FSLAX46Y46*%
G04 Gerber Fmt 4.6, Leading zero omitted, Abs format (unit mm)*
G04 Created by KiCad (PCBNEW 7.0.0-da2b9df05c~165~ubuntu22.04.1) date 2023-12-10 21:50:17*
%MOMM*%
%LPD*%
G01*
G04 APERTURE LIST*
G04 Aperture macros list*
%AMRoundRect*
0 Rectangle with rounded corners*
0 $1 Rounding radius*
0 $2 $3 $4 $5 $6 $7 $8 $9 X,Y pos of 4 corners*
0 Add a 4 corners polygon primitive as box body*
4,1,4,$2,$3,$4,$5,$6,$7,$8,$9,$2,$3,0*
0 Add four circle primitives for the rounded corners*
1,1,$1+$1,$2,$3*
1,1,$1+$1,$4,$5*
1,1,$1+$1,$6,$7*
1,1,$1+$1,$8,$9*
0 Add four rect primitives between the rounded corners*
20,1,$1+$1,$2,$3,$4,$5,0*
20,1,$1+$1,$4,$5,$6,$7,0*
20,1,$1+$1,$6,$7,$8,$9,0*
20,1,$1+$1,$8,$9,$2,$3,0*%
%AMOutline5P*
0 Free polygon, 5 corners , with rotation*
0 The origin of the aperture is its center*
0 number of corners: always 5*
0 $1 to $10 corner X, Y*
0 $11 Rotation angle, in degrees counterclockwise*
0 create outline with 5 corners*
4,1,5,$1,$2,$3,$4,$5,$6,$7,$8,$9,$10,$1,$2,$11*%
%AMOutline6P*
0 Free polygon, 6 corners , with rotation*
0 The origin of the aperture is its center*
0 number of corners: always 6*
0 $1 to $12 corner X, Y*
0 $13 Rotation angle, in degrees counterclockwise*
0 create outline with 6 corners*
4,1,6,$1,$2,$3,$4,$5,$6,$7,$8,$9,$10,$11,$12,$1,$2,$13*%
%AMOutline7P*
0 Free polygon, 7 corners , with rotation*
0 The origin of the aperture is its center*
0 number of corners: always 7*
0 $1 to $14 corner X, Y*
0 $15 Rotation angle, in degrees counterclockwise*
0 create outline with 7 corners*
4,1,7,$1,$2,$3,$4,$5,$6,$7,$8,$9,$10,$11,$12,$13,$14,$1,$2,$15*%
%AMOutline8P*
0 Free polygon, 8 corners , with rotation*
0 The origin of the aperture is its center*
0 number of corners: always 8*
0 $1 to $16 corner X, Y*
0 $17 Rotation angle, in degrees counterclockwise*
0 create outline with 8 corners*
4,1,8,$1,$2,$3,$4,$5,$6,$7,$8,$9,$10,$11,$12,$13,$14,$15,$16,$1,$2,$17*%
%AMFreePoly0*
4,1,18,-0.662500,0.000000,-0.362500,0.300000,0.512500,0.300000,0.569903,0.288582,0.618566,0.256066,0.651082,0.207403,0.662500,0.150000,0.662500,-0.150000,0.651082,-0.207403,0.618566,-0.256066,0.569903,-0.288582,0.512500,-0.300000,-0.512500,-0.300000,-0.569903,-0.288582,-0.618566,-0.256066,-0.651082,-0.207403,-0.662500,-0.150000,-0.662500,0.000000,-0.662500,0.000000,$1*%
G04 Aperture macros list end*
%ADD10RoundRect,0.200000X0.800000X-0.200000X0.800000X0.200000X-0.800000X0.200000X-0.800000X-0.200000X0*%
%ADD11C,2.000000*%
%ADD12FreePoly0,90.000000*%
%ADD13RoundRect,0.150000X0.150000X-0.512500X0.150000X0.512500X-0.150000X0.512500X-0.150000X-0.512500X0*%
%ADD14RoundRect,0.135000X-0.185000X0.135000X-0.185000X-0.135000X0.185000X-0.135000X0.185000X0.135000X0*%
%ADD15RoundRect,0.147500X0.172500X-0.147500X0.172500X0.147500X-0.172500X0.147500X-0.172500X-0.147500X0*%
%ADD16RoundRect,0.135000X0.185000X-0.135000X0.185000X0.135000X-0.185000X0.135000X-0.185000X-0.135000X0*%
%ADD17R,0.640000X0.590000*%
%ADD18RoundRect,0.147500X-0.172500X0.147500X-0.172500X-0.147500X0.172500X-0.147500X0.172500X0.147500X0*%
%ADD19R,0.600000X1.450000*%
%ADD20R,0.300000X1.450000*%
%ADD21RoundRect,0.140000X0.170000X-0.140000X0.170000X0.140000X-0.170000X0.140000X-0.170000X-0.140000X0*%
%ADD22Outline5P,-0.737500X0.000000X-0.537500X0.200000X0.737500X0.200000X0.737500X-0.200000X-0.737500X-0.200000X0.000000*%
%ADD23RoundRect,0.100000X-0.637500X-0.100000X0.637500X-0.100000X0.637500X0.100000X-0.637500X0.100000X0*%
%ADD24RoundRect,0.140000X-0.140000X-0.170000X0.140000X-0.170000X0.140000X0.170000X-0.140000X0.170000X0*%
G04 APERTURE END LIST*
D10*
G04 #@! TO.C,SW1*
X11057500Y127750000D03*
X11057500Y131950000D03*
G04 #@! TD*
G04 #@! TO.C,SW1*
X30837500Y127750000D03*
X30837500Y131950000D03*
G04 #@! TD*
G04 #@! TO.C,SW1*
X50617500Y127750000D03*
X50617500Y131950000D03*
G04 #@! TD*
G04 #@! TO.C,SW1*
X70397500Y127750000D03*
X70397500Y131950000D03*
G04 #@! TD*
G04 #@! TO.C,SW1*
X90177500Y127750000D03*
X90177500Y131950000D03*
G04 #@! TD*
G04 #@! TO.C,SW1*
X109957500Y127750000D03*
X109957500Y131950000D03*
G04 #@! TD*
G04 #@! TO.C,SW1*
X129737500Y127750000D03*
X129737500Y131950000D03*
G04 #@! TD*
G04 #@! TO.C,SW1*
X149517500Y127750000D03*
X149517500Y131950000D03*
G04 #@! TD*
G04 #@! TO.C,SW1*
X169297500Y127750000D03*
X169297500Y131950000D03*
G04 #@! TD*
G04 #@! TO.C,SW1*
X189077500Y127750000D03*
X189077500Y131950000D03*
G04 #@! TD*
G04 #@! TO.C,SW1*
X11057500Y99750000D03*
X11057500Y103950000D03*
G04 #@! TD*
G04 #@! TO.C,SW1*
X30837500Y99750000D03*
X30837500Y103950000D03*
G04 #@! TD*
G04 #@! TO.C,SW1*
X50617500Y99750000D03*
X50617500Y103950000D03*
G04 #@! TD*
G04 #@! TO.C,SW1*
X90177500Y15750000D03*
X90177500Y19950000D03*
G04 #@! TD*
G04 #@! TO.C,SW1*
X109957500Y15750000D03*
X109957500Y19950000D03*
G04 #@! TD*
G04 #@! TO.C,SW1*
X129737500Y15750000D03*
X129737500Y19950000D03*
G04 #@! TD*
G04 #@! TO.C,SW1*
X149517500Y15750000D03*
X149517500Y19950000D03*
G04 #@! TD*
G04 #@! TO.C,SW1*
X169297500Y15750000D03*
X169297500Y19950000D03*
G04 #@! TD*
G04 #@! TO.C,SW1*
X189077500Y15750000D03*
X189077500Y19950000D03*
G04 #@! TD*
G04 #@! TO.C,SW1*
X189077500Y71750000D03*
X189077500Y75950000D03*
G04 #@! TD*
G04 #@! TO.C,SW1*
X11057500Y43750000D03*
X11057500Y47950000D03*
G04 #@! TD*
G04 #@! TO.C,SW1*
X30837500Y43750000D03*
X30837500Y47950000D03*
G04 #@! TD*
G04 #@! TO.C,SW1*
X50617500Y43750000D03*
X50617500Y47950000D03*
G04 #@! TD*
G04 #@! TO.C,SW1*
X70397500Y43750000D03*
X70397500Y47950000D03*
G04 #@! TD*
G04 #@! TO.C,SW1*
X90177500Y43750000D03*
X90177500Y47950000D03*
G04 #@! TD*
G04 #@! TO.C,SW1*
X109957500Y43750000D03*
X109957500Y47950000D03*
G04 #@! TD*
G04 #@! TO.C,SW1*
X129737500Y43750000D03*
X129737500Y47950000D03*
G04 #@! TD*
G04 #@! TO.C,SW1*
X149517500Y43750000D03*
X149517500Y47950000D03*
G04 #@! TD*
G04 #@! TO.C,SW1*
X169297500Y43750000D03*
X169297500Y47950000D03*
G04 #@! TD*
G04 #@! TO.C,SW1*
X189077500Y43750000D03*
X189077500Y47950000D03*
G04 #@! TD*
G04 #@! TO.C,SW1*
X11057500Y15750000D03*
X11057500Y19950000D03*
G04 #@! TD*
G04 #@! TO.C,SW1*
X30837500Y15750000D03*
X30837500Y19950000D03*
G04 #@! TD*
G04 #@! TO.C,SW1*
X50617500Y15750000D03*
X50617500Y19950000D03*
G04 #@! TD*
G04 #@! TO.C,SW1*
X70397500Y15750000D03*
X70397500Y19950000D03*
G04 #@! TD*
G04 #@! TO.C,SW1*
X70397500Y99750000D03*
X70397500Y103950000D03*
G04 #@! TD*
G04 #@! TO.C,SW1*
X90177500Y99750000D03*
X90177500Y103950000D03*
G04 #@! TD*
G04 #@! TO.C,SW1*
X109957500Y99750000D03*
X109957500Y103950000D03*
G04 #@! TD*
G04 #@! TO.C,SW1*
X129737500Y99750000D03*
X129737500Y103950000D03*
G04 #@! TD*
G04 #@! TO.C,SW1*
X149517500Y99750000D03*
X149517500Y103950000D03*
G04 #@! TD*
G04 #@! TO.C,SW1*
X169297500Y99750000D03*
X169297500Y103950000D03*
G04 #@! TD*
G04 #@! TO.C,SW1*
X189077500Y99750000D03*
X189077500Y103950000D03*
G04 #@! TD*
G04 #@! TO.C,SW1*
X11057500Y71750000D03*
X11057500Y75950000D03*
G04 #@! TD*
G04 #@! TO.C,SW1*
X30837500Y71750000D03*
X30837500Y75950000D03*
G04 #@! TD*
G04 #@! TO.C,SW1*
X50617500Y71750000D03*
X50617500Y75950000D03*
G04 #@! TD*
G04 #@! TO.C,SW1*
X70397500Y71750000D03*
X70397500Y75950000D03*
G04 #@! TD*
G04 #@! TO.C,SW1*
X90177500Y71750000D03*
X90177500Y75950000D03*
G04 #@! TD*
G04 #@! TO.C,SW1*
X109957500Y71750000D03*
X109957500Y75950000D03*
G04 #@! TD*
G04 #@! TO.C,SW1*
X129737500Y71750000D03*
X129737500Y75950000D03*
G04 #@! TD*
G04 #@! TO.C,SW1*
X149517500Y71750000D03*
X149517500Y75950000D03*
G04 #@! TD*
G04 #@! TO.C,SW1*
X169297500Y71750000D03*
X169297500Y75950000D03*
G04 #@! TD*
D11*
G04 #@! TO.C,REF\u002A\u002A*
X207300000Y144500000D03*
G04 #@! TD*
D12*
G04 #@! TO.C,U2*
X34719999Y43222499D03*
D13*
X35670000Y43222500D03*
X36620000Y43222500D03*
X36620000Y45497500D03*
X35670000Y45497500D03*
X34720000Y45497500D03*
G04 #@! TD*
D12*
G04 #@! TO.C,U2*
X54499999Y43222499D03*
D13*
X55450000Y43222500D03*
X56400000Y43222500D03*
X56400000Y45497500D03*
X55450000Y45497500D03*
X54500000Y45497500D03*
G04 #@! TD*
D12*
G04 #@! TO.C,U2*
X74279999Y43222499D03*
D13*
X75230000Y43222500D03*
X76180000Y43222500D03*
X76180000Y45497500D03*
X75230000Y45497500D03*
X74280000Y45497500D03*
G04 #@! TD*
D12*
G04 #@! TO.C,U2*
X94059999Y43222499D03*
D13*
X95010000Y43222500D03*
X95960000Y43222500D03*
X95960000Y45497500D03*
X95010000Y45497500D03*
X94060000Y45497500D03*
G04 #@! TD*
D12*
G04 #@! TO.C,U2*
X113839999Y43222499D03*
D13*
X114790000Y43222500D03*
X115740000Y43222500D03*
X115740000Y45497500D03*
X114790000Y45497500D03*
X113840000Y45497500D03*
G04 #@! TD*
D12*
G04 #@! TO.C,U2*
X133619999Y43222499D03*
D13*
X134570000Y43222500D03*
X135520000Y43222500D03*
X135520000Y45497500D03*
X134570000Y45497500D03*
X133620000Y45497500D03*
G04 #@! TD*
D12*
G04 #@! TO.C,U2*
X153399999Y43222499D03*
D13*
X154350000Y43222500D03*
X155300000Y43222500D03*
X155300000Y45497500D03*
X154350000Y45497500D03*
X153400000Y45497500D03*
G04 #@! TD*
D12*
G04 #@! TO.C,U2*
X173179999Y43222499D03*
D13*
X174130000Y43222500D03*
X175080000Y43222500D03*
X175080000Y45497500D03*
X174130000Y45497500D03*
X173180000Y45497500D03*
G04 #@! TD*
D12*
G04 #@! TO.C,U2*
X192959999Y43222499D03*
D13*
X193910000Y43222500D03*
X194860000Y43222500D03*
X194860000Y45497500D03*
X193910000Y45497500D03*
X192960000Y45497500D03*
G04 #@! TD*
D12*
G04 #@! TO.C,U2*
X14939999Y15222499D03*
D13*
X15890000Y15222500D03*
X16840000Y15222500D03*
X16840000Y17497500D03*
X15890000Y17497500D03*
X14940000Y17497500D03*
G04 #@! TD*
D12*
G04 #@! TO.C,U2*
X34719999Y15222499D03*
D13*
X35670000Y15222500D03*
X36620000Y15222500D03*
X36620000Y17497500D03*
X35670000Y17497500D03*
X34720000Y17497500D03*
G04 #@! TD*
D12*
G04 #@! TO.C,U2*
X54499999Y15222499D03*
D13*
X55450000Y15222500D03*
X56400000Y15222500D03*
X56400000Y17497500D03*
X55450000Y17497500D03*
X54500000Y17497500D03*
G04 #@! TD*
D12*
G04 #@! TO.C,U2*
X173179999Y99222499D03*
D13*
X174130000Y99222500D03*
X175080000Y99222500D03*
X175080000Y101497500D03*
X174130000Y101497500D03*
X173180000Y101497500D03*
G04 #@! TD*
D12*
G04 #@! TO.C,U2*
X14939999Y71222499D03*
D13*
X15890000Y71222500D03*
X16840000Y71222500D03*
X16840000Y73497500D03*
X15890000Y73497500D03*
X14940000Y73497500D03*
G04 #@! TD*
D12*
G04 #@! TO.C,U2*
X34719999Y71222499D03*
D13*
X35670000Y71222500D03*
X36620000Y71222500D03*
X36620000Y73497500D03*
X35670000Y73497500D03*
X34720000Y73497500D03*
G04 #@! TD*
D12*
G04 #@! TO.C,U2*
X54499999Y71222499D03*
D13*
X55450000Y71222500D03*
X56400000Y71222500D03*
X56400000Y73497500D03*
X55450000Y73497500D03*
X54500000Y73497500D03*
G04 #@! TD*
D12*
G04 #@! TO.C,U2*
X74279999Y71222499D03*
D13*
X75230000Y71222500D03*
X76180000Y71222500D03*
X76180000Y73497500D03*
X75230000Y73497500D03*
X74280000Y73497500D03*
G04 #@! TD*
D12*
G04 #@! TO.C,U2*
X94059999Y71222499D03*
D13*
X95010000Y71222500D03*
X95960000Y71222500D03*
X95960000Y73497500D03*
X95010000Y73497500D03*
X94060000Y73497500D03*
G04 #@! TD*
D12*
G04 #@! TO.C,U2*
X113839999Y71222499D03*
D13*
X114790000Y71222500D03*
X115740000Y71222500D03*
X115740000Y73497500D03*
X114790000Y73497500D03*
X113840000Y73497500D03*
G04 #@! TD*
D12*
G04 #@! TO.C,U2*
X133619999Y71222499D03*
D13*
X134570000Y71222500D03*
X135520000Y71222500D03*
X135520000Y73497500D03*
X134570000Y73497500D03*
X133620000Y73497500D03*
G04 #@! TD*
D12*
G04 #@! TO.C,U2*
X153399999Y71222499D03*
D13*
X154350000Y71222500D03*
X155300000Y71222500D03*
X155300000Y73497500D03*
X154350000Y73497500D03*
X153400000Y73497500D03*
G04 #@! TD*
D12*
G04 #@! TO.C,U2*
X173179999Y71222499D03*
D13*
X174130000Y71222500D03*
X175080000Y71222500D03*
X175080000Y73497500D03*
X174130000Y73497500D03*
X173180000Y73497500D03*
G04 #@! TD*
D12*
G04 #@! TO.C,U2*
X192959999Y71222499D03*
D13*
X193910000Y71222500D03*
X194860000Y71222500D03*
X194860000Y73497500D03*
X193910000Y73497500D03*
X192960000Y73497500D03*
G04 #@! TD*
D12*
G04 #@! TO.C,U2*
X14939999Y43222499D03*
D13*
X15890000Y43222500D03*
X16840000Y43222500D03*
X16840000Y45497500D03*
X15890000Y45497500D03*
X14940000Y45497500D03*
G04 #@! TD*
D12*
G04 #@! TO.C,U2*
X14939999Y127222499D03*
D13*
X15890000Y127222500D03*
X16840000Y127222500D03*
X16840000Y129497500D03*
X15890000Y129497500D03*
X14940000Y129497500D03*
G04 #@! TD*
D12*
G04 #@! TO.C,U2*
X34719999Y127222499D03*
D13*
X35670000Y127222500D03*
X36620000Y127222500D03*
X36620000Y129497500D03*
X35670000Y129497500D03*
X34720000Y129497500D03*
G04 #@! TD*
D12*
G04 #@! TO.C,U2*
X54499999Y127222499D03*
D13*
X55450000Y127222500D03*
X56400000Y127222500D03*
X56400000Y129497500D03*
X55450000Y129497500D03*
X54500000Y129497500D03*
G04 #@! TD*
D12*
G04 #@! TO.C,U2*
X74279999Y127222499D03*
D13*
X75230000Y127222500D03*
X76180000Y127222500D03*
X76180000Y129497500D03*
X75230000Y129497500D03*
X74280000Y129497500D03*
G04 #@! TD*
D12*
G04 #@! TO.C,U2*
X94059999Y127222499D03*
D13*
X95010000Y127222500D03*
X95960000Y127222500D03*
X95960000Y129497500D03*
X95010000Y129497500D03*
X94060000Y129497500D03*
G04 #@! TD*
D12*
G04 #@! TO.C,U2*
X113839999Y127222499D03*
D13*
X114790000Y127222500D03*
X115740000Y127222500D03*
X115740000Y129497500D03*
X114790000Y129497500D03*
X113840000Y129497500D03*
G04 #@! TD*
D12*
G04 #@! TO.C,U2*
X133619999Y127222499D03*
D13*
X134570000Y127222500D03*
X135520000Y127222500D03*
X135520000Y129497500D03*
X134570000Y129497500D03*
X133620000Y129497500D03*
G04 #@! TD*
D12*
G04 #@! TO.C,U2*
X74279999Y15222499D03*
D13*
X75230000Y15222500D03*
X76180000Y15222500D03*
X76180000Y17497500D03*
X75230000Y17497500D03*
X74280000Y17497500D03*
G04 #@! TD*
D12*
G04 #@! TO.C,U2*
X94059999Y15222499D03*
D13*
X95010000Y15222500D03*
X95960000Y15222500D03*
X95960000Y17497500D03*
X95010000Y17497500D03*
X94060000Y17497500D03*
G04 #@! TD*
D12*
G04 #@! TO.C,U2*
X113839999Y15222499D03*
D13*
X114790000Y15222500D03*
X115740000Y15222500D03*
X115740000Y17497500D03*
X114790000Y17497500D03*
X113840000Y17497500D03*
G04 #@! TD*
D12*
G04 #@! TO.C,U2*
X133619999Y15222499D03*
D13*
X134570000Y15222500D03*
X135520000Y15222500D03*
X135520000Y17497500D03*
X134570000Y17497500D03*
X133620000Y17497500D03*
G04 #@! TD*
D12*
G04 #@! TO.C,U2*
X153399999Y15222499D03*
D13*
X154350000Y15222500D03*
X155300000Y15222500D03*
X155300000Y17497500D03*
X154350000Y17497500D03*
X153400000Y17497500D03*
G04 #@! TD*
D12*
G04 #@! TO.C,U2*
X173179999Y15222499D03*
D13*
X174130000Y15222500D03*
X175080000Y15222500D03*
X175080000Y17497500D03*
X174130000Y17497500D03*
X173180000Y17497500D03*
G04 #@! TD*
D12*
G04 #@! TO.C,U2*
X192959999Y15222499D03*
D13*
X193910000Y15222500D03*
X194860000Y15222500D03*
X194860000Y17497500D03*
X193910000Y17497500D03*
X192960000Y17497500D03*
G04 #@! TD*
D12*
G04 #@! TO.C,U2*
X153399999Y127222499D03*
D13*
X154350000Y127222500D03*
X155300000Y127222500D03*
X155300000Y129497500D03*
X154350000Y129497500D03*
X153400000Y129497500D03*
G04 #@! TD*
D12*
G04 #@! TO.C,U2*
X173179999Y127222499D03*
D13*
X174130000Y127222500D03*
X175080000Y127222500D03*
X175080000Y129497500D03*
X174130000Y129497500D03*
X173180000Y129497500D03*
G04 #@! TD*
D12*
G04 #@! TO.C,U2*
X192959999Y127222499D03*
D13*
X193910000Y127222500D03*
X194860000Y127222500D03*
X194860000Y129497500D03*
X193910000Y129497500D03*
X192960000Y129497500D03*
G04 #@! TD*
D12*
G04 #@! TO.C,U2*
X192959999Y99222499D03*
D13*
X193910000Y99222500D03*
X194860000Y99222500D03*
X194860000Y101497500D03*
X193910000Y101497500D03*
X192960000Y101497500D03*
G04 #@! TD*
D12*
G04 #@! TO.C,U2*
X14939999Y99222499D03*
D13*
X15890000Y99222500D03*
X16840000Y99222500D03*
X16840000Y101497500D03*
X15890000Y101497500D03*
X14940000Y101497500D03*
G04 #@! TD*
D12*
G04 #@! TO.C,U2*
X34719999Y99222499D03*
D13*
X35670000Y99222500D03*
X36620000Y99222500D03*
X36620000Y101497500D03*
X35670000Y101497500D03*
X34720000Y101497500D03*
G04 #@! TD*
D12*
G04 #@! TO.C,U2*
X54499999Y99222499D03*
D13*
X55450000Y99222500D03*
X56400000Y99222500D03*
X56400000Y101497500D03*
X55450000Y101497500D03*
X54500000Y101497500D03*
G04 #@! TD*
D12*
G04 #@! TO.C,U2*
X74279999Y99222499D03*
D13*
X75230000Y99222500D03*
X76180000Y99222500D03*
X76180000Y101497500D03*
X75230000Y101497500D03*
X74280000Y101497500D03*
G04 #@! TD*
D12*
G04 #@! TO.C,U2*
X94059999Y99222499D03*
D13*
X95010000Y99222500D03*
X95960000Y99222500D03*
X95960000Y101497500D03*
X95010000Y101497500D03*
X94060000Y101497500D03*
G04 #@! TD*
D12*
G04 #@! TO.C,U2*
X113839999Y99222499D03*
D13*
X114790000Y99222500D03*
X115740000Y99222500D03*
X115740000Y101497500D03*
X114790000Y101497500D03*
X113840000Y101497500D03*
G04 #@! TD*
D12*
G04 #@! TO.C,U2*
X133619999Y99222499D03*
D13*
X134570000Y99222500D03*
X135520000Y99222500D03*
X135520000Y101497500D03*
X134570000Y101497500D03*
X133620000Y101497500D03*
G04 #@! TD*
D12*
G04 #@! TO.C,U2*
X153399999Y99222499D03*
D13*
X154350000Y99222500D03*
X155300000Y99222500D03*
X155300000Y101497500D03*
X154350000Y101497500D03*
X153400000Y101497500D03*
G04 #@! TD*
D11*
G04 #@! TO.C,REF\u002A\u002A*
X2500000Y2500000D03*
G04 #@! TD*
D14*
G04 #@! TO.C,R5*
X14940000Y132160000D03*
X14940000Y131140000D03*
G04 #@! TD*
G04 #@! TO.C,R5*
X34720000Y132160000D03*
X34720000Y131140000D03*
G04 #@! TD*
G04 #@! TO.C,R5*
X54500000Y132160000D03*
X54500000Y131140000D03*
G04 #@! TD*
G04 #@! TO.C,R5*
X74280000Y132160000D03*
X74280000Y131140000D03*
G04 #@! TD*
G04 #@! TO.C,R5*
X94060000Y132160000D03*
X94060000Y131140000D03*
G04 #@! TD*
G04 #@! TO.C,R5*
X113840000Y132160000D03*
X113840000Y131140000D03*
G04 #@! TD*
G04 #@! TO.C,R5*
X133620000Y132160000D03*
X133620000Y131140000D03*
G04 #@! TD*
G04 #@! TO.C,R5*
X153400000Y132160000D03*
X153400000Y131140000D03*
G04 #@! TD*
G04 #@! TO.C,R5*
X94060000Y76160000D03*
X94060000Y75140000D03*
G04 #@! TD*
G04 #@! TO.C,R5*
X113840000Y76160000D03*
X113840000Y75140000D03*
G04 #@! TD*
G04 #@! TO.C,R5*
X133620000Y76160000D03*
X133620000Y75140000D03*
G04 #@! TD*
G04 #@! TO.C,R5*
X153400000Y76160000D03*
X153400000Y75140000D03*
G04 #@! TD*
G04 #@! TO.C,R5*
X173180000Y76160000D03*
X173180000Y75140000D03*
G04 #@! TD*
G04 #@! TO.C,R5*
X192960000Y76160000D03*
X192960000Y75140000D03*
G04 #@! TD*
G04 #@! TO.C,R5*
X14940000Y48160000D03*
X14940000Y47140000D03*
G04 #@! TD*
G04 #@! TO.C,R5*
X34720000Y48160000D03*
X34720000Y47140000D03*
G04 #@! TD*
G04 #@! TO.C,R5*
X54500000Y48160000D03*
X54500000Y47140000D03*
G04 #@! TD*
G04 #@! TO.C,R5*
X74280000Y48160000D03*
X74280000Y47140000D03*
G04 #@! TD*
G04 #@! TO.C,R5*
X94060000Y48160000D03*
X94060000Y47140000D03*
G04 #@! TD*
G04 #@! TO.C,R5*
X113840000Y48160000D03*
X113840000Y47140000D03*
G04 #@! TD*
G04 #@! TO.C,R5*
X133620000Y48160000D03*
X133620000Y47140000D03*
G04 #@! TD*
G04 #@! TO.C,R5*
X153400000Y48160000D03*
X153400000Y47140000D03*
G04 #@! TD*
G04 #@! TO.C,R5*
X173180000Y48160000D03*
X173180000Y47140000D03*
G04 #@! TD*
G04 #@! TO.C,R5*
X192960000Y48160000D03*
X192960000Y47140000D03*
G04 #@! TD*
G04 #@! TO.C,R5*
X14940000Y20160000D03*
X14940000Y19140000D03*
G04 #@! TD*
G04 #@! TO.C,R5*
X34720000Y20160000D03*
X34720000Y19140000D03*
G04 #@! TD*
G04 #@! TO.C,R5*
X54500000Y20160000D03*
X54500000Y19140000D03*
G04 #@! TD*
G04 #@! TO.C,R5*
X74280000Y20160000D03*
X74280000Y19140000D03*
G04 #@! TD*
G04 #@! TO.C,R5*
X94060000Y20160000D03*
X94060000Y19140000D03*
G04 #@! TD*
G04 #@! TO.C,R5*
X113840000Y20160000D03*
X113840000Y19140000D03*
G04 #@! TD*
G04 #@! TO.C,R5*
X133620000Y20160000D03*
X133620000Y19140000D03*
G04 #@! TD*
G04 #@! TO.C,R5*
X153400000Y20160000D03*
X153400000Y19140000D03*
G04 #@! TD*
G04 #@! TO.C,R5*
X173180000Y20160000D03*
X173180000Y19140000D03*
G04 #@! TD*
G04 #@! TO.C,R5*
X192960000Y20160000D03*
X192960000Y19140000D03*
G04 #@! TD*
G04 #@! TO.C,R5*
X173180000Y132160000D03*
X173180000Y131140000D03*
G04 #@! TD*
G04 #@! TO.C,R5*
X192960000Y132160000D03*
X192960000Y131140000D03*
G04 #@! TD*
G04 #@! TO.C,R5*
X192960000Y104160000D03*
X192960000Y103140000D03*
G04 #@! TD*
G04 #@! TO.C,R5*
X14940000Y104160000D03*
X14940000Y103140000D03*
G04 #@! TD*
G04 #@! TO.C,R5*
X34720000Y104160000D03*
X34720000Y103140000D03*
G04 #@! TD*
G04 #@! TO.C,R5*
X54500000Y104160000D03*
X54500000Y103140000D03*
G04 #@! TD*
G04 #@! TO.C,R5*
X74280000Y104160000D03*
X74280000Y103140000D03*
G04 #@! TD*
G04 #@! TO.C,R5*
X94060000Y104160000D03*
X94060000Y103140000D03*
G04 #@! TD*
G04 #@! TO.C,R5*
X113840000Y104160000D03*
X113840000Y103140000D03*
G04 #@! TD*
G04 #@! TO.C,R5*
X133620000Y104160000D03*
X133620000Y103140000D03*
G04 #@! TD*
G04 #@! TO.C,R5*
X153400000Y104160000D03*
X153400000Y103140000D03*
G04 #@! TD*
G04 #@! TO.C,R5*
X173180000Y104160000D03*
X173180000Y103140000D03*
G04 #@! TD*
G04 #@! TO.C,R5*
X14940000Y76160000D03*
X14940000Y75140000D03*
G04 #@! TD*
G04 #@! TO.C,R5*
X34720000Y76160000D03*
X34720000Y75140000D03*
G04 #@! TD*
G04 #@! TO.C,R5*
X54500000Y76160000D03*
X54500000Y75140000D03*
G04 #@! TD*
G04 #@! TO.C,R5*
X74280000Y76160000D03*
X74280000Y75140000D03*
G04 #@! TD*
G04 #@! TO.C,R4*
X16840000Y132160000D03*
X16840000Y131140000D03*
G04 #@! TD*
G04 #@! TO.C,R4*
X36620000Y132160000D03*
X36620000Y131140000D03*
G04 #@! TD*
G04 #@! TO.C,R4*
X56400000Y132160000D03*
X56400000Y131140000D03*
G04 #@! TD*
G04 #@! TO.C,R4*
X76180000Y132160000D03*
X76180000Y131140000D03*
G04 #@! TD*
G04 #@! TO.C,R4*
X95960000Y132160000D03*
X95960000Y131140000D03*
G04 #@! TD*
G04 #@! TO.C,R4*
X115740000Y132160000D03*
X115740000Y131140000D03*
G04 #@! TD*
G04 #@! TO.C,R4*
X135520000Y132160000D03*
X135520000Y131140000D03*
G04 #@! TD*
G04 #@! TO.C,R4*
X155300000Y132160000D03*
X155300000Y131140000D03*
G04 #@! TD*
G04 #@! TO.C,R4*
X175080000Y132160000D03*
X175080000Y131140000D03*
G04 #@! TD*
G04 #@! TO.C,R4*
X194860000Y132160000D03*
X194860000Y131140000D03*
G04 #@! TD*
G04 #@! TO.C,R4*
X194860000Y104160000D03*
X194860000Y103140000D03*
G04 #@! TD*
G04 #@! TO.C,R4*
X16840000Y104160000D03*
X16840000Y103140000D03*
G04 #@! TD*
G04 #@! TO.C,R4*
X36620000Y104160000D03*
X36620000Y103140000D03*
G04 #@! TD*
G04 #@! TO.C,R4*
X56400000Y104160000D03*
X56400000Y103140000D03*
G04 #@! TD*
G04 #@! TO.C,R4*
X76180000Y104160000D03*
X76180000Y103140000D03*
G04 #@! TD*
G04 #@! TO.C,R4*
X95960000Y104160000D03*
X95960000Y103140000D03*
G04 #@! TD*
G04 #@! TO.C,R4*
X115740000Y104160000D03*
X115740000Y103140000D03*
G04 #@! TD*
G04 #@! TO.C,R4*
X135520000Y104160000D03*
X135520000Y103140000D03*
G04 #@! TD*
G04 #@! TO.C,R4*
X155300000Y104160000D03*
X155300000Y103140000D03*
G04 #@! TD*
G04 #@! TO.C,R4*
X175080000Y104160000D03*
X175080000Y103140000D03*
G04 #@! TD*
G04 #@! TO.C,R4*
X16840000Y76160000D03*
X16840000Y75140000D03*
G04 #@! TD*
G04 #@! TO.C,R4*
X36620000Y76160000D03*
X36620000Y75140000D03*
G04 #@! TD*
G04 #@! TO.C,R4*
X56400000Y76160000D03*
X56400000Y75140000D03*
G04 #@! TD*
G04 #@! TO.C,R4*
X76180000Y76160000D03*
X76180000Y75140000D03*
G04 #@! TD*
G04 #@! TO.C,R4*
X95960000Y76160000D03*
X95960000Y75140000D03*
G04 #@! TD*
G04 #@! TO.C,R4*
X115740000Y76160000D03*
X115740000Y75140000D03*
G04 #@! TD*
G04 #@! TO.C,R4*
X135520000Y76160000D03*
X135520000Y75140000D03*
G04 #@! TD*
G04 #@! TO.C,R4*
X155300000Y76160000D03*
X155300000Y75140000D03*
G04 #@! TD*
G04 #@! TO.C,R4*
X175080000Y76160000D03*
X175080000Y75140000D03*
G04 #@! TD*
G04 #@! TO.C,R4*
X194860000Y76160000D03*
X194860000Y75140000D03*
G04 #@! TD*
G04 #@! TO.C,R4*
X16840000Y48160000D03*
X16840000Y47140000D03*
G04 #@! TD*
G04 #@! TO.C,R4*
X36620000Y48160000D03*
X36620000Y47140000D03*
G04 #@! TD*
G04 #@! TO.C,R4*
X56400000Y48160000D03*
X56400000Y47140000D03*
G04 #@! TD*
G04 #@! TO.C,R4*
X76180000Y48160000D03*
X76180000Y47140000D03*
G04 #@! TD*
G04 #@! TO.C,R4*
X95960000Y48160000D03*
X95960000Y47140000D03*
G04 #@! TD*
G04 #@! TO.C,R4*
X115740000Y48160000D03*
X115740000Y47140000D03*
G04 #@! TD*
G04 #@! TO.C,R4*
X135520000Y48160000D03*
X135520000Y47140000D03*
G04 #@! TD*
G04 #@! TO.C,R4*
X155300000Y48160000D03*
X155300000Y47140000D03*
G04 #@! TD*
G04 #@! TO.C,R4*
X175080000Y48160000D03*
X175080000Y47140000D03*
G04 #@! TD*
G04 #@! TO.C,R4*
X194860000Y48160000D03*
X194860000Y47140000D03*
G04 #@! TD*
G04 #@! TO.C,R4*
X16840000Y20160000D03*
X16840000Y19140000D03*
G04 #@! TD*
G04 #@! TO.C,R4*
X36620000Y20160000D03*
X36620000Y19140000D03*
G04 #@! TD*
G04 #@! TO.C,R4*
X56400000Y20160000D03*
X56400000Y19140000D03*
G04 #@! TD*
G04 #@! TO.C,R4*
X76180000Y20160000D03*
X76180000Y19140000D03*
G04 #@! TD*
G04 #@! TO.C,R4*
X95960000Y20160000D03*
X95960000Y19140000D03*
G04 #@! TD*
G04 #@! TO.C,R4*
X115740000Y20160000D03*
X115740000Y19140000D03*
G04 #@! TD*
G04 #@! TO.C,R4*
X135520000Y20160000D03*
X135520000Y19140000D03*
G04 #@! TD*
G04 #@! TO.C,R4*
X155300000Y20160000D03*
X155300000Y19140000D03*
G04 #@! TD*
G04 #@! TO.C,R4*
X175080000Y20160000D03*
X175080000Y19140000D03*
G04 #@! TD*
G04 #@! TO.C,R4*
X194860000Y20160000D03*
X194860000Y19140000D03*
G04 #@! TD*
D15*
G04 #@! TO.C,F1*
X53100000Y47165000D03*
X53100000Y48135000D03*
G04 #@! TD*
G04 #@! TO.C,F1*
X72880000Y47165000D03*
X72880000Y48135000D03*
G04 #@! TD*
G04 #@! TO.C,F1*
X92660000Y47165000D03*
X92660000Y48135000D03*
G04 #@! TD*
G04 #@! TO.C,F1*
X112440000Y47165000D03*
X112440000Y48135000D03*
G04 #@! TD*
G04 #@! TO.C,F1*
X132220000Y47165000D03*
X132220000Y48135000D03*
G04 #@! TD*
G04 #@! TO.C,F1*
X152000000Y47165000D03*
X152000000Y48135000D03*
G04 #@! TD*
G04 #@! TO.C,F1*
X171780000Y47165000D03*
X171780000Y48135000D03*
G04 #@! TD*
G04 #@! TO.C,F1*
X191560000Y47165000D03*
X191560000Y48135000D03*
G04 #@! TD*
G04 #@! TO.C,F1*
X13540000Y19165000D03*
X13540000Y20135000D03*
G04 #@! TD*
G04 #@! TO.C,F1*
X33320000Y19165000D03*
X33320000Y20135000D03*
G04 #@! TD*
G04 #@! TO.C,F1*
X53100000Y19165000D03*
X53100000Y20135000D03*
G04 #@! TD*
G04 #@! TO.C,F1*
X72880000Y19165000D03*
X72880000Y20135000D03*
G04 #@! TD*
G04 #@! TO.C,F1*
X92660000Y19165000D03*
X92660000Y20135000D03*
G04 #@! TD*
G04 #@! TO.C,F1*
X112440000Y19165000D03*
X112440000Y20135000D03*
G04 #@! TD*
G04 #@! TO.C,F1*
X132220000Y19165000D03*
X132220000Y20135000D03*
G04 #@! TD*
G04 #@! TO.C,F1*
X152000000Y19165000D03*
X152000000Y20135000D03*
G04 #@! TD*
G04 #@! TO.C,F1*
X171780000Y19165000D03*
X171780000Y20135000D03*
G04 #@! TD*
G04 #@! TO.C,F1*
X191560000Y19165000D03*
X191560000Y20135000D03*
G04 #@! TD*
G04 #@! TO.C,F1*
X13540000Y131165000D03*
X13540000Y132135000D03*
G04 #@! TD*
G04 #@! TO.C,F1*
X33320000Y131165000D03*
X33320000Y132135000D03*
G04 #@! TD*
G04 #@! TO.C,F1*
X53100000Y131165000D03*
X53100000Y132135000D03*
G04 #@! TD*
G04 #@! TO.C,F1*
X72880000Y131165000D03*
X72880000Y132135000D03*
G04 #@! TD*
G04 #@! TO.C,F1*
X92660000Y131165000D03*
X92660000Y132135000D03*
G04 #@! TD*
G04 #@! TO.C,F1*
X112440000Y131165000D03*
X112440000Y132135000D03*
G04 #@! TD*
G04 #@! TO.C,F1*
X132220000Y131165000D03*
X132220000Y132135000D03*
G04 #@! TD*
G04 #@! TO.C,F1*
X152000000Y131165000D03*
X152000000Y132135000D03*
G04 #@! TD*
G04 #@! TO.C,F1*
X171780000Y131165000D03*
X171780000Y132135000D03*
G04 #@! TD*
G04 #@! TO.C,F1*
X191560000Y131165000D03*
X191560000Y132135000D03*
G04 #@! TD*
G04 #@! TO.C,F1*
X13540000Y103165000D03*
X13540000Y104135000D03*
G04 #@! TD*
G04 #@! TO.C,F1*
X33320000Y103165000D03*
X33320000Y104135000D03*
G04 #@! TD*
G04 #@! TO.C,F1*
X53100000Y103165000D03*
X53100000Y104135000D03*
G04 #@! TD*
G04 #@! TO.C,F1*
X72880000Y103165000D03*
X72880000Y104135000D03*
G04 #@! TD*
G04 #@! TO.C,F1*
X92660000Y103165000D03*
X92660000Y104135000D03*
G04 #@! TD*
G04 #@! TO.C,F1*
X112440000Y103165000D03*
X112440000Y104135000D03*
G04 #@! TD*
G04 #@! TO.C,F1*
X132220000Y103165000D03*
X132220000Y104135000D03*
G04 #@! TD*
G04 #@! TO.C,F1*
X152000000Y103165000D03*
X152000000Y104135000D03*
G04 #@! TD*
G04 #@! TO.C,F1*
X171780000Y103165000D03*
X171780000Y104135000D03*
G04 #@! TD*
G04 #@! TO.C,F1*
X191560000Y103165000D03*
X191560000Y104135000D03*
G04 #@! TD*
G04 #@! TO.C,F1*
X13540000Y75165000D03*
X13540000Y76135000D03*
G04 #@! TD*
G04 #@! TO.C,F1*
X33320000Y75165000D03*
X33320000Y76135000D03*
G04 #@! TD*
G04 #@! TO.C,F1*
X53100000Y75165000D03*
X53100000Y76135000D03*
G04 #@! TD*
G04 #@! TO.C,F1*
X72880000Y75165000D03*
X72880000Y76135000D03*
G04 #@! TD*
G04 #@! TO.C,F1*
X92660000Y75165000D03*
X92660000Y76135000D03*
G04 #@! TD*
G04 #@! TO.C,F1*
X112440000Y75165000D03*
X112440000Y76135000D03*
G04 #@! TD*
G04 #@! TO.C,F1*
X132220000Y75165000D03*
X132220000Y76135000D03*
G04 #@! TD*
G04 #@! TO.C,F1*
X152000000Y75165000D03*
X152000000Y76135000D03*
G04 #@! TD*
G04 #@! TO.C,F1*
X171780000Y75165000D03*
X171780000Y76135000D03*
G04 #@! TD*
G04 #@! TO.C,F1*
X191560000Y75165000D03*
X191560000Y76135000D03*
G04 #@! TD*
G04 #@! TO.C,F1*
X13540000Y47165000D03*
X13540000Y48135000D03*
G04 #@! TD*
G04 #@! TO.C,F1*
X33320000Y47165000D03*
X33320000Y48135000D03*
G04 #@! TD*
D16*
G04 #@! TO.C,R1*
X18240000Y128970000D03*
X18240000Y129990000D03*
G04 #@! TD*
G04 #@! TO.C,R1*
X38020000Y128970000D03*
X38020000Y129990000D03*
G04 #@! TD*
G04 #@! TO.C,R1*
X57800000Y128970000D03*
X57800000Y129990000D03*
G04 #@! TD*
G04 #@! TO.C,R1*
X77580000Y128970000D03*
X77580000Y129990000D03*
G04 #@! TD*
G04 #@! TO.C,R1*
X97360000Y128970000D03*
X97360000Y129990000D03*
G04 #@! TD*
G04 #@! TO.C,R1*
X117140000Y128970000D03*
X117140000Y129990000D03*
G04 #@! TD*
G04 #@! TO.C,R1*
X136920000Y128970000D03*
X136920000Y129990000D03*
G04 #@! TD*
G04 #@! TO.C,R1*
X156700000Y128970000D03*
X156700000Y129990000D03*
G04 #@! TD*
G04 #@! TO.C,R1*
X176480000Y128970000D03*
X176480000Y129990000D03*
G04 #@! TD*
G04 #@! TO.C,R1*
X196260000Y128970000D03*
X196260000Y129990000D03*
G04 #@! TD*
G04 #@! TO.C,R1*
X18240000Y100970000D03*
X18240000Y101990000D03*
G04 #@! TD*
G04 #@! TO.C,R1*
X38020000Y100970000D03*
X38020000Y101990000D03*
G04 #@! TD*
G04 #@! TO.C,R1*
X57800000Y100970000D03*
X57800000Y101990000D03*
G04 #@! TD*
G04 #@! TO.C,R1*
X77580000Y100970000D03*
X77580000Y101990000D03*
G04 #@! TD*
G04 #@! TO.C,R1*
X97360000Y100970000D03*
X97360000Y101990000D03*
G04 #@! TD*
G04 #@! TO.C,R1*
X117140000Y100970000D03*
X117140000Y101990000D03*
G04 #@! TD*
G04 #@! TO.C,R1*
X136920000Y100970000D03*
X136920000Y101990000D03*
G04 #@! TD*
G04 #@! TO.C,R1*
X156700000Y100970000D03*
X156700000Y101990000D03*
G04 #@! TD*
G04 #@! TO.C,R1*
X176480000Y100970000D03*
X176480000Y101990000D03*
G04 #@! TD*
G04 #@! TO.C,R1*
X196260000Y100970000D03*
X196260000Y101990000D03*
G04 #@! TD*
G04 #@! TO.C,R1*
X18240000Y72970000D03*
X18240000Y73990000D03*
G04 #@! TD*
G04 #@! TO.C,R1*
X38020000Y72970000D03*
X38020000Y73990000D03*
G04 #@! TD*
G04 #@! TO.C,R1*
X57800000Y72970000D03*
X57800000Y73990000D03*
G04 #@! TD*
G04 #@! TO.C,R1*
X77580000Y72970000D03*
X77580000Y73990000D03*
G04 #@! TD*
G04 #@! TO.C,R1*
X97360000Y72970000D03*
X97360000Y73990000D03*
G04 #@! TD*
G04 #@! TO.C,R1*
X117140000Y72970000D03*
X117140000Y73990000D03*
G04 #@! TD*
G04 #@! TO.C,R1*
X136920000Y72970000D03*
X136920000Y73990000D03*
G04 #@! TD*
G04 #@! TO.C,R1*
X156700000Y72970000D03*
X156700000Y73990000D03*
G04 #@! TD*
G04 #@! TO.C,R1*
X176480000Y72970000D03*
X176480000Y73990000D03*
G04 #@! TD*
G04 #@! TO.C,R1*
X196260000Y72970000D03*
X196260000Y73990000D03*
G04 #@! TD*
G04 #@! TO.C,R1*
X18240000Y44970000D03*
X18240000Y45990000D03*
G04 #@! TD*
G04 #@! TO.C,R1*
X38020000Y44970000D03*
X38020000Y45990000D03*
G04 #@! TD*
G04 #@! TO.C,R1*
X57800000Y44970000D03*
X57800000Y45990000D03*
G04 #@! TD*
G04 #@! TO.C,R1*
X77580000Y44970000D03*
X77580000Y45990000D03*
G04 #@! TD*
G04 #@! TO.C,R1*
X97360000Y44970000D03*
X97360000Y45990000D03*
G04 #@! TD*
G04 #@! TO.C,R1*
X117140000Y44970000D03*
X117140000Y45990000D03*
G04 #@! TD*
G04 #@! TO.C,R1*
X136920000Y44970000D03*
X136920000Y45990000D03*
G04 #@! TD*
G04 #@! TO.C,R1*
X156700000Y44970000D03*
X156700000Y45990000D03*
G04 #@! TD*
G04 #@! TO.C,R1*
X176480000Y44970000D03*
X176480000Y45990000D03*
G04 #@! TD*
G04 #@! TO.C,R1*
X196260000Y44970000D03*
X196260000Y45990000D03*
G04 #@! TD*
G04 #@! TO.C,R1*
X18240000Y16970000D03*
X18240000Y17990000D03*
G04 #@! TD*
G04 #@! TO.C,R1*
X38020000Y16970000D03*
X38020000Y17990000D03*
G04 #@! TD*
G04 #@! TO.C,R1*
X57800000Y16970000D03*
X57800000Y17990000D03*
G04 #@! TD*
G04 #@! TO.C,R1*
X77580000Y16970000D03*
X77580000Y17990000D03*
G04 #@! TD*
G04 #@! TO.C,R1*
X97360000Y16970000D03*
X97360000Y17990000D03*
G04 #@! TD*
G04 #@! TO.C,R1*
X117140000Y16970000D03*
X117140000Y17990000D03*
G04 #@! TD*
G04 #@! TO.C,R1*
X136920000Y16970000D03*
X136920000Y17990000D03*
G04 #@! TD*
G04 #@! TO.C,R1*
X156700000Y16970000D03*
X156700000Y17990000D03*
G04 #@! TD*
G04 #@! TO.C,R1*
X176480000Y16970000D03*
X176480000Y17990000D03*
G04 #@! TD*
G04 #@! TO.C,R1*
X196260000Y16970000D03*
X196260000Y17990000D03*
G04 #@! TD*
D17*
G04 #@! TO.C,D2*
X13539999Y128994999D03*
D15*
X13540000Y129965000D03*
G04 #@! TD*
D17*
G04 #@! TO.C,D2*
X33319999Y128994999D03*
D15*
X33320000Y129965000D03*
G04 #@! TD*
D17*
G04 #@! TO.C,D2*
X53099999Y128994999D03*
D15*
X53100000Y129965000D03*
G04 #@! TD*
D17*
G04 #@! TO.C,D2*
X72879999Y128994999D03*
D15*
X72880000Y129965000D03*
G04 #@! TD*
D17*
G04 #@! TO.C,D2*
X92659999Y128994999D03*
D15*
X92660000Y129965000D03*
G04 #@! TD*
D17*
G04 #@! TO.C,D2*
X112439999Y128994999D03*
D15*
X112440000Y129965000D03*
G04 #@! TD*
D17*
G04 #@! TO.C,D2*
X132219999Y128994999D03*
D15*
X132220000Y129965000D03*
G04 #@! TD*
D17*
G04 #@! TO.C,D2*
X151999999Y128994999D03*
D15*
X152000000Y129965000D03*
G04 #@! TD*
D17*
G04 #@! TO.C,D2*
X171779999Y128994999D03*
D15*
X171780000Y129965000D03*
G04 #@! TD*
D17*
G04 #@! TO.C,D2*
X191559999Y128994999D03*
D15*
X191560000Y129965000D03*
G04 #@! TD*
D17*
G04 #@! TO.C,D2*
X13539999Y100994999D03*
D15*
X13540000Y101965000D03*
G04 #@! TD*
D17*
G04 #@! TO.C,D2*
X33319999Y100994999D03*
D15*
X33320000Y101965000D03*
G04 #@! TD*
D17*
G04 #@! TO.C,D2*
X53099999Y100994999D03*
D15*
X53100000Y101965000D03*
G04 #@! TD*
D17*
G04 #@! TO.C,D2*
X72879999Y100994999D03*
D15*
X72880000Y101965000D03*
G04 #@! TD*
D17*
G04 #@! TO.C,D2*
X92659999Y100994999D03*
D15*
X92660000Y101965000D03*
G04 #@! TD*
D17*
G04 #@! TO.C,D2*
X112439999Y100994999D03*
D15*
X112440000Y101965000D03*
G04 #@! TD*
D17*
G04 #@! TO.C,D2*
X132219999Y100994999D03*
D15*
X132220000Y101965000D03*
G04 #@! TD*
D17*
G04 #@! TO.C,D2*
X151999999Y100994999D03*
D15*
X152000000Y101965000D03*
G04 #@! TD*
D17*
G04 #@! TO.C,D2*
X171779999Y100994999D03*
D15*
X171780000Y101965000D03*
G04 #@! TD*
D17*
G04 #@! TO.C,D2*
X191559999Y100994999D03*
D15*
X191560000Y101965000D03*
G04 #@! TD*
D17*
G04 #@! TO.C,D2*
X13539999Y72994999D03*
D15*
X13540000Y73965000D03*
G04 #@! TD*
D17*
G04 #@! TO.C,D2*
X33319999Y72994999D03*
D15*
X33320000Y73965000D03*
G04 #@! TD*
D17*
G04 #@! TO.C,D2*
X53099999Y72994999D03*
D15*
X53100000Y73965000D03*
G04 #@! TD*
D17*
G04 #@! TO.C,D2*
X72879999Y72994999D03*
D15*
X72880000Y73965000D03*
G04 #@! TD*
D17*
G04 #@! TO.C,D2*
X92659999Y72994999D03*
D15*
X92660000Y73965000D03*
G04 #@! TD*
D17*
G04 #@! TO.C,D2*
X112439999Y72994999D03*
D15*
X112440000Y73965000D03*
G04 #@! TD*
D17*
G04 #@! TO.C,D2*
X132219999Y72994999D03*
D15*
X132220000Y73965000D03*
G04 #@! TD*
D17*
G04 #@! TO.C,D2*
X151999999Y72994999D03*
D15*
X152000000Y73965000D03*
G04 #@! TD*
D17*
G04 #@! TO.C,D2*
X171779999Y72994999D03*
D15*
X171780000Y73965000D03*
G04 #@! TD*
D17*
G04 #@! TO.C,D2*
X191559999Y72994999D03*
D15*
X191560000Y73965000D03*
G04 #@! TD*
D17*
G04 #@! TO.C,D2*
X13539999Y44994999D03*
D15*
X13540000Y45965000D03*
G04 #@! TD*
D17*
G04 #@! TO.C,D2*
X33319999Y44994999D03*
D15*
X33320000Y45965000D03*
G04 #@! TD*
D17*
G04 #@! TO.C,D2*
X53099999Y44994999D03*
D15*
X53100000Y45965000D03*
G04 #@! TD*
D17*
G04 #@! TO.C,D2*
X72879999Y44994999D03*
D15*
X72880000Y45965000D03*
G04 #@! TD*
D17*
G04 #@! TO.C,D2*
X92659999Y44994999D03*
D15*
X92660000Y45965000D03*
G04 #@! TD*
D17*
G04 #@! TO.C,D2*
X112439999Y44994999D03*
D15*
X112440000Y45965000D03*
G04 #@! TD*
D17*
G04 #@! TO.C,D2*
X132219999Y44994999D03*
D15*
X132220000Y45965000D03*
G04 #@! TD*
D17*
G04 #@! TO.C,D2*
X151999999Y44994999D03*
D15*
X152000000Y45965000D03*
G04 #@! TD*
D17*
G04 #@! TO.C,D2*
X171779999Y44994999D03*
D15*
X171780000Y45965000D03*
G04 #@! TD*
D17*
G04 #@! TO.C,D2*
X191559999Y44994999D03*
D15*
X191560000Y45965000D03*
G04 #@! TD*
D17*
G04 #@! TO.C,D2*
X13539999Y16994999D03*
D15*
X13540000Y17965000D03*
G04 #@! TD*
D17*
G04 #@! TO.C,D2*
X33319999Y16994999D03*
D15*
X33320000Y17965000D03*
G04 #@! TD*
D17*
G04 #@! TO.C,D2*
X53099999Y16994999D03*
D15*
X53100000Y17965000D03*
G04 #@! TD*
D17*
G04 #@! TO.C,D2*
X72879999Y16994999D03*
D15*
X72880000Y17965000D03*
G04 #@! TD*
D17*
G04 #@! TO.C,D2*
X92659999Y16994999D03*
D15*
X92660000Y17965000D03*
G04 #@! TD*
D17*
G04 #@! TO.C,D2*
X112439999Y16994999D03*
D15*
X112440000Y17965000D03*
G04 #@! TD*
D17*
G04 #@! TO.C,D2*
X132219999Y16994999D03*
D15*
X132220000Y17965000D03*
G04 #@! TD*
D17*
G04 #@! TO.C,D2*
X151999999Y16994999D03*
D15*
X152000000Y17965000D03*
G04 #@! TD*
D17*
G04 #@! TO.C,D2*
X171779999Y16994999D03*
D15*
X171780000Y17965000D03*
G04 #@! TD*
D17*
G04 #@! TO.C,D2*
X191559999Y16994999D03*
D15*
X191560000Y17965000D03*
G04 #@! TD*
D17*
G04 #@! TO.C,D1*
X21864999Y136267499D03*
D18*
X21865000Y135297500D03*
G04 #@! TD*
D17*
G04 #@! TO.C,D1*
X41644999Y136267499D03*
D18*
X41645000Y135297500D03*
G04 #@! TD*
D17*
G04 #@! TO.C,D1*
X61424999Y136267499D03*
D18*
X61425000Y135297500D03*
G04 #@! TD*
D17*
G04 #@! TO.C,D1*
X81204999Y136267499D03*
D18*
X81205000Y135297500D03*
G04 #@! TD*
D17*
G04 #@! TO.C,D1*
X100984999Y136267499D03*
D18*
X100985000Y135297500D03*
G04 #@! TD*
D17*
G04 #@! TO.C,D1*
X120764999Y136267499D03*
D18*
X120765000Y135297500D03*
G04 #@! TD*
D17*
G04 #@! TO.C,D1*
X140544999Y136267499D03*
D18*
X140545000Y135297500D03*
G04 #@! TD*
D17*
G04 #@! TO.C,D1*
X160324999Y136267499D03*
D18*
X160325000Y135297500D03*
G04 #@! TD*
D17*
G04 #@! TO.C,D1*
X180104999Y136267499D03*
D18*
X180105000Y135297500D03*
G04 #@! TD*
D17*
G04 #@! TO.C,D1*
X199884999Y136267499D03*
D18*
X199885000Y135297500D03*
G04 #@! TD*
D17*
G04 #@! TO.C,D1*
X21864999Y108267499D03*
D18*
X21865000Y107297500D03*
G04 #@! TD*
D17*
G04 #@! TO.C,D1*
X41644999Y108267499D03*
D18*
X41645000Y107297500D03*
G04 #@! TD*
D17*
G04 #@! TO.C,D1*
X61424999Y108267499D03*
D18*
X61425000Y107297500D03*
G04 #@! TD*
D17*
G04 #@! TO.C,D1*
X81204999Y108267499D03*
D18*
X81205000Y107297500D03*
G04 #@! TD*
D17*
G04 #@! TO.C,D1*
X100984999Y108267499D03*
D18*
X100985000Y107297500D03*
G04 #@! TD*
D17*
G04 #@! TO.C,D1*
X120764999Y108267499D03*
D18*
X120765000Y107297500D03*
G04 #@! TD*
D17*
G04 #@! TO.C,D1*
X140544999Y108267499D03*
D18*
X140545000Y107297500D03*
G04 #@! TD*
D17*
G04 #@! TO.C,D1*
X160324999Y108267499D03*
D18*
X160325000Y107297500D03*
G04 #@! TD*
D17*
G04 #@! TO.C,D1*
X180104999Y108267499D03*
D18*
X180105000Y107297500D03*
G04 #@! TD*
D17*
G04 #@! TO.C,D1*
X199884999Y108267499D03*
D18*
X199885000Y107297500D03*
G04 #@! TD*
D17*
G04 #@! TO.C,D1*
X21864999Y80267499D03*
D18*
X21865000Y79297500D03*
G04 #@! TD*
D17*
G04 #@! TO.C,D1*
X41644999Y80267499D03*
D18*
X41645000Y79297500D03*
G04 #@! TD*
D17*
G04 #@! TO.C,D1*
X61424999Y80267499D03*
D18*
X61425000Y79297500D03*
G04 #@! TD*
D17*
G04 #@! TO.C,D1*
X81204999Y80267499D03*
D18*
X81205000Y79297500D03*
G04 #@! TD*
D17*
G04 #@! TO.C,D1*
X100984999Y80267499D03*
D18*
X100985000Y79297500D03*
G04 #@! TD*
D17*
G04 #@! TO.C,D1*
X120764999Y80267499D03*
D18*
X120765000Y79297500D03*
G04 #@! TD*
D17*
G04 #@! TO.C,D1*
X140544999Y80267499D03*
D18*
X140545000Y79297500D03*
G04 #@! TD*
D17*
G04 #@! TO.C,D1*
X160324999Y80267499D03*
D18*
X160325000Y79297500D03*
G04 #@! TD*
D17*
G04 #@! TO.C,D1*
X180104999Y80267499D03*
D18*
X180105000Y79297500D03*
G04 #@! TD*
D17*
G04 #@! TO.C,D1*
X199884999Y80267499D03*
D18*
X199885000Y79297500D03*
G04 #@! TD*
D17*
G04 #@! TO.C,D1*
X21864999Y52267499D03*
D18*
X21865000Y51297500D03*
G04 #@! TD*
D17*
G04 #@! TO.C,D1*
X41644999Y52267499D03*
D18*
X41645000Y51297500D03*
G04 #@! TD*
D17*
G04 #@! TO.C,D1*
X61424999Y52267499D03*
D18*
X61425000Y51297500D03*
G04 #@! TD*
D17*
G04 #@! TO.C,D1*
X81204999Y52267499D03*
D18*
X81205000Y51297500D03*
G04 #@! TD*
D17*
G04 #@! TO.C,D1*
X100984999Y52267499D03*
D18*
X100985000Y51297500D03*
G04 #@! TD*
D17*
G04 #@! TO.C,D1*
X120764999Y52267499D03*
D18*
X120765000Y51297500D03*
G04 #@! TD*
D17*
G04 #@! TO.C,D1*
X140544999Y52267499D03*
D18*
X140545000Y51297500D03*
G04 #@! TD*
D17*
G04 #@! TO.C,D1*
X160324999Y52267499D03*
D18*
X160325000Y51297500D03*
G04 #@! TD*
D17*
G04 #@! TO.C,D1*
X180104999Y52267499D03*
D18*
X180105000Y51297500D03*
G04 #@! TD*
D17*
G04 #@! TO.C,D1*
X199884999Y52267499D03*
D18*
X199885000Y51297500D03*
G04 #@! TD*
D17*
G04 #@! TO.C,D1*
X21864999Y24267499D03*
D18*
X21865000Y23297500D03*
G04 #@! TD*
D17*
G04 #@! TO.C,D1*
X41644999Y24267499D03*
D18*
X41645000Y23297500D03*
G04 #@! TD*
D17*
G04 #@! TO.C,D1*
X61424999Y24267499D03*
D18*
X61425000Y23297500D03*
G04 #@! TD*
D17*
G04 #@! TO.C,D1*
X81204999Y24267499D03*
D18*
X81205000Y23297500D03*
G04 #@! TD*
D17*
G04 #@! TO.C,D1*
X100984999Y24267499D03*
D18*
X100985000Y23297500D03*
G04 #@! TD*
D17*
G04 #@! TO.C,D1*
X120764999Y24267499D03*
D18*
X120765000Y23297500D03*
G04 #@! TD*
D17*
G04 #@! TO.C,D1*
X140544999Y24267499D03*
D18*
X140545000Y23297500D03*
G04 #@! TD*
D17*
G04 #@! TO.C,D1*
X160324999Y24267499D03*
D18*
X160325000Y23297500D03*
G04 #@! TD*
D17*
G04 #@! TO.C,D1*
X180104999Y24267499D03*
D18*
X180105000Y23297500D03*
G04 #@! TD*
D17*
G04 #@! TO.C,D1*
X199884999Y24267499D03*
D18*
X199885000Y23297500D03*
G04 #@! TD*
D19*
G04 #@! TO.C,J1*
X19139999Y133904999D03*
X18339999Y133904999D03*
D20*
X17139999Y133904999D03*
X16139999Y133904999D03*
X15639999Y133904999D03*
X14639999Y133904999D03*
D19*
X13439999Y133904999D03*
X12639999Y133904999D03*
X12639999Y133904999D03*
X13439999Y133904999D03*
D20*
X14139999Y133904999D03*
X15139999Y133904999D03*
X16639999Y133904999D03*
X17639999Y133904999D03*
D19*
X18339999Y133904999D03*
X19139999Y133904999D03*
G04 #@! TD*
G04 #@! TO.C,J1*
X38919999Y133904999D03*
X38119999Y133904999D03*
D20*
X36919999Y133904999D03*
X35919999Y133904999D03*
X35419999Y133904999D03*
X34419999Y133904999D03*
D19*
X33219999Y133904999D03*
X32419999Y133904999D03*
X32419999Y133904999D03*
X33219999Y133904999D03*
D20*
X33919999Y133904999D03*
X34919999Y133904999D03*
X36419999Y133904999D03*
X37419999Y133904999D03*
D19*
X38119999Y133904999D03*
X38919999Y133904999D03*
G04 #@! TD*
G04 #@! TO.C,J1*
X58699999Y133904999D03*
X57899999Y133904999D03*
D20*
X56699999Y133904999D03*
X55699999Y133904999D03*
X55199999Y133904999D03*
X54199999Y133904999D03*
D19*
X52999999Y133904999D03*
X52199999Y133904999D03*
X52199999Y133904999D03*
X52999999Y133904999D03*
D20*
X53699999Y133904999D03*
X54699999Y133904999D03*
X56199999Y133904999D03*
X57199999Y133904999D03*
D19*
X57899999Y133904999D03*
X58699999Y133904999D03*
G04 #@! TD*
G04 #@! TO.C,J1*
X78479999Y133904999D03*
X77679999Y133904999D03*
D20*
X76479999Y133904999D03*
X75479999Y133904999D03*
X74979999Y133904999D03*
X73979999Y133904999D03*
D19*
X72779999Y133904999D03*
X71979999Y133904999D03*
X71979999Y133904999D03*
X72779999Y133904999D03*
D20*
X73479999Y133904999D03*
X74479999Y133904999D03*
X75979999Y133904999D03*
X76979999Y133904999D03*
D19*
X77679999Y133904999D03*
X78479999Y133904999D03*
G04 #@! TD*
G04 #@! TO.C,J1*
X98259999Y133904999D03*
X97459999Y133904999D03*
D20*
X96259999Y133904999D03*
X95259999Y133904999D03*
X94759999Y133904999D03*
X93759999Y133904999D03*
D19*
X92559999Y133904999D03*
X91759999Y133904999D03*
X91759999Y133904999D03*
X92559999Y133904999D03*
D20*
X93259999Y133904999D03*
X94259999Y133904999D03*
X95759999Y133904999D03*
X96759999Y133904999D03*
D19*
X97459999Y133904999D03*
X98259999Y133904999D03*
G04 #@! TD*
G04 #@! TO.C,J1*
X118039999Y133904999D03*
X117239999Y133904999D03*
D20*
X116039999Y133904999D03*
X115039999Y133904999D03*
X114539999Y133904999D03*
X113539999Y133904999D03*
D19*
X112339999Y133904999D03*
X111539999Y133904999D03*
X111539999Y133904999D03*
X112339999Y133904999D03*
D20*
X113039999Y133904999D03*
X114039999Y133904999D03*
X115539999Y133904999D03*
X116539999Y133904999D03*
D19*
X117239999Y133904999D03*
X118039999Y133904999D03*
G04 #@! TD*
G04 #@! TO.C,J1*
X137819999Y133904999D03*
X137019999Y133904999D03*
D20*
X135819999Y133904999D03*
X134819999Y133904999D03*
X134319999Y133904999D03*
X133319999Y133904999D03*
D19*
X132119999Y133904999D03*
X131319999Y133904999D03*
X131319999Y133904999D03*
X132119999Y133904999D03*
D20*
X132819999Y133904999D03*
X133819999Y133904999D03*
X135319999Y133904999D03*
X136319999Y133904999D03*
D19*
X137019999Y133904999D03*
X137819999Y133904999D03*
G04 #@! TD*
G04 #@! TO.C,J1*
X157599999Y133904999D03*
X156799999Y133904999D03*
D20*
X155599999Y133904999D03*
X154599999Y133904999D03*
X154099999Y133904999D03*
X153099999Y133904999D03*
D19*
X151899999Y133904999D03*
X151099999Y133904999D03*
X151099999Y133904999D03*
X151899999Y133904999D03*
D20*
X152599999Y133904999D03*
X153599999Y133904999D03*
X155099999Y133904999D03*
X156099999Y133904999D03*
D19*
X156799999Y133904999D03*
X157599999Y133904999D03*
G04 #@! TD*
G04 #@! TO.C,J1*
X177379999Y133904999D03*
X176579999Y133904999D03*
D20*
X175379999Y133904999D03*
X174379999Y133904999D03*
X173879999Y133904999D03*
X172879999Y133904999D03*
D19*
X171679999Y133904999D03*
X170879999Y133904999D03*
X170879999Y133904999D03*
X171679999Y133904999D03*
D20*
X172379999Y133904999D03*
X173379999Y133904999D03*
X174879999Y133904999D03*
X175879999Y133904999D03*
D19*
X176579999Y133904999D03*
X177379999Y133904999D03*
G04 #@! TD*
G04 #@! TO.C,J1*
X197159999Y133904999D03*
X196359999Y133904999D03*
D20*
X195159999Y133904999D03*
X194159999Y133904999D03*
X193659999Y133904999D03*
X192659999Y133904999D03*
D19*
X191459999Y133904999D03*
X190659999Y133904999D03*
X190659999Y133904999D03*
X191459999Y133904999D03*
D20*
X192159999Y133904999D03*
X193159999Y133904999D03*
X194659999Y133904999D03*
X195659999Y133904999D03*
D19*
X196359999Y133904999D03*
X197159999Y133904999D03*
G04 #@! TD*
G04 #@! TO.C,J1*
X19139999Y105904999D03*
X18339999Y105904999D03*
D20*
X17139999Y105904999D03*
X16139999Y105904999D03*
X15639999Y105904999D03*
X14639999Y105904999D03*
D19*
X13439999Y105904999D03*
X12639999Y105904999D03*
X12639999Y105904999D03*
X13439999Y105904999D03*
D20*
X14139999Y105904999D03*
X15139999Y105904999D03*
X16639999Y105904999D03*
X17639999Y105904999D03*
D19*
X18339999Y105904999D03*
X19139999Y105904999D03*
G04 #@! TD*
G04 #@! TO.C,J1*
X38919999Y105904999D03*
X38119999Y105904999D03*
D20*
X36919999Y105904999D03*
X35919999Y105904999D03*
X35419999Y105904999D03*
X34419999Y105904999D03*
D19*
X33219999Y105904999D03*
X32419999Y105904999D03*
X32419999Y105904999D03*
X33219999Y105904999D03*
D20*
X33919999Y105904999D03*
X34919999Y105904999D03*
X36419999Y105904999D03*
X37419999Y105904999D03*
D19*
X38119999Y105904999D03*
X38919999Y105904999D03*
G04 #@! TD*
G04 #@! TO.C,J1*
X58699999Y105904999D03*
X57899999Y105904999D03*
D20*
X56699999Y105904999D03*
X55699999Y105904999D03*
X55199999Y105904999D03*
X54199999Y105904999D03*
D19*
X52999999Y105904999D03*
X52199999Y105904999D03*
X52199999Y105904999D03*
X52999999Y105904999D03*
D20*
X53699999Y105904999D03*
X54699999Y105904999D03*
X56199999Y105904999D03*
X57199999Y105904999D03*
D19*
X57899999Y105904999D03*
X58699999Y105904999D03*
G04 #@! TD*
G04 #@! TO.C,J1*
X78479999Y105904999D03*
X77679999Y105904999D03*
D20*
X76479999Y105904999D03*
X75479999Y105904999D03*
X74979999Y105904999D03*
X73979999Y105904999D03*
D19*
X72779999Y105904999D03*
X71979999Y105904999D03*
X71979999Y105904999D03*
X72779999Y105904999D03*
D20*
X73479999Y105904999D03*
X74479999Y105904999D03*
X75979999Y105904999D03*
X76979999Y105904999D03*
D19*
X77679999Y105904999D03*
X78479999Y105904999D03*
G04 #@! TD*
G04 #@! TO.C,J1*
X98259999Y105904999D03*
X97459999Y105904999D03*
D20*
X96259999Y105904999D03*
X95259999Y105904999D03*
X94759999Y105904999D03*
X93759999Y105904999D03*
D19*
X92559999Y105904999D03*
X91759999Y105904999D03*
X91759999Y105904999D03*
X92559999Y105904999D03*
D20*
X93259999Y105904999D03*
X94259999Y105904999D03*
X95759999Y105904999D03*
X96759999Y105904999D03*
D19*
X97459999Y105904999D03*
X98259999Y105904999D03*
G04 #@! TD*
G04 #@! TO.C,J1*
X118039999Y105904999D03*
X117239999Y105904999D03*
D20*
X116039999Y105904999D03*
X115039999Y105904999D03*
X114539999Y105904999D03*
X113539999Y105904999D03*
D19*
X112339999Y105904999D03*
X111539999Y105904999D03*
X111539999Y105904999D03*
X112339999Y105904999D03*
D20*
X113039999Y105904999D03*
X114039999Y105904999D03*
X115539999Y105904999D03*
X116539999Y105904999D03*
D19*
X117239999Y105904999D03*
X118039999Y105904999D03*
G04 #@! TD*
G04 #@! TO.C,J1*
X137819999Y105904999D03*
X137019999Y105904999D03*
D20*
X135819999Y105904999D03*
X134819999Y105904999D03*
X134319999Y105904999D03*
X133319999Y105904999D03*
D19*
X132119999Y105904999D03*
X131319999Y105904999D03*
X131319999Y105904999D03*
X132119999Y105904999D03*
D20*
X132819999Y105904999D03*
X133819999Y105904999D03*
X135319999Y105904999D03*
X136319999Y105904999D03*
D19*
X137019999Y105904999D03*
X137819999Y105904999D03*
G04 #@! TD*
G04 #@! TO.C,J1*
X157599999Y105904999D03*
X156799999Y105904999D03*
D20*
X155599999Y105904999D03*
X154599999Y105904999D03*
X154099999Y105904999D03*
X153099999Y105904999D03*
D19*
X151899999Y105904999D03*
X151099999Y105904999D03*
X151099999Y105904999D03*
X151899999Y105904999D03*
D20*
X152599999Y105904999D03*
X153599999Y105904999D03*
X155099999Y105904999D03*
X156099999Y105904999D03*
D19*
X156799999Y105904999D03*
X157599999Y105904999D03*
G04 #@! TD*
G04 #@! TO.C,J1*
X177379999Y105904999D03*
X176579999Y105904999D03*
D20*
X175379999Y105904999D03*
X174379999Y105904999D03*
X173879999Y105904999D03*
X172879999Y105904999D03*
D19*
X171679999Y105904999D03*
X170879999Y105904999D03*
X170879999Y105904999D03*
X171679999Y105904999D03*
D20*
X172379999Y105904999D03*
X173379999Y105904999D03*
X174879999Y105904999D03*
X175879999Y105904999D03*
D19*
X176579999Y105904999D03*
X177379999Y105904999D03*
G04 #@! TD*
G04 #@! TO.C,J1*
X197159999Y105904999D03*
X196359999Y105904999D03*
D20*
X195159999Y105904999D03*
X194159999Y105904999D03*
X193659999Y105904999D03*
X192659999Y105904999D03*
D19*
X191459999Y105904999D03*
X190659999Y105904999D03*
X190659999Y105904999D03*
X191459999Y105904999D03*
D20*
X192159999Y105904999D03*
X193159999Y105904999D03*
X194659999Y105904999D03*
X195659999Y105904999D03*
D19*
X196359999Y105904999D03*
X197159999Y105904999D03*
G04 #@! TD*
G04 #@! TO.C,J1*
X19139999Y77904999D03*
X18339999Y77904999D03*
D20*
X17139999Y77904999D03*
X16139999Y77904999D03*
X15639999Y77904999D03*
X14639999Y77904999D03*
D19*
X13439999Y77904999D03*
X12639999Y77904999D03*
X12639999Y77904999D03*
X13439999Y77904999D03*
D20*
X14139999Y77904999D03*
X15139999Y77904999D03*
X16639999Y77904999D03*
X17639999Y77904999D03*
D19*
X18339999Y77904999D03*
X19139999Y77904999D03*
G04 #@! TD*
G04 #@! TO.C,J1*
X38919999Y77904999D03*
X38119999Y77904999D03*
D20*
X36919999Y77904999D03*
X35919999Y77904999D03*
X35419999Y77904999D03*
X34419999Y77904999D03*
D19*
X33219999Y77904999D03*
X32419999Y77904999D03*
X32419999Y77904999D03*
X33219999Y77904999D03*
D20*
X33919999Y77904999D03*
X34919999Y77904999D03*
X36419999Y77904999D03*
X37419999Y77904999D03*
D19*
X38119999Y77904999D03*
X38919999Y77904999D03*
G04 #@! TD*
G04 #@! TO.C,J1*
X58699999Y77904999D03*
X57899999Y77904999D03*
D20*
X56699999Y77904999D03*
X55699999Y77904999D03*
X55199999Y77904999D03*
X54199999Y77904999D03*
D19*
X52999999Y77904999D03*
X52199999Y77904999D03*
X52199999Y77904999D03*
X52999999Y77904999D03*
D20*
X53699999Y77904999D03*
X54699999Y77904999D03*
X56199999Y77904999D03*
X57199999Y77904999D03*
D19*
X57899999Y77904999D03*
X58699999Y77904999D03*
G04 #@! TD*
G04 #@! TO.C,J1*
X78479999Y77904999D03*
X77679999Y77904999D03*
D20*
X76479999Y77904999D03*
X75479999Y77904999D03*
X74979999Y77904999D03*
X73979999Y77904999D03*
D19*
X72779999Y77904999D03*
X71979999Y77904999D03*
X71979999Y77904999D03*
X72779999Y77904999D03*
D20*
X73479999Y77904999D03*
X74479999Y77904999D03*
X75979999Y77904999D03*
X76979999Y77904999D03*
D19*
X77679999Y77904999D03*
X78479999Y77904999D03*
G04 #@! TD*
G04 #@! TO.C,J1*
X98259999Y77904999D03*
X97459999Y77904999D03*
D20*
X96259999Y77904999D03*
X95259999Y77904999D03*
X94759999Y77904999D03*
X93759999Y77904999D03*
D19*
X92559999Y77904999D03*
X91759999Y77904999D03*
X91759999Y77904999D03*
X92559999Y77904999D03*
D20*
X93259999Y77904999D03*
X94259999Y77904999D03*
X95759999Y77904999D03*
X96759999Y77904999D03*
D19*
X97459999Y77904999D03*
X98259999Y77904999D03*
G04 #@! TD*
G04 #@! TO.C,J1*
X118039999Y77904999D03*
X117239999Y77904999D03*
D20*
X116039999Y77904999D03*
X115039999Y77904999D03*
X114539999Y77904999D03*
X113539999Y77904999D03*
D19*
X112339999Y77904999D03*
X111539999Y77904999D03*
X111539999Y77904999D03*
X112339999Y77904999D03*
D20*
X113039999Y77904999D03*
X114039999Y77904999D03*
X115539999Y77904999D03*
X116539999Y77904999D03*
D19*
X117239999Y77904999D03*
X118039999Y77904999D03*
G04 #@! TD*
G04 #@! TO.C,J1*
X137819999Y77904999D03*
X137019999Y77904999D03*
D20*
X135819999Y77904999D03*
X134819999Y77904999D03*
X134319999Y77904999D03*
X133319999Y77904999D03*
D19*
X132119999Y77904999D03*
X131319999Y77904999D03*
X131319999Y77904999D03*
X132119999Y77904999D03*
D20*
X132819999Y77904999D03*
X133819999Y77904999D03*
X135319999Y77904999D03*
X136319999Y77904999D03*
D19*
X137019999Y77904999D03*
X137819999Y77904999D03*
G04 #@! TD*
G04 #@! TO.C,J1*
X157599999Y77904999D03*
X156799999Y77904999D03*
D20*
X155599999Y77904999D03*
X154599999Y77904999D03*
X154099999Y77904999D03*
X153099999Y77904999D03*
D19*
X151899999Y77904999D03*
X151099999Y77904999D03*
X151099999Y77904999D03*
X151899999Y77904999D03*
D20*
X152599999Y77904999D03*
X153599999Y77904999D03*
X155099999Y77904999D03*
X156099999Y77904999D03*
D19*
X156799999Y77904999D03*
X157599999Y77904999D03*
G04 #@! TD*
G04 #@! TO.C,J1*
X177379999Y77904999D03*
X176579999Y77904999D03*
D20*
X175379999Y77904999D03*
X174379999Y77904999D03*
X173879999Y77904999D03*
X172879999Y77904999D03*
D19*
X171679999Y77904999D03*
X170879999Y77904999D03*
X170879999Y77904999D03*
X171679999Y77904999D03*
D20*
X172379999Y77904999D03*
X173379999Y77904999D03*
X174879999Y77904999D03*
X175879999Y77904999D03*
D19*
X176579999Y77904999D03*
X177379999Y77904999D03*
G04 #@! TD*
G04 #@! TO.C,J1*
X197159999Y77904999D03*
X196359999Y77904999D03*
D20*
X195159999Y77904999D03*
X194159999Y77904999D03*
X193659999Y77904999D03*
X192659999Y77904999D03*
D19*
X191459999Y77904999D03*
X190659999Y77904999D03*
X190659999Y77904999D03*
X191459999Y77904999D03*
D20*
X192159999Y77904999D03*
X193159999Y77904999D03*
X194659999Y77904999D03*
X195659999Y77904999D03*
D19*
X196359999Y77904999D03*
X197159999Y77904999D03*
G04 #@! TD*
G04 #@! TO.C,J1*
X19139999Y49904999D03*
X18339999Y49904999D03*
D20*
X17139999Y49904999D03*
X16139999Y49904999D03*
X15639999Y49904999D03*
X14639999Y49904999D03*
D19*
X13439999Y49904999D03*
X12639999Y49904999D03*
X12639999Y49904999D03*
X13439999Y49904999D03*
D20*
X14139999Y49904999D03*
X15139999Y49904999D03*
X16639999Y49904999D03*
X17639999Y49904999D03*
D19*
X18339999Y49904999D03*
X19139999Y49904999D03*
G04 #@! TD*
G04 #@! TO.C,J1*
X38919999Y49904999D03*
X38119999Y49904999D03*
D20*
X36919999Y49904999D03*
X35919999Y49904999D03*
X35419999Y49904999D03*
X34419999Y49904999D03*
D19*
X33219999Y49904999D03*
X32419999Y49904999D03*
X32419999Y49904999D03*
X33219999Y49904999D03*
D20*
X33919999Y49904999D03*
X34919999Y49904999D03*
X36419999Y49904999D03*
X37419999Y49904999D03*
D19*
X38119999Y49904999D03*
X38919999Y49904999D03*
G04 #@! TD*
G04 #@! TO.C,J1*
X58699999Y49904999D03*
X57899999Y49904999D03*
D20*
X56699999Y49904999D03*
X55699999Y49904999D03*
X55199999Y49904999D03*
X54199999Y49904999D03*
D19*
X52999999Y49904999D03*
X52199999Y49904999D03*
X52199999Y49904999D03*
X52999999Y49904999D03*
D20*
X53699999Y49904999D03*
X54699999Y49904999D03*
X56199999Y49904999D03*
X57199999Y49904999D03*
D19*
X57899999Y49904999D03*
X58699999Y49904999D03*
G04 #@! TD*
G04 #@! TO.C,J1*
X78479999Y49904999D03*
X77679999Y49904999D03*
D20*
X76479999Y49904999D03*
X75479999Y49904999D03*
X74979999Y49904999D03*
X73979999Y49904999D03*
D19*
X72779999Y49904999D03*
X71979999Y49904999D03*
X71979999Y49904999D03*
X72779999Y49904999D03*
D20*
X73479999Y49904999D03*
X74479999Y49904999D03*
X75979999Y49904999D03*
X76979999Y49904999D03*
D19*
X77679999Y49904999D03*
X78479999Y49904999D03*
G04 #@! TD*
G04 #@! TO.C,J1*
X98259999Y49904999D03*
X97459999Y49904999D03*
D20*
X96259999Y49904999D03*
X95259999Y49904999D03*
X94759999Y49904999D03*
X93759999Y49904999D03*
D19*
X92559999Y49904999D03*
X91759999Y49904999D03*
X91759999Y49904999D03*
X92559999Y49904999D03*
D20*
X93259999Y49904999D03*
X94259999Y49904999D03*
X95759999Y49904999D03*
X96759999Y49904999D03*
D19*
X97459999Y49904999D03*
X98259999Y49904999D03*
G04 #@! TD*
G04 #@! TO.C,J1*
X118039999Y49904999D03*
X117239999Y49904999D03*
D20*
X116039999Y49904999D03*
X115039999Y49904999D03*
X114539999Y49904999D03*
X113539999Y49904999D03*
D19*
X112339999Y49904999D03*
X111539999Y49904999D03*
X111539999Y49904999D03*
X112339999Y49904999D03*
D20*
X113039999Y49904999D03*
X114039999Y49904999D03*
X115539999Y49904999D03*
X116539999Y49904999D03*
D19*
X117239999Y49904999D03*
X118039999Y49904999D03*
G04 #@! TD*
G04 #@! TO.C,J1*
X137819999Y49904999D03*
X137019999Y49904999D03*
D20*
X135819999Y49904999D03*
X134819999Y49904999D03*
X134319999Y49904999D03*
X133319999Y49904999D03*
D19*
X132119999Y49904999D03*
X131319999Y49904999D03*
X131319999Y49904999D03*
X132119999Y49904999D03*
D20*
X132819999Y49904999D03*
X133819999Y49904999D03*
X135319999Y49904999D03*
X136319999Y49904999D03*
D19*
X137019999Y49904999D03*
X137819999Y49904999D03*
G04 #@! TD*
G04 #@! TO.C,J1*
X157599999Y49904999D03*
X156799999Y49904999D03*
D20*
X155599999Y49904999D03*
X154599999Y49904999D03*
X154099999Y49904999D03*
X153099999Y49904999D03*
D19*
X151899999Y49904999D03*
X151099999Y49904999D03*
X151099999Y49904999D03*
X151899999Y49904999D03*
D20*
X152599999Y49904999D03*
X153599999Y49904999D03*
X155099999Y49904999D03*
X156099999Y49904999D03*
D19*
X156799999Y49904999D03*
X157599999Y49904999D03*
G04 #@! TD*
G04 #@! TO.C,J1*
X177379999Y49904999D03*
X176579999Y49904999D03*
D20*
X175379999Y49904999D03*
X174379999Y49904999D03*
X173879999Y49904999D03*
X172879999Y49904999D03*
D19*
X171679999Y49904999D03*
X170879999Y49904999D03*
X170879999Y49904999D03*
X171679999Y49904999D03*
D20*
X172379999Y49904999D03*
X173379999Y49904999D03*
X174879999Y49904999D03*
X175879999Y49904999D03*
D19*
X176579999Y49904999D03*
X177379999Y49904999D03*
G04 #@! TD*
G04 #@! TO.C,J1*
X197159999Y49904999D03*
X196359999Y49904999D03*
D20*
X195159999Y49904999D03*
X194159999Y49904999D03*
X193659999Y49904999D03*
X192659999Y49904999D03*
D19*
X191459999Y49904999D03*
X190659999Y49904999D03*
X190659999Y49904999D03*
X191459999Y49904999D03*
D20*
X192159999Y49904999D03*
X193159999Y49904999D03*
X194659999Y49904999D03*
X195659999Y49904999D03*
D19*
X196359999Y49904999D03*
X197159999Y49904999D03*
G04 #@! TD*
G04 #@! TO.C,J1*
X19139999Y21904999D03*
X18339999Y21904999D03*
D20*
X17139999Y21904999D03*
X16139999Y21904999D03*
X15639999Y21904999D03*
X14639999Y21904999D03*
D19*
X13439999Y21904999D03*
X12639999Y21904999D03*
X12639999Y21904999D03*
X13439999Y21904999D03*
D20*
X14139999Y21904999D03*
X15139999Y21904999D03*
X16639999Y21904999D03*
X17639999Y21904999D03*
D19*
X18339999Y21904999D03*
X19139999Y21904999D03*
G04 #@! TD*
G04 #@! TO.C,J1*
X38919999Y21904999D03*
X38119999Y21904999D03*
D20*
X36919999Y21904999D03*
X35919999Y21904999D03*
X35419999Y21904999D03*
X34419999Y21904999D03*
D19*
X33219999Y21904999D03*
X32419999Y21904999D03*
X32419999Y21904999D03*
X33219999Y21904999D03*
D20*
X33919999Y21904999D03*
X34919999Y21904999D03*
X36419999Y21904999D03*
X37419999Y21904999D03*
D19*
X38119999Y21904999D03*
X38919999Y21904999D03*
G04 #@! TD*
G04 #@! TO.C,J1*
X58699999Y21904999D03*
X57899999Y21904999D03*
D20*
X56699999Y21904999D03*
X55699999Y21904999D03*
X55199999Y21904999D03*
X54199999Y21904999D03*
D19*
X52999999Y21904999D03*
X52199999Y21904999D03*
X52199999Y21904999D03*
X52999999Y21904999D03*
D20*
X53699999Y21904999D03*
X54699999Y21904999D03*
X56199999Y21904999D03*
X57199999Y21904999D03*
D19*
X57899999Y21904999D03*
X58699999Y21904999D03*
G04 #@! TD*
G04 #@! TO.C,J1*
X78479999Y21904999D03*
X77679999Y21904999D03*
D20*
X76479999Y21904999D03*
X75479999Y21904999D03*
X74979999Y21904999D03*
X73979999Y21904999D03*
D19*
X72779999Y21904999D03*
X71979999Y21904999D03*
X71979999Y21904999D03*
X72779999Y21904999D03*
D20*
X73479999Y21904999D03*
X74479999Y21904999D03*
X75979999Y21904999D03*
X76979999Y21904999D03*
D19*
X77679999Y21904999D03*
X78479999Y21904999D03*
G04 #@! TD*
G04 #@! TO.C,J1*
X98259999Y21904999D03*
X97459999Y21904999D03*
D20*
X96259999Y21904999D03*
X95259999Y21904999D03*
X94759999Y21904999D03*
X93759999Y21904999D03*
D19*
X92559999Y21904999D03*
X91759999Y21904999D03*
X91759999Y21904999D03*
X92559999Y21904999D03*
D20*
X93259999Y21904999D03*
X94259999Y21904999D03*
X95759999Y21904999D03*
X96759999Y21904999D03*
D19*
X97459999Y21904999D03*
X98259999Y21904999D03*
G04 #@! TD*
G04 #@! TO.C,J1*
X118039999Y21904999D03*
X117239999Y21904999D03*
D20*
X116039999Y21904999D03*
X115039999Y21904999D03*
X114539999Y21904999D03*
X113539999Y21904999D03*
D19*
X112339999Y21904999D03*
X111539999Y21904999D03*
X111539999Y21904999D03*
X112339999Y21904999D03*
D20*
X113039999Y21904999D03*
X114039999Y21904999D03*
X115539999Y21904999D03*
X116539999Y21904999D03*
D19*
X117239999Y21904999D03*
X118039999Y21904999D03*
G04 #@! TD*
G04 #@! TO.C,J1*
X137819999Y21904999D03*
X137019999Y21904999D03*
D20*
X135819999Y21904999D03*
X134819999Y21904999D03*
X134319999Y21904999D03*
X133319999Y21904999D03*
D19*
X132119999Y21904999D03*
X131319999Y21904999D03*
X131319999Y21904999D03*
X132119999Y21904999D03*
D20*
X132819999Y21904999D03*
X133819999Y21904999D03*
X135319999Y21904999D03*
X136319999Y21904999D03*
D19*
X137019999Y21904999D03*
X137819999Y21904999D03*
G04 #@! TD*
G04 #@! TO.C,J1*
X157599999Y21904999D03*
X156799999Y21904999D03*
D20*
X155599999Y21904999D03*
X154599999Y21904999D03*
X154099999Y21904999D03*
X153099999Y21904999D03*
D19*
X151899999Y21904999D03*
X151099999Y21904999D03*
X151099999Y21904999D03*
X151899999Y21904999D03*
D20*
X152599999Y21904999D03*
X153599999Y21904999D03*
X155099999Y21904999D03*
X156099999Y21904999D03*
D19*
X156799999Y21904999D03*
X157599999Y21904999D03*
G04 #@! TD*
G04 #@! TO.C,J1*
X177379999Y21904999D03*
X176579999Y21904999D03*
D20*
X175379999Y21904999D03*
X174379999Y21904999D03*
X173879999Y21904999D03*
X172879999Y21904999D03*
D19*
X171679999Y21904999D03*
X170879999Y21904999D03*
X170879999Y21904999D03*
X171679999Y21904999D03*
D20*
X172379999Y21904999D03*
X173379999Y21904999D03*
X174879999Y21904999D03*
X175879999Y21904999D03*
D19*
X176579999Y21904999D03*
X177379999Y21904999D03*
G04 #@! TD*
G04 #@! TO.C,J1*
X197159999Y21904999D03*
X196359999Y21904999D03*
D20*
X195159999Y21904999D03*
X194159999Y21904999D03*
X193659999Y21904999D03*
X192659999Y21904999D03*
D19*
X191459999Y21904999D03*
X190659999Y21904999D03*
X190659999Y21904999D03*
X191459999Y21904999D03*
D20*
X192159999Y21904999D03*
X193159999Y21904999D03*
X194659999Y21904999D03*
X195659999Y21904999D03*
D19*
X196359999Y21904999D03*
X197159999Y21904999D03*
G04 #@! TD*
D21*
G04 #@! TO.C,C1*
X18240000Y126770000D03*
X18240000Y127730000D03*
G04 #@! TD*
G04 #@! TO.C,C1*
X38020000Y126770000D03*
X38020000Y127730000D03*
G04 #@! TD*
G04 #@! TO.C,C1*
X57800000Y126770000D03*
X57800000Y127730000D03*
G04 #@! TD*
G04 #@! TO.C,C1*
X77580000Y126770000D03*
X77580000Y127730000D03*
G04 #@! TD*
G04 #@! TO.C,C1*
X97360000Y126770000D03*
X97360000Y127730000D03*
G04 #@! TD*
G04 #@! TO.C,C1*
X117140000Y126770000D03*
X117140000Y127730000D03*
G04 #@! TD*
G04 #@! TO.C,C1*
X136920000Y126770000D03*
X136920000Y127730000D03*
G04 #@! TD*
G04 #@! TO.C,C1*
X156700000Y126770000D03*
X156700000Y127730000D03*
G04 #@! TD*
G04 #@! TO.C,C1*
X176480000Y126770000D03*
X176480000Y127730000D03*
G04 #@! TD*
G04 #@! TO.C,C1*
X196260000Y126770000D03*
X196260000Y127730000D03*
G04 #@! TD*
G04 #@! TO.C,C1*
X18240000Y98770000D03*
X18240000Y99730000D03*
G04 #@! TD*
G04 #@! TO.C,C1*
X38020000Y98770000D03*
X38020000Y99730000D03*
G04 #@! TD*
G04 #@! TO.C,C1*
X57800000Y98770000D03*
X57800000Y99730000D03*
G04 #@! TD*
G04 #@! TO.C,C1*
X77580000Y98770000D03*
X77580000Y99730000D03*
G04 #@! TD*
G04 #@! TO.C,C1*
X97360000Y98770000D03*
X97360000Y99730000D03*
G04 #@! TD*
G04 #@! TO.C,C1*
X117140000Y98770000D03*
X117140000Y99730000D03*
G04 #@! TD*
G04 #@! TO.C,C1*
X136920000Y98770000D03*
X136920000Y99730000D03*
G04 #@! TD*
G04 #@! TO.C,C1*
X156700000Y98770000D03*
X156700000Y99730000D03*
G04 #@! TD*
G04 #@! TO.C,C1*
X176480000Y98770000D03*
X176480000Y99730000D03*
G04 #@! TD*
G04 #@! TO.C,C1*
X196260000Y98770000D03*
X196260000Y99730000D03*
G04 #@! TD*
G04 #@! TO.C,C1*
X18240000Y70770000D03*
X18240000Y71730000D03*
G04 #@! TD*
G04 #@! TO.C,C1*
X38020000Y70770000D03*
X38020000Y71730000D03*
G04 #@! TD*
G04 #@! TO.C,C1*
X57800000Y70770000D03*
X57800000Y71730000D03*
G04 #@! TD*
G04 #@! TO.C,C1*
X77580000Y70770000D03*
X77580000Y71730000D03*
G04 #@! TD*
G04 #@! TO.C,C1*
X97360000Y70770000D03*
X97360000Y71730000D03*
G04 #@! TD*
G04 #@! TO.C,C1*
X117140000Y70770000D03*
X117140000Y71730000D03*
G04 #@! TD*
G04 #@! TO.C,C1*
X136920000Y70770000D03*
X136920000Y71730000D03*
G04 #@! TD*
G04 #@! TO.C,C1*
X156700000Y70770000D03*
X156700000Y71730000D03*
G04 #@! TD*
G04 #@! TO.C,C1*
X176480000Y70770000D03*
X176480000Y71730000D03*
G04 #@! TD*
G04 #@! TO.C,C1*
X196260000Y70770000D03*
X196260000Y71730000D03*
G04 #@! TD*
G04 #@! TO.C,C1*
X18240000Y42770000D03*
X18240000Y43730000D03*
G04 #@! TD*
G04 #@! TO.C,C1*
X38020000Y42770000D03*
X38020000Y43730000D03*
G04 #@! TD*
G04 #@! TO.C,C1*
X57800000Y42770000D03*
X57800000Y43730000D03*
G04 #@! TD*
G04 #@! TO.C,C1*
X77580000Y42770000D03*
X77580000Y43730000D03*
G04 #@! TD*
G04 #@! TO.C,C1*
X97360000Y42770000D03*
X97360000Y43730000D03*
G04 #@! TD*
G04 #@! TO.C,C1*
X117140000Y42770000D03*
X117140000Y43730000D03*
G04 #@! TD*
G04 #@! TO.C,C1*
X136920000Y42770000D03*
X136920000Y43730000D03*
G04 #@! TD*
G04 #@! TO.C,C1*
X156700000Y42770000D03*
X156700000Y43730000D03*
G04 #@! TD*
G04 #@! TO.C,C1*
X176480000Y42770000D03*
X176480000Y43730000D03*
G04 #@! TD*
G04 #@! TO.C,C1*
X196260000Y42770000D03*
X196260000Y43730000D03*
G04 #@! TD*
G04 #@! TO.C,C1*
X18240000Y14770000D03*
X18240000Y15730000D03*
G04 #@! TD*
G04 #@! TO.C,C1*
X38020000Y14770000D03*
X38020000Y15730000D03*
G04 #@! TD*
G04 #@! TO.C,C1*
X57800000Y14770000D03*
X57800000Y15730000D03*
G04 #@! TD*
G04 #@! TO.C,C1*
X77580000Y14770000D03*
X77580000Y15730000D03*
G04 #@! TD*
G04 #@! TO.C,C1*
X97360000Y14770000D03*
X97360000Y15730000D03*
G04 #@! TD*
G04 #@! TO.C,C1*
X117140000Y14770000D03*
X117140000Y15730000D03*
G04 #@! TD*
G04 #@! TO.C,C1*
X136920000Y14770000D03*
X136920000Y15730000D03*
G04 #@! TD*
G04 #@! TO.C,C1*
X156700000Y14770000D03*
X156700000Y15730000D03*
G04 #@! TD*
G04 #@! TO.C,C1*
X176480000Y14770000D03*
X176480000Y15730000D03*
G04 #@! TD*
G04 #@! TO.C,C1*
X196260000Y14770000D03*
X196260000Y15730000D03*
G04 #@! TD*
D22*
G04 #@! TO.C,U1*
X13027499Y125674999D03*
D23*
X13027500Y125025000D03*
X13027500Y124375000D03*
X13027500Y123725000D03*
X13027500Y123075000D03*
X13027500Y122425000D03*
X13027500Y121775000D03*
X13027500Y121125000D03*
X13027500Y120475000D03*
X13027500Y119825000D03*
X18752500Y119825000D03*
X18752500Y120475000D03*
X18752500Y121125000D03*
X18752500Y121775000D03*
X18752500Y122425000D03*
X18752500Y123075000D03*
X18752500Y123725000D03*
X18752500Y124375000D03*
X18752500Y125025000D03*
X18752500Y125675000D03*
G04 #@! TD*
D22*
G04 #@! TO.C,U1*
X32807499Y125674999D03*
D23*
X32807500Y125025000D03*
X32807500Y124375000D03*
X32807500Y123725000D03*
X32807500Y123075000D03*
X32807500Y122425000D03*
X32807500Y121775000D03*
X32807500Y121125000D03*
X32807500Y120475000D03*
X32807500Y119825000D03*
X38532500Y119825000D03*
X38532500Y120475000D03*
X38532500Y121125000D03*
X38532500Y121775000D03*
X38532500Y122425000D03*
X38532500Y123075000D03*
X38532500Y123725000D03*
X38532500Y124375000D03*
X38532500Y125025000D03*
X38532500Y125675000D03*
G04 #@! TD*
D22*
G04 #@! TO.C,U1*
X52587499Y125674999D03*
D23*
X52587500Y125025000D03*
X52587500Y124375000D03*
X52587500Y123725000D03*
X52587500Y123075000D03*
X52587500Y122425000D03*
X52587500Y121775000D03*
X52587500Y121125000D03*
X52587500Y120475000D03*
X52587500Y119825000D03*
X58312500Y119825000D03*
X58312500Y120475000D03*
X58312500Y121125000D03*
X58312500Y121775000D03*
X58312500Y122425000D03*
X58312500Y123075000D03*
X58312500Y123725000D03*
X58312500Y124375000D03*
X58312500Y125025000D03*
X58312500Y125675000D03*
G04 #@! TD*
D22*
G04 #@! TO.C,U1*
X72367499Y125674999D03*
D23*
X72367500Y125025000D03*
X72367500Y124375000D03*
X72367500Y123725000D03*
X72367500Y123075000D03*
X72367500Y122425000D03*
X72367500Y121775000D03*
X72367500Y121125000D03*
X72367500Y120475000D03*
X72367500Y119825000D03*
X78092500Y119825000D03*
X78092500Y120475000D03*
X78092500Y121125000D03*
X78092500Y121775000D03*
X78092500Y122425000D03*
X78092500Y123075000D03*
X78092500Y123725000D03*
X78092500Y124375000D03*
X78092500Y125025000D03*
X78092500Y125675000D03*
G04 #@! TD*
D22*
G04 #@! TO.C,U1*
X92147499Y125674999D03*
D23*
X92147500Y125025000D03*
X92147500Y124375000D03*
X92147500Y123725000D03*
X92147500Y123075000D03*
X92147500Y122425000D03*
X92147500Y121775000D03*
X92147500Y121125000D03*
X92147500Y120475000D03*
X92147500Y119825000D03*
X97872500Y119825000D03*
X97872500Y120475000D03*
X97872500Y121125000D03*
X97872500Y121775000D03*
X97872500Y122425000D03*
X97872500Y123075000D03*
X97872500Y123725000D03*
X97872500Y124375000D03*
X97872500Y125025000D03*
X97872500Y125675000D03*
G04 #@! TD*
D22*
G04 #@! TO.C,U1*
X111927499Y125674999D03*
D23*
X111927500Y125025000D03*
X111927500Y124375000D03*
X111927500Y123725000D03*
X111927500Y123075000D03*
X111927500Y122425000D03*
X111927500Y121775000D03*
X111927500Y121125000D03*
X111927500Y120475000D03*
X111927500Y119825000D03*
X117652500Y119825000D03*
X117652500Y120475000D03*
X117652500Y121125000D03*
X117652500Y121775000D03*
X117652500Y122425000D03*
X117652500Y123075000D03*
X117652500Y123725000D03*
X117652500Y124375000D03*
X117652500Y125025000D03*
X117652500Y125675000D03*
G04 #@! TD*
D22*
G04 #@! TO.C,U1*
X131707499Y125674999D03*
D23*
X131707500Y125025000D03*
X131707500Y124375000D03*
X131707500Y123725000D03*
X131707500Y123075000D03*
X131707500Y122425000D03*
X131707500Y121775000D03*
X131707500Y121125000D03*
X131707500Y120475000D03*
X131707500Y119825000D03*
X137432500Y119825000D03*
X137432500Y120475000D03*
X137432500Y121125000D03*
X137432500Y121775000D03*
X137432500Y122425000D03*
X137432500Y123075000D03*
X137432500Y123725000D03*
X137432500Y124375000D03*
X137432500Y125025000D03*
X137432500Y125675000D03*
G04 #@! TD*
D22*
G04 #@! TO.C,U1*
X151487499Y125674999D03*
D23*
X151487500Y125025000D03*
X151487500Y124375000D03*
X151487500Y123725000D03*
X151487500Y123075000D03*
X151487500Y122425000D03*
X151487500Y121775000D03*
X151487500Y121125000D03*
X151487500Y120475000D03*
X151487500Y119825000D03*
X157212500Y119825000D03*
X157212500Y120475000D03*
X157212500Y121125000D03*
X157212500Y121775000D03*
X157212500Y122425000D03*
X157212500Y123075000D03*
X157212500Y123725000D03*
X157212500Y124375000D03*
X157212500Y125025000D03*
X157212500Y125675000D03*
G04 #@! TD*
D22*
G04 #@! TO.C,U1*
X171267499Y125674999D03*
D23*
X171267500Y125025000D03*
X171267500Y124375000D03*
X171267500Y123725000D03*
X171267500Y123075000D03*
X171267500Y122425000D03*
X171267500Y121775000D03*
X171267500Y121125000D03*
X171267500Y120475000D03*
X171267500Y119825000D03*
X176992500Y119825000D03*
X176992500Y120475000D03*
X176992500Y121125000D03*
X176992500Y121775000D03*
X176992500Y122425000D03*
X176992500Y123075000D03*
X176992500Y123725000D03*
X176992500Y124375000D03*
X176992500Y125025000D03*
X176992500Y125675000D03*
G04 #@! TD*
D22*
G04 #@! TO.C,U1*
X191047499Y125674999D03*
D23*
X191047500Y125025000D03*
X191047500Y124375000D03*
X191047500Y123725000D03*
X191047500Y123075000D03*
X191047500Y122425000D03*
X191047500Y121775000D03*
X191047500Y121125000D03*
X191047500Y120475000D03*
X191047500Y119825000D03*
X196772500Y119825000D03*
X196772500Y120475000D03*
X196772500Y121125000D03*
X196772500Y121775000D03*
X196772500Y122425000D03*
X196772500Y123075000D03*
X196772500Y123725000D03*
X196772500Y124375000D03*
X196772500Y125025000D03*
X196772500Y125675000D03*
G04 #@! TD*
D22*
G04 #@! TO.C,U1*
X13027499Y97674999D03*
D23*
X13027500Y97025000D03*
X13027500Y96375000D03*
X13027500Y95725000D03*
X13027500Y95075000D03*
X13027500Y94425000D03*
X13027500Y93775000D03*
X13027500Y93125000D03*
X13027500Y92475000D03*
X13027500Y91825000D03*
X18752500Y91825000D03*
X18752500Y92475000D03*
X18752500Y93125000D03*
X18752500Y93775000D03*
X18752500Y94425000D03*
X18752500Y95075000D03*
X18752500Y95725000D03*
X18752500Y96375000D03*
X18752500Y97025000D03*
X18752500Y97675000D03*
G04 #@! TD*
D22*
G04 #@! TO.C,U1*
X32807499Y97674999D03*
D23*
X32807500Y97025000D03*
X32807500Y96375000D03*
X32807500Y95725000D03*
X32807500Y95075000D03*
X32807500Y94425000D03*
X32807500Y93775000D03*
X32807500Y93125000D03*
X32807500Y92475000D03*
X32807500Y91825000D03*
X38532500Y91825000D03*
X38532500Y92475000D03*
X38532500Y93125000D03*
X38532500Y93775000D03*
X38532500Y94425000D03*
X38532500Y95075000D03*
X38532500Y95725000D03*
X38532500Y96375000D03*
X38532500Y97025000D03*
X38532500Y97675000D03*
G04 #@! TD*
D22*
G04 #@! TO.C,U1*
X52587499Y97674999D03*
D23*
X52587500Y97025000D03*
X52587500Y96375000D03*
X52587500Y95725000D03*
X52587500Y95075000D03*
X52587500Y94425000D03*
X52587500Y93775000D03*
X52587500Y93125000D03*
X52587500Y92475000D03*
X52587500Y91825000D03*
X58312500Y91825000D03*
X58312500Y92475000D03*
X58312500Y93125000D03*
X58312500Y93775000D03*
X58312500Y94425000D03*
X58312500Y95075000D03*
X58312500Y95725000D03*
X58312500Y96375000D03*
X58312500Y97025000D03*
X58312500Y97675000D03*
G04 #@! TD*
D22*
G04 #@! TO.C,U1*
X72367499Y97674999D03*
D23*
X72367500Y97025000D03*
X72367500Y96375000D03*
X72367500Y95725000D03*
X72367500Y95075000D03*
X72367500Y94425000D03*
X72367500Y93775000D03*
X72367500Y93125000D03*
X72367500Y92475000D03*
X72367500Y91825000D03*
X78092500Y91825000D03*
X78092500Y92475000D03*
X78092500Y93125000D03*
X78092500Y93775000D03*
X78092500Y94425000D03*
X78092500Y95075000D03*
X78092500Y95725000D03*
X78092500Y96375000D03*
X78092500Y97025000D03*
X78092500Y97675000D03*
G04 #@! TD*
D22*
G04 #@! TO.C,U1*
X92147499Y97674999D03*
D23*
X92147500Y97025000D03*
X92147500Y96375000D03*
X92147500Y95725000D03*
X92147500Y95075000D03*
X92147500Y94425000D03*
X92147500Y93775000D03*
X92147500Y93125000D03*
X92147500Y92475000D03*
X92147500Y91825000D03*
X97872500Y91825000D03*
X97872500Y92475000D03*
X97872500Y93125000D03*
X97872500Y93775000D03*
X97872500Y94425000D03*
X97872500Y95075000D03*
X97872500Y95725000D03*
X97872500Y96375000D03*
X97872500Y97025000D03*
X97872500Y97675000D03*
G04 #@! TD*
D22*
G04 #@! TO.C,U1*
X111927499Y97674999D03*
D23*
X111927500Y97025000D03*
X111927500Y96375000D03*
X111927500Y95725000D03*
X111927500Y95075000D03*
X111927500Y94425000D03*
X111927500Y93775000D03*
X111927500Y93125000D03*
X111927500Y92475000D03*
X111927500Y91825000D03*
X117652500Y91825000D03*
X117652500Y92475000D03*
X117652500Y93125000D03*
X117652500Y93775000D03*
X117652500Y94425000D03*
X117652500Y95075000D03*
X117652500Y95725000D03*
X117652500Y96375000D03*
X117652500Y97025000D03*
X117652500Y97675000D03*
G04 #@! TD*
D22*
G04 #@! TO.C,U1*
X131707499Y97674999D03*
D23*
X131707500Y97025000D03*
X131707500Y96375000D03*
X131707500Y95725000D03*
X131707500Y95075000D03*
X131707500Y94425000D03*
X131707500Y93775000D03*
X131707500Y93125000D03*
X131707500Y92475000D03*
X131707500Y91825000D03*
X137432500Y91825000D03*
X137432500Y92475000D03*
X137432500Y93125000D03*
X137432500Y93775000D03*
X137432500Y94425000D03*
X137432500Y95075000D03*
X137432500Y95725000D03*
X137432500Y96375000D03*
X137432500Y97025000D03*
X137432500Y97675000D03*
G04 #@! TD*
D22*
G04 #@! TO.C,U1*
X151487499Y97674999D03*
D23*
X151487500Y97025000D03*
X151487500Y96375000D03*
X151487500Y95725000D03*
X151487500Y95075000D03*
X151487500Y94425000D03*
X151487500Y93775000D03*
X151487500Y93125000D03*
X151487500Y92475000D03*
X151487500Y91825000D03*
X157212500Y91825000D03*
X157212500Y92475000D03*
X157212500Y93125000D03*
X157212500Y93775000D03*
X157212500Y94425000D03*
X157212500Y95075000D03*
X157212500Y95725000D03*
X157212500Y96375000D03*
X157212500Y97025000D03*
X157212500Y97675000D03*
G04 #@! TD*
D22*
G04 #@! TO.C,U1*
X171267499Y97674999D03*
D23*
X171267500Y97025000D03*
X171267500Y96375000D03*
X171267500Y95725000D03*
X171267500Y95075000D03*
X171267500Y94425000D03*
X171267500Y93775000D03*
X171267500Y93125000D03*
X171267500Y92475000D03*
X171267500Y91825000D03*
X176992500Y91825000D03*
X176992500Y92475000D03*
X176992500Y93125000D03*
X176992500Y93775000D03*
X176992500Y94425000D03*
X176992500Y95075000D03*
X176992500Y95725000D03*
X176992500Y96375000D03*
X176992500Y97025000D03*
X176992500Y97675000D03*
G04 #@! TD*
D22*
G04 #@! TO.C,U1*
X191047499Y97674999D03*
D23*
X191047500Y97025000D03*
X191047500Y96375000D03*
X191047500Y95725000D03*
X191047500Y95075000D03*
X191047500Y94425000D03*
X191047500Y93775000D03*
X191047500Y93125000D03*
X191047500Y92475000D03*
X191047500Y91825000D03*
X196772500Y91825000D03*
X196772500Y92475000D03*
X196772500Y93125000D03*
X196772500Y93775000D03*
X196772500Y94425000D03*
X196772500Y95075000D03*
X196772500Y95725000D03*
X196772500Y96375000D03*
X196772500Y97025000D03*
X196772500Y97675000D03*
G04 #@! TD*
D22*
G04 #@! TO.C,U1*
X13027499Y69674999D03*
D23*
X13027500Y69025000D03*
X13027500Y68375000D03*
X13027500Y67725000D03*
X13027500Y67075000D03*
X13027500Y66425000D03*
X13027500Y65775000D03*
X13027500Y65125000D03*
X13027500Y64475000D03*
X13027500Y63825000D03*
X18752500Y63825000D03*
X18752500Y64475000D03*
X18752500Y65125000D03*
X18752500Y65775000D03*
X18752500Y66425000D03*
X18752500Y67075000D03*
X18752500Y67725000D03*
X18752500Y68375000D03*
X18752500Y69025000D03*
X18752500Y69675000D03*
G04 #@! TD*
D22*
G04 #@! TO.C,U1*
X32807499Y69674999D03*
D23*
X32807500Y69025000D03*
X32807500Y68375000D03*
X32807500Y67725000D03*
X32807500Y67075000D03*
X32807500Y66425000D03*
X32807500Y65775000D03*
X32807500Y65125000D03*
X32807500Y64475000D03*
X32807500Y63825000D03*
X38532500Y63825000D03*
X38532500Y64475000D03*
X38532500Y65125000D03*
X38532500Y65775000D03*
X38532500Y66425000D03*
X38532500Y67075000D03*
X38532500Y67725000D03*
X38532500Y68375000D03*
X38532500Y69025000D03*
X38532500Y69675000D03*
G04 #@! TD*
D22*
G04 #@! TO.C,U1*
X52587499Y69674999D03*
D23*
X52587500Y69025000D03*
X52587500Y68375000D03*
X52587500Y67725000D03*
X52587500Y67075000D03*
X52587500Y66425000D03*
X52587500Y65775000D03*
X52587500Y65125000D03*
X52587500Y64475000D03*
X52587500Y63825000D03*
X58312500Y63825000D03*
X58312500Y64475000D03*
X58312500Y65125000D03*
X58312500Y65775000D03*
X58312500Y66425000D03*
X58312500Y67075000D03*
X58312500Y67725000D03*
X58312500Y68375000D03*
X58312500Y69025000D03*
X58312500Y69675000D03*
G04 #@! TD*
D22*
G04 #@! TO.C,U1*
X72367499Y69674999D03*
D23*
X72367500Y69025000D03*
X72367500Y68375000D03*
X72367500Y67725000D03*
X72367500Y67075000D03*
X72367500Y66425000D03*
X72367500Y65775000D03*
X72367500Y65125000D03*
X72367500Y64475000D03*
X72367500Y63825000D03*
X78092500Y63825000D03*
X78092500Y64475000D03*
X78092500Y65125000D03*
X78092500Y65775000D03*
X78092500Y66425000D03*
X78092500Y67075000D03*
X78092500Y67725000D03*
X78092500Y68375000D03*
X78092500Y69025000D03*
X78092500Y69675000D03*
G04 #@! TD*
D22*
G04 #@! TO.C,U1*
X92147499Y69674999D03*
D23*
X92147500Y69025000D03*
X92147500Y68375000D03*
X92147500Y67725000D03*
X92147500Y67075000D03*
X92147500Y66425000D03*
X92147500Y65775000D03*
X92147500Y65125000D03*
X92147500Y64475000D03*
X92147500Y63825000D03*
X97872500Y63825000D03*
X97872500Y64475000D03*
X97872500Y65125000D03*
X97872500Y65775000D03*
X97872500Y66425000D03*
X97872500Y67075000D03*
X97872500Y67725000D03*
X97872500Y68375000D03*
X97872500Y69025000D03*
X97872500Y69675000D03*
G04 #@! TD*
D22*
G04 #@! TO.C,U1*
X111927499Y69674999D03*
D23*
X111927500Y69025000D03*
X111927500Y68375000D03*
X111927500Y67725000D03*
X111927500Y67075000D03*
X111927500Y66425000D03*
X111927500Y65775000D03*
X111927500Y65125000D03*
X111927500Y64475000D03*
X111927500Y63825000D03*
X117652500Y63825000D03*
X117652500Y64475000D03*
X117652500Y65125000D03*
X117652500Y65775000D03*
X117652500Y66425000D03*
X117652500Y67075000D03*
X117652500Y67725000D03*
X117652500Y68375000D03*
X117652500Y69025000D03*
X117652500Y69675000D03*
G04 #@! TD*
D22*
G04 #@! TO.C,U1*
X131707499Y69674999D03*
D23*
X131707500Y69025000D03*
X131707500Y68375000D03*
X131707500Y67725000D03*
X131707500Y67075000D03*
X131707500Y66425000D03*
X131707500Y65775000D03*
X131707500Y65125000D03*
X131707500Y64475000D03*
X131707500Y63825000D03*
X137432500Y63825000D03*
X137432500Y64475000D03*
X137432500Y65125000D03*
X137432500Y65775000D03*
X137432500Y66425000D03*
X137432500Y67075000D03*
X137432500Y67725000D03*
X137432500Y68375000D03*
X137432500Y69025000D03*
X137432500Y69675000D03*
G04 #@! TD*
D22*
G04 #@! TO.C,U1*
X151487499Y69674999D03*
D23*
X151487500Y69025000D03*
X151487500Y68375000D03*
X151487500Y67725000D03*
X151487500Y67075000D03*
X151487500Y66425000D03*
X151487500Y65775000D03*
X151487500Y65125000D03*
X151487500Y64475000D03*
X151487500Y63825000D03*
X157212500Y63825000D03*
X157212500Y64475000D03*
X157212500Y65125000D03*
X157212500Y65775000D03*
X157212500Y66425000D03*
X157212500Y67075000D03*
X157212500Y67725000D03*
X157212500Y68375000D03*
X157212500Y69025000D03*
X157212500Y69675000D03*
G04 #@! TD*
D22*
G04 #@! TO.C,U1*
X171267499Y69674999D03*
D23*
X171267500Y69025000D03*
X171267500Y68375000D03*
X171267500Y67725000D03*
X171267500Y67075000D03*
X171267500Y66425000D03*
X171267500Y65775000D03*
X171267500Y65125000D03*
X171267500Y64475000D03*
X171267500Y63825000D03*
X176992500Y63825000D03*
X176992500Y64475000D03*
X176992500Y65125000D03*
X176992500Y65775000D03*
X176992500Y66425000D03*
X176992500Y67075000D03*
X176992500Y67725000D03*
X176992500Y68375000D03*
X176992500Y69025000D03*
X176992500Y69675000D03*
G04 #@! TD*
D22*
G04 #@! TO.C,U1*
X191047499Y69674999D03*
D23*
X191047500Y69025000D03*
X191047500Y68375000D03*
X191047500Y67725000D03*
X191047500Y67075000D03*
X191047500Y66425000D03*
X191047500Y65775000D03*
X191047500Y65125000D03*
X191047500Y64475000D03*
X191047500Y63825000D03*
X196772500Y63825000D03*
X196772500Y64475000D03*
X196772500Y65125000D03*
X196772500Y65775000D03*
X196772500Y66425000D03*
X196772500Y67075000D03*
X196772500Y67725000D03*
X196772500Y68375000D03*
X196772500Y69025000D03*
X196772500Y69675000D03*
G04 #@! TD*
D22*
G04 #@! TO.C,U1*
X13027499Y41674999D03*
D23*
X13027500Y41025000D03*
X13027500Y40375000D03*
X13027500Y39725000D03*
X13027500Y39075000D03*
X13027500Y38425000D03*
X13027500Y37775000D03*
X13027500Y37125000D03*
X13027500Y36475000D03*
X13027500Y35825000D03*
X18752500Y35825000D03*
X18752500Y36475000D03*
X18752500Y37125000D03*
X18752500Y37775000D03*
X18752500Y38425000D03*
X18752500Y39075000D03*
X18752500Y39725000D03*
X18752500Y40375000D03*
X18752500Y41025000D03*
X18752500Y41675000D03*
G04 #@! TD*
D22*
G04 #@! TO.C,U1*
X32807499Y41674999D03*
D23*
X32807500Y41025000D03*
X32807500Y40375000D03*
X32807500Y39725000D03*
X32807500Y39075000D03*
X32807500Y38425000D03*
X32807500Y37775000D03*
X32807500Y37125000D03*
X32807500Y36475000D03*
X32807500Y35825000D03*
X38532500Y35825000D03*
X38532500Y36475000D03*
X38532500Y37125000D03*
X38532500Y37775000D03*
X38532500Y38425000D03*
X38532500Y39075000D03*
X38532500Y39725000D03*
X38532500Y40375000D03*
X38532500Y41025000D03*
X38532500Y41675000D03*
G04 #@! TD*
D22*
G04 #@! TO.C,U1*
X52587499Y41674999D03*
D23*
X52587500Y41025000D03*
X52587500Y40375000D03*
X52587500Y39725000D03*
X52587500Y39075000D03*
X52587500Y38425000D03*
X52587500Y37775000D03*
X52587500Y37125000D03*
X52587500Y36475000D03*
X52587500Y35825000D03*
X58312500Y35825000D03*
X58312500Y36475000D03*
X58312500Y37125000D03*
X58312500Y37775000D03*
X58312500Y38425000D03*
X58312500Y39075000D03*
X58312500Y39725000D03*
X58312500Y40375000D03*
X58312500Y41025000D03*
X58312500Y41675000D03*
G04 #@! TD*
D22*
G04 #@! TO.C,U1*
X72367499Y41674999D03*
D23*
X72367500Y41025000D03*
X72367500Y40375000D03*
X72367500Y39725000D03*
X72367500Y39075000D03*
X72367500Y38425000D03*
X72367500Y37775000D03*
X72367500Y37125000D03*
X72367500Y36475000D03*
X72367500Y35825000D03*
X78092500Y35825000D03*
X78092500Y36475000D03*
X78092500Y37125000D03*
X78092500Y37775000D03*
X78092500Y38425000D03*
X78092500Y39075000D03*
X78092500Y39725000D03*
X78092500Y40375000D03*
X78092500Y41025000D03*
X78092500Y41675000D03*
G04 #@! TD*
D22*
G04 #@! TO.C,U1*
X92147499Y41674999D03*
D23*
X92147500Y41025000D03*
X92147500Y40375000D03*
X92147500Y39725000D03*
X92147500Y39075000D03*
X92147500Y38425000D03*
X92147500Y37775000D03*
X92147500Y37125000D03*
X92147500Y36475000D03*
X92147500Y35825000D03*
X97872500Y35825000D03*
X97872500Y36475000D03*
X97872500Y37125000D03*
X97872500Y37775000D03*
X97872500Y38425000D03*
X97872500Y39075000D03*
X97872500Y39725000D03*
X97872500Y40375000D03*
X97872500Y41025000D03*
X97872500Y41675000D03*
G04 #@! TD*
D22*
G04 #@! TO.C,U1*
X111927499Y41674999D03*
D23*
X111927500Y41025000D03*
X111927500Y40375000D03*
X111927500Y39725000D03*
X111927500Y39075000D03*
X111927500Y38425000D03*
X111927500Y37775000D03*
X111927500Y37125000D03*
X111927500Y36475000D03*
X111927500Y35825000D03*
X117652500Y35825000D03*
X117652500Y36475000D03*
X117652500Y37125000D03*
X117652500Y37775000D03*
X117652500Y38425000D03*
X117652500Y39075000D03*
X117652500Y39725000D03*
X117652500Y40375000D03*
X117652500Y41025000D03*
X117652500Y41675000D03*
G04 #@! TD*
D22*
G04 #@! TO.C,U1*
X131707499Y41674999D03*
D23*
X131707500Y41025000D03*
X131707500Y40375000D03*
X131707500Y39725000D03*
X131707500Y39075000D03*
X131707500Y38425000D03*
X131707500Y37775000D03*
X131707500Y37125000D03*
X131707500Y36475000D03*
X131707500Y35825000D03*
X137432500Y35825000D03*
X137432500Y36475000D03*
X137432500Y37125000D03*
X137432500Y37775000D03*
X137432500Y38425000D03*
X137432500Y39075000D03*
X137432500Y39725000D03*
X137432500Y40375000D03*
X137432500Y41025000D03*
X137432500Y41675000D03*
G04 #@! TD*
D22*
G04 #@! TO.C,U1*
X151487499Y41674999D03*
D23*
X151487500Y41025000D03*
X151487500Y40375000D03*
X151487500Y39725000D03*
X151487500Y39075000D03*
X151487500Y38425000D03*
X151487500Y37775000D03*
X151487500Y37125000D03*
X151487500Y36475000D03*
X151487500Y35825000D03*
X157212500Y35825000D03*
X157212500Y36475000D03*
X157212500Y37125000D03*
X157212500Y37775000D03*
X157212500Y38425000D03*
X157212500Y39075000D03*
X157212500Y39725000D03*
X157212500Y40375000D03*
X157212500Y41025000D03*
X157212500Y41675000D03*
G04 #@! TD*
D22*
G04 #@! TO.C,U1*
X171267499Y41674999D03*
D23*
X171267500Y41025000D03*
X171267500Y40375000D03*
X171267500Y39725000D03*
X171267500Y39075000D03*
X171267500Y38425000D03*
X171267500Y37775000D03*
X171267500Y37125000D03*
X171267500Y36475000D03*
X171267500Y35825000D03*
X176992500Y35825000D03*
X176992500Y36475000D03*
X176992500Y37125000D03*
X176992500Y37775000D03*
X176992500Y38425000D03*
X176992500Y39075000D03*
X176992500Y39725000D03*
X176992500Y40375000D03*
X176992500Y41025000D03*
X176992500Y41675000D03*
G04 #@! TD*
D22*
G04 #@! TO.C,U1*
X191047499Y41674999D03*
D23*
X191047500Y41025000D03*
X191047500Y40375000D03*
X191047500Y39725000D03*
X191047500Y39075000D03*
X191047500Y38425000D03*
X191047500Y37775000D03*
X191047500Y37125000D03*
X191047500Y36475000D03*
X191047500Y35825000D03*
X196772500Y35825000D03*
X196772500Y36475000D03*
X196772500Y37125000D03*
X196772500Y37775000D03*
X196772500Y38425000D03*
X196772500Y39075000D03*
X196772500Y39725000D03*
X196772500Y40375000D03*
X196772500Y41025000D03*
X196772500Y41675000D03*
G04 #@! TD*
D22*
G04 #@! TO.C,U1*
X13027499Y13674999D03*
D23*
X13027500Y13025000D03*
X13027500Y12375000D03*
X13027500Y11725000D03*
X13027500Y11075000D03*
X13027500Y10425000D03*
X13027500Y9775000D03*
X13027500Y9125000D03*
X13027500Y8475000D03*
X13027500Y7825000D03*
X18752500Y7825000D03*
X18752500Y8475000D03*
X18752500Y9125000D03*
X18752500Y9775000D03*
X18752500Y10425000D03*
X18752500Y11075000D03*
X18752500Y11725000D03*
X18752500Y12375000D03*
X18752500Y13025000D03*
X18752500Y13675000D03*
G04 #@! TD*
D22*
G04 #@! TO.C,U1*
X32807499Y13674999D03*
D23*
X32807500Y13025000D03*
X32807500Y12375000D03*
X32807500Y11725000D03*
X32807500Y11075000D03*
X32807500Y10425000D03*
X32807500Y9775000D03*
X32807500Y9125000D03*
X32807500Y8475000D03*
X32807500Y7825000D03*
X38532500Y7825000D03*
X38532500Y8475000D03*
X38532500Y9125000D03*
X38532500Y9775000D03*
X38532500Y10425000D03*
X38532500Y11075000D03*
X38532500Y11725000D03*
X38532500Y12375000D03*
X38532500Y13025000D03*
X38532500Y13675000D03*
G04 #@! TD*
D22*
G04 #@! TO.C,U1*
X52587499Y13674999D03*
D23*
X52587500Y13025000D03*
X52587500Y12375000D03*
X52587500Y11725000D03*
X52587500Y11075000D03*
X52587500Y10425000D03*
X52587500Y9775000D03*
X52587500Y9125000D03*
X52587500Y8475000D03*
X52587500Y7825000D03*
X58312500Y7825000D03*
X58312500Y8475000D03*
X58312500Y9125000D03*
X58312500Y9775000D03*
X58312500Y10425000D03*
X58312500Y11075000D03*
X58312500Y11725000D03*
X58312500Y12375000D03*
X58312500Y13025000D03*
X58312500Y13675000D03*
G04 #@! TD*
D22*
G04 #@! TO.C,U1*
X72367499Y13674999D03*
D23*
X72367500Y13025000D03*
X72367500Y12375000D03*
X72367500Y11725000D03*
X72367500Y11075000D03*
X72367500Y10425000D03*
X72367500Y9775000D03*
X72367500Y9125000D03*
X72367500Y8475000D03*
X72367500Y7825000D03*
X78092500Y7825000D03*
X78092500Y8475000D03*
X78092500Y9125000D03*
X78092500Y9775000D03*
X78092500Y10425000D03*
X78092500Y11075000D03*
X78092500Y11725000D03*
X78092500Y12375000D03*
X78092500Y13025000D03*
X78092500Y13675000D03*
G04 #@! TD*
D22*
G04 #@! TO.C,U1*
X92147499Y13674999D03*
D23*
X92147500Y13025000D03*
X92147500Y12375000D03*
X92147500Y11725000D03*
X92147500Y11075000D03*
X92147500Y10425000D03*
X92147500Y9775000D03*
X92147500Y9125000D03*
X92147500Y8475000D03*
X92147500Y7825000D03*
X97872500Y7825000D03*
X97872500Y8475000D03*
X97872500Y9125000D03*
X97872500Y9775000D03*
X97872500Y10425000D03*
X97872500Y11075000D03*
X97872500Y11725000D03*
X97872500Y12375000D03*
X97872500Y13025000D03*
X97872500Y13675000D03*
G04 #@! TD*
D22*
G04 #@! TO.C,U1*
X111927499Y13674999D03*
D23*
X111927500Y13025000D03*
X111927500Y12375000D03*
X111927500Y11725000D03*
X111927500Y11075000D03*
X111927500Y10425000D03*
X111927500Y9775000D03*
X111927500Y9125000D03*
X111927500Y8475000D03*
X111927500Y7825000D03*
X117652500Y7825000D03*
X117652500Y8475000D03*
X117652500Y9125000D03*
X117652500Y9775000D03*
X117652500Y10425000D03*
X117652500Y11075000D03*
X117652500Y11725000D03*
X117652500Y12375000D03*
X117652500Y13025000D03*
X117652500Y13675000D03*
G04 #@! TD*
D22*
G04 #@! TO.C,U1*
X131707499Y13674999D03*
D23*
X131707500Y13025000D03*
X131707500Y12375000D03*
X131707500Y11725000D03*
X131707500Y11075000D03*
X131707500Y10425000D03*
X131707500Y9775000D03*
X131707500Y9125000D03*
X131707500Y8475000D03*
X131707500Y7825000D03*
X137432500Y7825000D03*
X137432500Y8475000D03*
X137432500Y9125000D03*
X137432500Y9775000D03*
X137432500Y10425000D03*
X137432500Y11075000D03*
X137432500Y11725000D03*
X137432500Y12375000D03*
X137432500Y13025000D03*
X137432500Y13675000D03*
G04 #@! TD*
D22*
G04 #@! TO.C,U1*
X151487499Y13674999D03*
D23*
X151487500Y13025000D03*
X151487500Y12375000D03*
X151487500Y11725000D03*
X151487500Y11075000D03*
X151487500Y10425000D03*
X151487500Y9775000D03*
X151487500Y9125000D03*
X151487500Y8475000D03*
X151487500Y7825000D03*
X157212500Y7825000D03*
X157212500Y8475000D03*
X157212500Y9125000D03*
X157212500Y9775000D03*
X157212500Y10425000D03*
X157212500Y11075000D03*
X157212500Y11725000D03*
X157212500Y12375000D03*
X157212500Y13025000D03*
X157212500Y13675000D03*
G04 #@! TD*
D22*
G04 #@! TO.C,U1*
X171267499Y13674999D03*
D23*
X171267500Y13025000D03*
X171267500Y12375000D03*
X171267500Y11725000D03*
X171267500Y11075000D03*
X171267500Y10425000D03*
X171267500Y9775000D03*
X171267500Y9125000D03*
X171267500Y8475000D03*
X171267500Y7825000D03*
X176992500Y7825000D03*
X176992500Y8475000D03*
X176992500Y9125000D03*
X176992500Y9775000D03*
X176992500Y10425000D03*
X176992500Y11075000D03*
X176992500Y11725000D03*
X176992500Y12375000D03*
X176992500Y13025000D03*
X176992500Y13675000D03*
G04 #@! TD*
D22*
G04 #@! TO.C,U1*
X191047499Y13674999D03*
D23*
X191047500Y13025000D03*
X191047500Y12375000D03*
X191047500Y11725000D03*
X191047500Y11075000D03*
X191047500Y10425000D03*
X191047500Y9775000D03*
X191047500Y9125000D03*
X191047500Y8475000D03*
X191047500Y7825000D03*
X196772500Y7825000D03*
X196772500Y8475000D03*
X196772500Y9125000D03*
X196772500Y9775000D03*
X196772500Y10425000D03*
X196772500Y11075000D03*
X196772500Y11725000D03*
X196772500Y12375000D03*
X196772500Y13025000D03*
X196772500Y13675000D03*
G04 #@! TD*
D10*
G04 #@! TO.C,SW2*
X40502500Y99750000D03*
X40502500Y103950000D03*
G04 #@! TD*
G04 #@! TO.C,SW2*
X60282500Y99750000D03*
X60282500Y103950000D03*
G04 #@! TD*
G04 #@! TO.C,SW2*
X20722500Y127750000D03*
X20722500Y131950000D03*
G04 #@! TD*
G04 #@! TO.C,SW2*
X40502500Y127750000D03*
X40502500Y131950000D03*
G04 #@! TD*
G04 #@! TO.C,SW2*
X60282500Y127750000D03*
X60282500Y131950000D03*
G04 #@! TD*
G04 #@! TO.C,SW2*
X80062500Y127750000D03*
X80062500Y131950000D03*
G04 #@! TD*
G04 #@! TO.C,SW2*
X99842500Y127750000D03*
X99842500Y131950000D03*
G04 #@! TD*
G04 #@! TO.C,SW2*
X119622500Y127750000D03*
X119622500Y131950000D03*
G04 #@! TD*
G04 #@! TO.C,SW2*
X139402500Y127750000D03*
X139402500Y131950000D03*
G04 #@! TD*
G04 #@! TO.C,SW2*
X159182500Y127750000D03*
X159182500Y131950000D03*
G04 #@! TD*
G04 #@! TO.C,SW2*
X178962500Y127750000D03*
X178962500Y131950000D03*
G04 #@! TD*
G04 #@! TO.C,SW2*
X198742500Y127750000D03*
X198742500Y131950000D03*
G04 #@! TD*
G04 #@! TO.C,SW2*
X20722500Y99750000D03*
X20722500Y103950000D03*
G04 #@! TD*
G04 #@! TO.C,SW2*
X80062500Y99750000D03*
X80062500Y103950000D03*
G04 #@! TD*
G04 #@! TO.C,SW2*
X99842500Y99750000D03*
X99842500Y103950000D03*
G04 #@! TD*
G04 #@! TO.C,SW2*
X119622500Y99750000D03*
X119622500Y103950000D03*
G04 #@! TD*
G04 #@! TO.C,SW2*
X139402500Y99750000D03*
X139402500Y103950000D03*
G04 #@! TD*
G04 #@! TO.C,SW2*
X159182500Y99750000D03*
X159182500Y103950000D03*
G04 #@! TD*
G04 #@! TO.C,SW2*
X178962500Y99750000D03*
X178962500Y103950000D03*
G04 #@! TD*
G04 #@! TO.C,SW2*
X198742500Y99750000D03*
X198742500Y103950000D03*
G04 #@! TD*
G04 #@! TO.C,SW2*
X20722500Y71750000D03*
X20722500Y75950000D03*
G04 #@! TD*
G04 #@! TO.C,SW2*
X40502500Y71750000D03*
X40502500Y75950000D03*
G04 #@! TD*
G04 #@! TO.C,SW2*
X60282500Y71750000D03*
X60282500Y75950000D03*
G04 #@! TD*
G04 #@! TO.C,SW2*
X80062500Y71750000D03*
X80062500Y75950000D03*
G04 #@! TD*
G04 #@! TO.C,SW2*
X99842500Y71750000D03*
X99842500Y75950000D03*
G04 #@! TD*
G04 #@! TO.C,SW2*
X119622500Y71750000D03*
X119622500Y75950000D03*
G04 #@! TD*
G04 #@! TO.C,SW2*
X139402500Y71750000D03*
X139402500Y75950000D03*
G04 #@! TD*
G04 #@! TO.C,SW2*
X159182500Y71750000D03*
X159182500Y75950000D03*
G04 #@! TD*
G04 #@! TO.C,SW2*
X178962500Y71750000D03*
X178962500Y75950000D03*
G04 #@! TD*
G04 #@! TO.C,SW2*
X198742500Y71750000D03*
X198742500Y75950000D03*
G04 #@! TD*
G04 #@! TO.C,SW2*
X20722500Y43750000D03*
X20722500Y47950000D03*
G04 #@! TD*
G04 #@! TO.C,SW2*
X40502500Y43750000D03*
X40502500Y47950000D03*
G04 #@! TD*
G04 #@! TO.C,SW2*
X60282500Y43750000D03*
X60282500Y47950000D03*
G04 #@! TD*
G04 #@! TO.C,SW2*
X80062500Y43750000D03*
X80062500Y47950000D03*
G04 #@! TD*
G04 #@! TO.C,SW2*
X99842500Y43750000D03*
X99842500Y47950000D03*
G04 #@! TD*
G04 #@! TO.C,SW2*
X119622500Y43750000D03*
X119622500Y47950000D03*
G04 #@! TD*
G04 #@! TO.C,SW2*
X139402500Y43750000D03*
X139402500Y47950000D03*
G04 #@! TD*
G04 #@! TO.C,SW2*
X159182500Y43750000D03*
X159182500Y47950000D03*
G04 #@! TD*
G04 #@! TO.C,SW2*
X178962500Y43750000D03*
X178962500Y47950000D03*
G04 #@! TD*
G04 #@! TO.C,SW2*
X198742500Y43750000D03*
X198742500Y47950000D03*
G04 #@! TD*
G04 #@! TO.C,SW2*
X20722500Y15750000D03*
X20722500Y19950000D03*
G04 #@! TD*
G04 #@! TO.C,SW2*
X40502500Y15750000D03*
X40502500Y19950000D03*
G04 #@! TD*
G04 #@! TO.C,SW2*
X60282500Y15750000D03*
X60282500Y19950000D03*
G04 #@! TD*
G04 #@! TO.C,SW2*
X80062500Y15750000D03*
X80062500Y19950000D03*
G04 #@! TD*
G04 #@! TO.C,SW2*
X99842500Y15750000D03*
X99842500Y19950000D03*
G04 #@! TD*
G04 #@! TO.C,SW2*
X119622500Y15750000D03*
X119622500Y19950000D03*
G04 #@! TD*
G04 #@! TO.C,SW2*
X139402500Y15750000D03*
X139402500Y19950000D03*
G04 #@! TD*
G04 #@! TO.C,SW2*
X159182500Y15750000D03*
X159182500Y19950000D03*
G04 #@! TD*
G04 #@! TO.C,SW2*
X178962500Y15750000D03*
X178962500Y19950000D03*
G04 #@! TD*
G04 #@! TO.C,SW2*
X198742500Y15750000D03*
X198742500Y19950000D03*
G04 #@! TD*
D24*
G04 #@! TO.C,C2*
X20280000Y126557500D03*
X21240000Y126557500D03*
G04 #@! TD*
G04 #@! TO.C,C2*
X40060000Y126557500D03*
X41020000Y126557500D03*
G04 #@! TD*
G04 #@! TO.C,C2*
X59840000Y126557500D03*
X60800000Y126557500D03*
G04 #@! TD*
G04 #@! TO.C,C2*
X79620000Y126557500D03*
X80580000Y126557500D03*
G04 #@! TD*
G04 #@! TO.C,C2*
X99400000Y126557500D03*
X100360000Y126557500D03*
G04 #@! TD*
G04 #@! TO.C,C2*
X119180000Y126557500D03*
X120140000Y126557500D03*
G04 #@! TD*
G04 #@! TO.C,C2*
X138960000Y126557500D03*
X139920000Y126557500D03*
G04 #@! TD*
G04 #@! TO.C,C2*
X158740000Y126557500D03*
X159700000Y126557500D03*
G04 #@! TD*
G04 #@! TO.C,C2*
X178520000Y126557500D03*
X179480000Y126557500D03*
G04 #@! TD*
G04 #@! TO.C,C2*
X198300000Y126557500D03*
X199260000Y126557500D03*
G04 #@! TD*
G04 #@! TO.C,C2*
X20280000Y98557500D03*
X21240000Y98557500D03*
G04 #@! TD*
G04 #@! TO.C,C2*
X40060000Y98557500D03*
X41020000Y98557500D03*
G04 #@! TD*
G04 #@! TO.C,C2*
X59840000Y98557500D03*
X60800000Y98557500D03*
G04 #@! TD*
G04 #@! TO.C,C2*
X79620000Y98557500D03*
X80580000Y98557500D03*
G04 #@! TD*
G04 #@! TO.C,C2*
X99400000Y98557500D03*
X100360000Y98557500D03*
G04 #@! TD*
G04 #@! TO.C,C2*
X119180000Y98557500D03*
X120140000Y98557500D03*
G04 #@! TD*
G04 #@! TO.C,C2*
X138960000Y98557500D03*
X139920000Y98557500D03*
G04 #@! TD*
G04 #@! TO.C,C2*
X158740000Y98557500D03*
X159700000Y98557500D03*
G04 #@! TD*
G04 #@! TO.C,C2*
X178520000Y98557500D03*
X179480000Y98557500D03*
G04 #@! TD*
G04 #@! TO.C,C2*
X198300000Y98557500D03*
X199260000Y98557500D03*
G04 #@! TD*
G04 #@! TO.C,C2*
X20280000Y70557500D03*
X21240000Y70557500D03*
G04 #@! TD*
G04 #@! TO.C,C2*
X40060000Y70557500D03*
X41020000Y70557500D03*
G04 #@! TD*
G04 #@! TO.C,C2*
X59840000Y70557500D03*
X60800000Y70557500D03*
G04 #@! TD*
G04 #@! TO.C,C2*
X79620000Y70557500D03*
X80580000Y70557500D03*
G04 #@! TD*
G04 #@! TO.C,C2*
X99400000Y70557500D03*
X100360000Y70557500D03*
G04 #@! TD*
G04 #@! TO.C,C2*
X119180000Y70557500D03*
X120140000Y70557500D03*
G04 #@! TD*
G04 #@! TO.C,C2*
X138960000Y70557500D03*
X139920000Y70557500D03*
G04 #@! TD*
G04 #@! TO.C,C2*
X158740000Y70557500D03*
X159700000Y70557500D03*
G04 #@! TD*
G04 #@! TO.C,C2*
X178520000Y70557500D03*
X179480000Y70557500D03*
G04 #@! TD*
G04 #@! TO.C,C2*
X198300000Y70557500D03*
X199260000Y70557500D03*
G04 #@! TD*
G04 #@! TO.C,C2*
X20280000Y42557500D03*
X21240000Y42557500D03*
G04 #@! TD*
G04 #@! TO.C,C2*
X40060000Y42557500D03*
X41020000Y42557500D03*
G04 #@! TD*
G04 #@! TO.C,C2*
X59840000Y42557500D03*
X60800000Y42557500D03*
G04 #@! TD*
G04 #@! TO.C,C2*
X79620000Y42557500D03*
X80580000Y42557500D03*
G04 #@! TD*
G04 #@! TO.C,C2*
X99400000Y42557500D03*
X100360000Y42557500D03*
G04 #@! TD*
G04 #@! TO.C,C2*
X119180000Y42557500D03*
X120140000Y42557500D03*
G04 #@! TD*
G04 #@! TO.C,C2*
X138960000Y42557500D03*
X139920000Y42557500D03*
G04 #@! TD*
G04 #@! TO.C,C2*
X158740000Y42557500D03*
X159700000Y42557500D03*
G04 #@! TD*
G04 #@! TO.C,C2*
X178520000Y42557500D03*
X179480000Y42557500D03*
G04 #@! TD*
G04 #@! TO.C,C2*
X198300000Y42557500D03*
X199260000Y42557500D03*
G04 #@! TD*
G04 #@! TO.C,C2*
X20280000Y14557500D03*
X21240000Y14557500D03*
G04 #@! TD*
G04 #@! TO.C,C2*
X40060000Y14557500D03*
X41020000Y14557500D03*
G04 #@! TD*
G04 #@! TO.C,C2*
X59840000Y14557500D03*
X60800000Y14557500D03*
G04 #@! TD*
G04 #@! TO.C,C2*
X79620000Y14557500D03*
X80580000Y14557500D03*
G04 #@! TD*
G04 #@! TO.C,C2*
X99400000Y14557500D03*
X100360000Y14557500D03*
G04 #@! TD*
G04 #@! TO.C,C2*
X119180000Y14557500D03*
X120140000Y14557500D03*
G04 #@! TD*
G04 #@! TO.C,C2*
X138960000Y14557500D03*
X139920000Y14557500D03*
G04 #@! TD*
G04 #@! TO.C,C2*
X158740000Y14557500D03*
X159700000Y14557500D03*
G04 #@! TD*
G04 #@! TO.C,C2*
X178520000Y14557500D03*
X179480000Y14557500D03*
G04 #@! TD*
G04 #@! TO.C,C2*
X198300000Y14557500D03*
X199260000Y14557500D03*
G04 #@! TD*
D16*
G04 #@! TO.C,R2*
X21865000Y133270000D03*
X21865000Y134290000D03*
G04 #@! TD*
G04 #@! TO.C,R2*
X41645000Y133270000D03*
X41645000Y134290000D03*
G04 #@! TD*
G04 #@! TO.C,R2*
X61425000Y133270000D03*
X61425000Y134290000D03*
G04 #@! TD*
G04 #@! TO.C,R2*
X81205000Y133270000D03*
X81205000Y134290000D03*
G04 #@! TD*
G04 #@! TO.C,R2*
X100985000Y133270000D03*
X100985000Y134290000D03*
G04 #@! TD*
G04 #@! TO.C,R2*
X120765000Y133270000D03*
X120765000Y134290000D03*
G04 #@! TD*
G04 #@! TO.C,R2*
X140545000Y133270000D03*
X140545000Y134290000D03*
G04 #@! TD*
G04 #@! TO.C,R2*
X160325000Y133270000D03*
X160325000Y134290000D03*
G04 #@! TD*
G04 #@! TO.C,R2*
X180105000Y133270000D03*
X180105000Y134290000D03*
G04 #@! TD*
G04 #@! TO.C,R2*
X199885000Y133270000D03*
X199885000Y134290000D03*
G04 #@! TD*
G04 #@! TO.C,R2*
X21865000Y105270000D03*
X21865000Y106290000D03*
G04 #@! TD*
G04 #@! TO.C,R2*
X41645000Y105270000D03*
X41645000Y106290000D03*
G04 #@! TD*
G04 #@! TO.C,R2*
X61425000Y105270000D03*
X61425000Y106290000D03*
G04 #@! TD*
G04 #@! TO.C,R2*
X81205000Y105270000D03*
X81205000Y106290000D03*
G04 #@! TD*
G04 #@! TO.C,R2*
X100985000Y105270000D03*
X100985000Y106290000D03*
G04 #@! TD*
G04 #@! TO.C,R2*
X120765000Y105270000D03*
X120765000Y106290000D03*
G04 #@! TD*
G04 #@! TO.C,R2*
X140545000Y105270000D03*
X140545000Y106290000D03*
G04 #@! TD*
G04 #@! TO.C,R2*
X160325000Y105270000D03*
X160325000Y106290000D03*
G04 #@! TD*
G04 #@! TO.C,R2*
X180105000Y105270000D03*
X180105000Y106290000D03*
G04 #@! TD*
G04 #@! TO.C,R2*
X199885000Y105270000D03*
X199885000Y106290000D03*
G04 #@! TD*
G04 #@! TO.C,R2*
X21865000Y77270000D03*
X21865000Y78290000D03*
G04 #@! TD*
G04 #@! TO.C,R2*
X41645000Y77270000D03*
X41645000Y78290000D03*
G04 #@! TD*
G04 #@! TO.C,R2*
X61425000Y77270000D03*
X61425000Y78290000D03*
G04 #@! TD*
G04 #@! TO.C,R2*
X81205000Y77270000D03*
X81205000Y78290000D03*
G04 #@! TD*
G04 #@! TO.C,R2*
X100985000Y77270000D03*
X100985000Y78290000D03*
G04 #@! TD*
G04 #@! TO.C,R2*
X120765000Y77270000D03*
X120765000Y78290000D03*
G04 #@! TD*
G04 #@! TO.C,R2*
X140545000Y77270000D03*
X140545000Y78290000D03*
G04 #@! TD*
G04 #@! TO.C,R2*
X160325000Y77270000D03*
X160325000Y78290000D03*
G04 #@! TD*
G04 #@! TO.C,R2*
X180105000Y77270000D03*
X180105000Y78290000D03*
G04 #@! TD*
G04 #@! TO.C,R2*
X199885000Y77270000D03*
X199885000Y78290000D03*
G04 #@! TD*
G04 #@! TO.C,R2*
X21865000Y49270000D03*
X21865000Y50290000D03*
G04 #@! TD*
G04 #@! TO.C,R2*
X41645000Y49270000D03*
X41645000Y50290000D03*
G04 #@! TD*
G04 #@! TO.C,R2*
X61425000Y49270000D03*
X61425000Y50290000D03*
G04 #@! TD*
G04 #@! TO.C,R2*
X81205000Y49270000D03*
X81205000Y50290000D03*
G04 #@! TD*
G04 #@! TO.C,R2*
X100985000Y49270000D03*
X100985000Y50290000D03*
G04 #@! TD*
G04 #@! TO.C,R2*
X120765000Y49270000D03*
X120765000Y50290000D03*
G04 #@! TD*
G04 #@! TO.C,R2*
X140545000Y49270000D03*
X140545000Y50290000D03*
G04 #@! TD*
G04 #@! TO.C,R2*
X160325000Y49270000D03*
X160325000Y50290000D03*
G04 #@! TD*
G04 #@! TO.C,R2*
X180105000Y49270000D03*
X180105000Y50290000D03*
G04 #@! TD*
G04 #@! TO.C,R2*
X199885000Y49270000D03*
X199885000Y50290000D03*
G04 #@! TD*
G04 #@! TO.C,R2*
X21865000Y21270000D03*
X21865000Y22290000D03*
G04 #@! TD*
G04 #@! TO.C,R2*
X41645000Y21270000D03*
X41645000Y22290000D03*
G04 #@! TD*
G04 #@! TO.C,R2*
X61425000Y21270000D03*
X61425000Y22290000D03*
G04 #@! TD*
G04 #@! TO.C,R2*
X81205000Y21270000D03*
X81205000Y22290000D03*
G04 #@! TD*
G04 #@! TO.C,R2*
X100985000Y21270000D03*
X100985000Y22290000D03*
G04 #@! TD*
G04 #@! TO.C,R2*
X120765000Y21270000D03*
X120765000Y22290000D03*
G04 #@! TD*
G04 #@! TO.C,R2*
X140545000Y21270000D03*
X140545000Y22290000D03*
G04 #@! TD*
G04 #@! TO.C,R2*
X160325000Y21270000D03*
X160325000Y22290000D03*
G04 #@! TD*
G04 #@! TO.C,R2*
X180105000Y21270000D03*
X180105000Y22290000D03*
G04 #@! TD*
G04 #@! TO.C,R2*
X199885000Y21270000D03*
X199885000Y22290000D03*
G04 #@! TD*
D14*
G04 #@! TO.C,R3*
X18240000Y132160000D03*
X18240000Y131140000D03*
G04 #@! TD*
G04 #@! TO.C,R3*
X38020000Y132160000D03*
X38020000Y131140000D03*
G04 #@! TD*
G04 #@! TO.C,R3*
X57800000Y132160000D03*
X57800000Y131140000D03*
G04 #@! TD*
G04 #@! TO.C,R3*
X77580000Y132160000D03*
X77580000Y131140000D03*
G04 #@! TD*
G04 #@! TO.C,R3*
X97360000Y132160000D03*
X97360000Y131140000D03*
G04 #@! TD*
G04 #@! TO.C,R3*
X117140000Y132160000D03*
X117140000Y131140000D03*
G04 #@! TD*
G04 #@! TO.C,R3*
X136920000Y132160000D03*
X136920000Y131140000D03*
G04 #@! TD*
G04 #@! TO.C,R3*
X156700000Y132160000D03*
X156700000Y131140000D03*
G04 #@! TD*
G04 #@! TO.C,R3*
X176480000Y132160000D03*
X176480000Y131140000D03*
G04 #@! TD*
G04 #@! TO.C,R3*
X196260000Y132160000D03*
X196260000Y131140000D03*
G04 #@! TD*
G04 #@! TO.C,R3*
X18240000Y104160000D03*
X18240000Y103140000D03*
G04 #@! TD*
G04 #@! TO.C,R3*
X38020000Y104160000D03*
X38020000Y103140000D03*
G04 #@! TD*
G04 #@! TO.C,R3*
X57800000Y104160000D03*
X57800000Y103140000D03*
G04 #@! TD*
G04 #@! TO.C,R3*
X77580000Y104160000D03*
X77580000Y103140000D03*
G04 #@! TD*
G04 #@! TO.C,R3*
X97360000Y104160000D03*
X97360000Y103140000D03*
G04 #@! TD*
G04 #@! TO.C,R3*
X117140000Y104160000D03*
X117140000Y103140000D03*
G04 #@! TD*
G04 #@! TO.C,R3*
X136920000Y104160000D03*
X136920000Y103140000D03*
G04 #@! TD*
G04 #@! TO.C,R3*
X156700000Y104160000D03*
X156700000Y103140000D03*
G04 #@! TD*
G04 #@! TO.C,R3*
X176480000Y104160000D03*
X176480000Y103140000D03*
G04 #@! TD*
G04 #@! TO.C,R3*
X196260000Y104160000D03*
X196260000Y103140000D03*
G04 #@! TD*
G04 #@! TO.C,R3*
X18240000Y76160000D03*
X18240000Y75140000D03*
G04 #@! TD*
G04 #@! TO.C,R3*
X38020000Y76160000D03*
X38020000Y75140000D03*
G04 #@! TD*
G04 #@! TO.C,R3*
X57800000Y76160000D03*
X57800000Y75140000D03*
G04 #@! TD*
G04 #@! TO.C,R3*
X77580000Y76160000D03*
X77580000Y75140000D03*
G04 #@! TD*
G04 #@! TO.C,R3*
X97360000Y76160000D03*
X97360000Y75140000D03*
G04 #@! TD*
G04 #@! TO.C,R3*
X117140000Y76160000D03*
X117140000Y75140000D03*
G04 #@! TD*
G04 #@! TO.C,R3*
X136920000Y76160000D03*
X136920000Y75140000D03*
G04 #@! TD*
G04 #@! TO.C,R3*
X156700000Y76160000D03*
X156700000Y75140000D03*
G04 #@! TD*
G04 #@! TO.C,R3*
X176480000Y76160000D03*
X176480000Y75140000D03*
G04 #@! TD*
G04 #@! TO.C,R3*
X196260000Y76160000D03*
X196260000Y75140000D03*
G04 #@! TD*
G04 #@! TO.C,R3*
X18240000Y48160000D03*
X18240000Y47140000D03*
G04 #@! TD*
G04 #@! TO.C,R3*
X38020000Y48160000D03*
X38020000Y47140000D03*
G04 #@! TD*
G04 #@! TO.C,R3*
X57800000Y48160000D03*
X57800000Y47140000D03*
G04 #@! TD*
G04 #@! TO.C,R3*
X77580000Y48160000D03*
X77580000Y47140000D03*
G04 #@! TD*
G04 #@! TO.C,R3*
X97360000Y48160000D03*
X97360000Y47140000D03*
G04 #@! TD*
G04 #@! TO.C,R3*
X117140000Y48160000D03*
X117140000Y47140000D03*
G04 #@! TD*
G04 #@! TO.C,R3*
X136920000Y48160000D03*
X136920000Y47140000D03*
G04 #@! TD*
G04 #@! TO.C,R3*
X156700000Y48160000D03*
X156700000Y47140000D03*
G04 #@! TD*
G04 #@! TO.C,R3*
X176480000Y48160000D03*
X176480000Y47140000D03*
G04 #@! TD*
G04 #@! TO.C,R3*
X196260000Y48160000D03*
X196260000Y47140000D03*
G04 #@! TD*
G04 #@! TO.C,R3*
X18240000Y20160000D03*
X18240000Y19140000D03*
G04 #@! TD*
G04 #@! TO.C,R3*
X38020000Y20160000D03*
X38020000Y19140000D03*
G04 #@! TD*
G04 #@! TO.C,R3*
X57800000Y20160000D03*
X57800000Y19140000D03*
G04 #@! TD*
G04 #@! TO.C,R3*
X77580000Y20160000D03*
X77580000Y19140000D03*
G04 #@! TD*
G04 #@! TO.C,R3*
X97360000Y20160000D03*
X97360000Y19140000D03*
G04 #@! TD*
G04 #@! TO.C,R3*
X117140000Y20160000D03*
X117140000Y19140000D03*
G04 #@! TD*
G04 #@! TO.C,R3*
X136920000Y20160000D03*
X136920000Y19140000D03*
G04 #@! TD*
G04 #@! TO.C,R3*
X156700000Y20160000D03*
X156700000Y19140000D03*
G04 #@! TD*
G04 #@! TO.C,R3*
X176480000Y20160000D03*
X176480000Y19140000D03*
G04 #@! TD*
G04 #@! TO.C,R3*
X196260000Y20160000D03*
X196260000Y19140000D03*
G04 #@! TD*
D11*
G04 #@! TO.C,REF\u002A\u002A*
X2500000Y144500000D03*
G04 #@! TD*
M02*
