G04 #@! TF.GenerationSoftware,KiCad,Pcbnew,7.0.0-da2b9df05c~165~ubuntu22.04.1*
G04 #@! TF.CreationDate,2023-12-10T21:50:17+00:00*
G04 #@! TF.ProjectId,kicad_miao-panel,6b696361-645f-46d6-9961-6f2d70616e65,rev?*
G04 #@! TF.SameCoordinates,Original*
G04 #@! TF.FileFunction,Legend,Top*
G04 #@! TF.FilePolarity,Positive*
%FSLAX46Y46*%
G04 Gerber Fmt 4.6, Leading zero omitted, Abs format (unit mm)*
G04 Created by KiCad (PCBNEW 7.0.0-da2b9df05c~165~ubuntu22.04.1) date 2023-12-10 21:50:17*
%MOMM*%
%LPD*%
G01*
G04 APERTURE LIST*
%ADD10C,0.300000*%
%ADD11C,0.125000*%
G04 APERTURE END LIST*
D10*
X99700000Y143948929D02*
X99700000Y144948929D01*
X99700000Y144806072D02*
X99771429Y144877500D01*
X99771429Y144877500D02*
X99914286Y144948929D01*
X99914286Y144948929D02*
X100128572Y144948929D01*
X100128572Y144948929D02*
X100271429Y144877500D01*
X100271429Y144877500D02*
X100342858Y144734643D01*
X100342858Y144734643D02*
X100342858Y143948929D01*
X100342858Y144734643D02*
X100414286Y144877500D01*
X100414286Y144877500D02*
X100557143Y144948929D01*
X100557143Y144948929D02*
X100771429Y144948929D01*
X100771429Y144948929D02*
X100914286Y144877500D01*
X100914286Y144877500D02*
X100985715Y144734643D01*
X100985715Y144734643D02*
X100985715Y143948929D01*
X101700000Y143948929D02*
X101700000Y144948929D01*
X101700000Y145448929D02*
X101628572Y145377500D01*
X101628572Y145377500D02*
X101700000Y145306072D01*
X101700000Y145306072D02*
X101771429Y145377500D01*
X101771429Y145377500D02*
X101700000Y145448929D01*
X101700000Y145448929D02*
X101700000Y145306072D01*
X103057144Y143948929D02*
X103057144Y144734643D01*
X103057144Y144734643D02*
X102985715Y144877500D01*
X102985715Y144877500D02*
X102842858Y144948929D01*
X102842858Y144948929D02*
X102557144Y144948929D01*
X102557144Y144948929D02*
X102414286Y144877500D01*
X103057144Y144020358D02*
X102914286Y143948929D01*
X102914286Y143948929D02*
X102557144Y143948929D01*
X102557144Y143948929D02*
X102414286Y144020358D01*
X102414286Y144020358D02*
X102342858Y144163215D01*
X102342858Y144163215D02*
X102342858Y144306072D01*
X102342858Y144306072D02*
X102414286Y144448929D01*
X102414286Y144448929D02*
X102557144Y144520358D01*
X102557144Y144520358D02*
X102914286Y144520358D01*
X102914286Y144520358D02*
X103057144Y144591786D01*
X103985715Y143948929D02*
X103842858Y144020358D01*
X103842858Y144020358D02*
X103771429Y144091786D01*
X103771429Y144091786D02*
X103700001Y144234643D01*
X103700001Y144234643D02*
X103700001Y144663215D01*
X103700001Y144663215D02*
X103771429Y144806072D01*
X103771429Y144806072D02*
X103842858Y144877500D01*
X103842858Y144877500D02*
X103985715Y144948929D01*
X103985715Y144948929D02*
X104200001Y144948929D01*
X104200001Y144948929D02*
X104342858Y144877500D01*
X104342858Y144877500D02*
X104414287Y144806072D01*
X104414287Y144806072D02*
X104485715Y144663215D01*
X104485715Y144663215D02*
X104485715Y144234643D01*
X104485715Y144234643D02*
X104414287Y144091786D01*
X104414287Y144091786D02*
X104342858Y144020358D01*
X104342858Y144020358D02*
X104200001Y143948929D01*
X104200001Y143948929D02*
X103985715Y143948929D01*
X106028572Y143948929D02*
X106028572Y144948929D01*
X106028572Y144663215D02*
X106100001Y144806072D01*
X106100001Y144806072D02*
X106171430Y144877500D01*
X106171430Y144877500D02*
X106314287Y144948929D01*
X106314287Y144948929D02*
X106457144Y144948929D01*
X107528572Y144020358D02*
X107385715Y143948929D01*
X107385715Y143948929D02*
X107100001Y143948929D01*
X107100001Y143948929D02*
X106957143Y144020358D01*
X106957143Y144020358D02*
X106885715Y144163215D01*
X106885715Y144163215D02*
X106885715Y144734643D01*
X106885715Y144734643D02*
X106957143Y144877500D01*
X106957143Y144877500D02*
X107100001Y144948929D01*
X107100001Y144948929D02*
X107385715Y144948929D01*
X107385715Y144948929D02*
X107528572Y144877500D01*
X107528572Y144877500D02*
X107600001Y144734643D01*
X107600001Y144734643D02*
X107600001Y144591786D01*
X107600001Y144591786D02*
X106885715Y144448929D01*
X108100000Y144948929D02*
X108457143Y143948929D01*
X108457143Y143948929D02*
X108814286Y144948929D01*
X109242857Y145448929D02*
X110171429Y145448929D01*
X110171429Y145448929D02*
X109671429Y144877500D01*
X109671429Y144877500D02*
X109885714Y144877500D01*
X109885714Y144877500D02*
X110028572Y144806072D01*
X110028572Y144806072D02*
X110100000Y144734643D01*
X110100000Y144734643D02*
X110171429Y144591786D01*
X110171429Y144591786D02*
X110171429Y144234643D01*
X110171429Y144234643D02*
X110100000Y144091786D01*
X110100000Y144091786D02*
X110028572Y144020358D01*
X110028572Y144020358D02*
X109885714Y143948929D01*
X109885714Y143948929D02*
X109457143Y143948929D01*
X109457143Y143948929D02*
X109314286Y144020358D01*
X109314286Y144020358D02*
X109242857Y144091786D01*
D11*
G36*
X16084068Y134329582D02*
G01*
X13270390Y134329582D01*
X13270390Y138956518D01*
X13585952Y138956518D01*
X13585952Y134642213D01*
X15770460Y134642213D01*
X15770460Y138956518D01*
X13585952Y138956518D01*
X13270390Y138956518D01*
X13270390Y139269149D01*
X16084068Y139269149D01*
X16084068Y134329582D01*
G37*
G36*
X35864068Y134329582D02*
G01*
X33050390Y134329582D01*
X33050390Y138956518D01*
X33365952Y138956518D01*
X33365952Y134642213D01*
X35550460Y134642213D01*
X35550460Y138956518D01*
X33365952Y138956518D01*
X33050390Y138956518D01*
X33050390Y139269149D01*
X35864068Y139269149D01*
X35864068Y134329582D01*
G37*
G36*
X55644068Y134329582D02*
G01*
X52830390Y134329582D01*
X52830390Y138956518D01*
X53145952Y138956518D01*
X53145952Y134642213D01*
X55330460Y134642213D01*
X55330460Y138956518D01*
X53145952Y138956518D01*
X52830390Y138956518D01*
X52830390Y139269149D01*
X55644068Y139269149D01*
X55644068Y134329582D01*
G37*
G36*
X75424068Y134329582D02*
G01*
X72610390Y134329582D01*
X72610390Y138956518D01*
X72925952Y138956518D01*
X72925952Y134642213D01*
X75110460Y134642213D01*
X75110460Y138956518D01*
X72925952Y138956518D01*
X72610390Y138956518D01*
X72610390Y139269149D01*
X75424068Y139269149D01*
X75424068Y134329582D01*
G37*
G36*
X95204068Y134329582D02*
G01*
X92390390Y134329582D01*
X92390390Y138956518D01*
X92705952Y138956518D01*
X92705952Y134642213D01*
X94890460Y134642213D01*
X94890460Y138956518D01*
X92705952Y138956518D01*
X92390390Y138956518D01*
X92390390Y139269149D01*
X95204068Y139269149D01*
X95204068Y134329582D01*
G37*
G36*
X114984068Y134329582D02*
G01*
X112170390Y134329582D01*
X112170390Y138956518D01*
X112485952Y138956518D01*
X112485952Y134642213D01*
X114670460Y134642213D01*
X114670460Y138956518D01*
X112485952Y138956518D01*
X112170390Y138956518D01*
X112170390Y139269149D01*
X114984068Y139269149D01*
X114984068Y134329582D01*
G37*
G36*
X134764068Y134329582D02*
G01*
X131950390Y134329582D01*
X131950390Y138956518D01*
X132265952Y138956518D01*
X132265952Y134642213D01*
X134450460Y134642213D01*
X134450460Y138956518D01*
X132265952Y138956518D01*
X131950390Y138956518D01*
X131950390Y139269149D01*
X134764068Y139269149D01*
X134764068Y134329582D01*
G37*
G36*
X154544068Y134329582D02*
G01*
X151730390Y134329582D01*
X151730390Y138956518D01*
X152045952Y138956518D01*
X152045952Y134642213D01*
X154230460Y134642213D01*
X154230460Y138956518D01*
X152045952Y138956518D01*
X151730390Y138956518D01*
X151730390Y139269149D01*
X154544068Y139269149D01*
X154544068Y134329582D01*
G37*
G36*
X174324068Y134329582D02*
G01*
X171510390Y134329582D01*
X171510390Y138956518D01*
X171825952Y138956518D01*
X171825952Y134642213D01*
X174010460Y134642213D01*
X174010460Y138956518D01*
X171825952Y138956518D01*
X171510390Y138956518D01*
X171510390Y139269149D01*
X174324068Y139269149D01*
X174324068Y134329582D01*
G37*
G36*
X194104068Y134329582D02*
G01*
X191290390Y134329582D01*
X191290390Y138956518D01*
X191605952Y138956518D01*
X191605952Y134642213D01*
X193790460Y134642213D01*
X193790460Y138956518D01*
X191605952Y138956518D01*
X191290390Y138956518D01*
X191290390Y139269149D01*
X194104068Y139269149D01*
X194104068Y134329582D01*
G37*
G36*
X16084068Y106329582D02*
G01*
X13270390Y106329582D01*
X13270390Y110956518D01*
X13585952Y110956518D01*
X13585952Y106642213D01*
X15770460Y106642213D01*
X15770460Y110956518D01*
X13585952Y110956518D01*
X13270390Y110956518D01*
X13270390Y111269149D01*
X16084068Y111269149D01*
X16084068Y106329582D01*
G37*
G36*
X35864068Y106329582D02*
G01*
X33050390Y106329582D01*
X33050390Y110956518D01*
X33365952Y110956518D01*
X33365952Y106642213D01*
X35550460Y106642213D01*
X35550460Y110956518D01*
X33365952Y110956518D01*
X33050390Y110956518D01*
X33050390Y111269149D01*
X35864068Y111269149D01*
X35864068Y106329582D01*
G37*
G36*
X55644068Y106329582D02*
G01*
X52830390Y106329582D01*
X52830390Y110956518D01*
X53145952Y110956518D01*
X53145952Y106642213D01*
X55330460Y106642213D01*
X55330460Y110956518D01*
X53145952Y110956518D01*
X52830390Y110956518D01*
X52830390Y111269149D01*
X55644068Y111269149D01*
X55644068Y106329582D01*
G37*
G36*
X75424068Y106329582D02*
G01*
X72610390Y106329582D01*
X72610390Y110956518D01*
X72925952Y110956518D01*
X72925952Y106642213D01*
X75110460Y106642213D01*
X75110460Y110956518D01*
X72925952Y110956518D01*
X72610390Y110956518D01*
X72610390Y111269149D01*
X75424068Y111269149D01*
X75424068Y106329582D01*
G37*
G36*
X95204068Y106329582D02*
G01*
X92390390Y106329582D01*
X92390390Y110956518D01*
X92705952Y110956518D01*
X92705952Y106642213D01*
X94890460Y106642213D01*
X94890460Y110956518D01*
X92705952Y110956518D01*
X92390390Y110956518D01*
X92390390Y111269149D01*
X95204068Y111269149D01*
X95204068Y106329582D01*
G37*
G36*
X114984068Y106329582D02*
G01*
X112170390Y106329582D01*
X112170390Y110956518D01*
X112485952Y110956518D01*
X112485952Y106642213D01*
X114670460Y106642213D01*
X114670460Y110956518D01*
X112485952Y110956518D01*
X112170390Y110956518D01*
X112170390Y111269149D01*
X114984068Y111269149D01*
X114984068Y106329582D01*
G37*
G36*
X134764068Y106329582D02*
G01*
X131950390Y106329582D01*
X131950390Y110956518D01*
X132265952Y110956518D01*
X132265952Y106642213D01*
X134450460Y106642213D01*
X134450460Y110956518D01*
X132265952Y110956518D01*
X131950390Y110956518D01*
X131950390Y111269149D01*
X134764068Y111269149D01*
X134764068Y106329582D01*
G37*
G36*
X154544068Y106329582D02*
G01*
X151730390Y106329582D01*
X151730390Y110956518D01*
X152045952Y110956518D01*
X152045952Y106642213D01*
X154230460Y106642213D01*
X154230460Y110956518D01*
X152045952Y110956518D01*
X151730390Y110956518D01*
X151730390Y111269149D01*
X154544068Y111269149D01*
X154544068Y106329582D01*
G37*
G36*
X174324068Y106329582D02*
G01*
X171510390Y106329582D01*
X171510390Y110956518D01*
X171825952Y110956518D01*
X171825952Y106642213D01*
X174010460Y106642213D01*
X174010460Y110956518D01*
X171825952Y110956518D01*
X171510390Y110956518D01*
X171510390Y111269149D01*
X174324068Y111269149D01*
X174324068Y106329582D01*
G37*
G36*
X194104068Y106329582D02*
G01*
X191290390Y106329582D01*
X191290390Y110956518D01*
X191605952Y110956518D01*
X191605952Y106642213D01*
X193790460Y106642213D01*
X193790460Y110956518D01*
X191605952Y110956518D01*
X191290390Y110956518D01*
X191290390Y111269149D01*
X194104068Y111269149D01*
X194104068Y106329582D01*
G37*
G36*
X16084068Y78329582D02*
G01*
X13270390Y78329582D01*
X13270390Y82956518D01*
X13585952Y82956518D01*
X13585952Y78642213D01*
X15770460Y78642213D01*
X15770460Y82956518D01*
X13585952Y82956518D01*
X13270390Y82956518D01*
X13270390Y83269149D01*
X16084068Y83269149D01*
X16084068Y78329582D01*
G37*
G36*
X35864068Y78329582D02*
G01*
X33050390Y78329582D01*
X33050390Y82956518D01*
X33365952Y82956518D01*
X33365952Y78642213D01*
X35550460Y78642213D01*
X35550460Y82956518D01*
X33365952Y82956518D01*
X33050390Y82956518D01*
X33050390Y83269149D01*
X35864068Y83269149D01*
X35864068Y78329582D01*
G37*
G36*
X55644068Y78329582D02*
G01*
X52830390Y78329582D01*
X52830390Y82956518D01*
X53145952Y82956518D01*
X53145952Y78642213D01*
X55330460Y78642213D01*
X55330460Y82956518D01*
X53145952Y82956518D01*
X52830390Y82956518D01*
X52830390Y83269149D01*
X55644068Y83269149D01*
X55644068Y78329582D01*
G37*
G36*
X75424068Y78329582D02*
G01*
X72610390Y78329582D01*
X72610390Y82956518D01*
X72925952Y82956518D01*
X72925952Y78642213D01*
X75110460Y78642213D01*
X75110460Y82956518D01*
X72925952Y82956518D01*
X72610390Y82956518D01*
X72610390Y83269149D01*
X75424068Y83269149D01*
X75424068Y78329582D01*
G37*
G36*
X95204068Y78329582D02*
G01*
X92390390Y78329582D01*
X92390390Y82956518D01*
X92705952Y82956518D01*
X92705952Y78642213D01*
X94890460Y78642213D01*
X94890460Y82956518D01*
X92705952Y82956518D01*
X92390390Y82956518D01*
X92390390Y83269149D01*
X95204068Y83269149D01*
X95204068Y78329582D01*
G37*
G36*
X114984068Y78329582D02*
G01*
X112170390Y78329582D01*
X112170390Y82956518D01*
X112485952Y82956518D01*
X112485952Y78642213D01*
X114670460Y78642213D01*
X114670460Y82956518D01*
X112485952Y82956518D01*
X112170390Y82956518D01*
X112170390Y83269149D01*
X114984068Y83269149D01*
X114984068Y78329582D01*
G37*
G36*
X134764068Y78329582D02*
G01*
X131950390Y78329582D01*
X131950390Y82956518D01*
X132265952Y82956518D01*
X132265952Y78642213D01*
X134450460Y78642213D01*
X134450460Y82956518D01*
X132265952Y82956518D01*
X131950390Y82956518D01*
X131950390Y83269149D01*
X134764068Y83269149D01*
X134764068Y78329582D01*
G37*
G36*
X154544068Y78329582D02*
G01*
X151730390Y78329582D01*
X151730390Y82956518D01*
X152045952Y82956518D01*
X152045952Y78642213D01*
X154230460Y78642213D01*
X154230460Y82956518D01*
X152045952Y82956518D01*
X151730390Y82956518D01*
X151730390Y83269149D01*
X154544068Y83269149D01*
X154544068Y78329582D01*
G37*
G36*
X174324068Y78329582D02*
G01*
X171510390Y78329582D01*
X171510390Y82956518D01*
X171825952Y82956518D01*
X171825952Y78642213D01*
X174010460Y78642213D01*
X174010460Y82956518D01*
X171825952Y82956518D01*
X171510390Y82956518D01*
X171510390Y83269149D01*
X174324068Y83269149D01*
X174324068Y78329582D01*
G37*
G36*
X194104068Y78329582D02*
G01*
X191290390Y78329582D01*
X191290390Y82956518D01*
X191605952Y82956518D01*
X191605952Y78642213D01*
X193790460Y78642213D01*
X193790460Y82956518D01*
X191605952Y82956518D01*
X191290390Y82956518D01*
X191290390Y83269149D01*
X194104068Y83269149D01*
X194104068Y78329582D01*
G37*
G36*
X16084068Y50329582D02*
G01*
X13270390Y50329582D01*
X13270390Y54956518D01*
X13585952Y54956518D01*
X13585952Y50642213D01*
X15770460Y50642213D01*
X15770460Y54956518D01*
X13585952Y54956518D01*
X13270390Y54956518D01*
X13270390Y55269149D01*
X16084068Y55269149D01*
X16084068Y50329582D01*
G37*
G36*
X35864068Y50329582D02*
G01*
X33050390Y50329582D01*
X33050390Y54956518D01*
X33365952Y54956518D01*
X33365952Y50642213D01*
X35550460Y50642213D01*
X35550460Y54956518D01*
X33365952Y54956518D01*
X33050390Y54956518D01*
X33050390Y55269149D01*
X35864068Y55269149D01*
X35864068Y50329582D01*
G37*
G36*
X55644068Y50329582D02*
G01*
X52830390Y50329582D01*
X52830390Y54956518D01*
X53145952Y54956518D01*
X53145952Y50642213D01*
X55330460Y50642213D01*
X55330460Y54956518D01*
X53145952Y54956518D01*
X52830390Y54956518D01*
X52830390Y55269149D01*
X55644068Y55269149D01*
X55644068Y50329582D01*
G37*
G36*
X75424068Y50329582D02*
G01*
X72610390Y50329582D01*
X72610390Y54956518D01*
X72925952Y54956518D01*
X72925952Y50642213D01*
X75110460Y50642213D01*
X75110460Y54956518D01*
X72925952Y54956518D01*
X72610390Y54956518D01*
X72610390Y55269149D01*
X75424068Y55269149D01*
X75424068Y50329582D01*
G37*
G36*
X95204068Y50329582D02*
G01*
X92390390Y50329582D01*
X92390390Y54956518D01*
X92705952Y54956518D01*
X92705952Y50642213D01*
X94890460Y50642213D01*
X94890460Y54956518D01*
X92705952Y54956518D01*
X92390390Y54956518D01*
X92390390Y55269149D01*
X95204068Y55269149D01*
X95204068Y50329582D01*
G37*
G36*
X114984068Y50329582D02*
G01*
X112170390Y50329582D01*
X112170390Y54956518D01*
X112485952Y54956518D01*
X112485952Y50642213D01*
X114670460Y50642213D01*
X114670460Y54956518D01*
X112485952Y54956518D01*
X112170390Y54956518D01*
X112170390Y55269149D01*
X114984068Y55269149D01*
X114984068Y50329582D01*
G37*
G36*
X134764068Y50329582D02*
G01*
X131950390Y50329582D01*
X131950390Y54956518D01*
X132265952Y54956518D01*
X132265952Y50642213D01*
X134450460Y50642213D01*
X134450460Y54956518D01*
X132265952Y54956518D01*
X131950390Y54956518D01*
X131950390Y55269149D01*
X134764068Y55269149D01*
X134764068Y50329582D01*
G37*
G36*
X154544068Y50329582D02*
G01*
X151730390Y50329582D01*
X151730390Y54956518D01*
X152045952Y54956518D01*
X152045952Y50642213D01*
X154230460Y50642213D01*
X154230460Y54956518D01*
X152045952Y54956518D01*
X151730390Y54956518D01*
X151730390Y55269149D01*
X154544068Y55269149D01*
X154544068Y50329582D01*
G37*
G36*
X174324068Y50329582D02*
G01*
X171510390Y50329582D01*
X171510390Y54956518D01*
X171825952Y54956518D01*
X171825952Y50642213D01*
X174010460Y50642213D01*
X174010460Y54956518D01*
X171825952Y54956518D01*
X171510390Y54956518D01*
X171510390Y55269149D01*
X174324068Y55269149D01*
X174324068Y50329582D01*
G37*
G36*
X194104068Y50329582D02*
G01*
X191290390Y50329582D01*
X191290390Y54956518D01*
X191605952Y54956518D01*
X191605952Y50642213D01*
X193790460Y50642213D01*
X193790460Y54956518D01*
X191605952Y54956518D01*
X191290390Y54956518D01*
X191290390Y55269149D01*
X194104068Y55269149D01*
X194104068Y50329582D01*
G37*
G36*
X16084068Y22329582D02*
G01*
X13270390Y22329582D01*
X13270390Y26956518D01*
X13585952Y26956518D01*
X13585952Y22642213D01*
X15770460Y22642213D01*
X15770460Y26956518D01*
X13585952Y26956518D01*
X13270390Y26956518D01*
X13270390Y27269149D01*
X16084068Y27269149D01*
X16084068Y22329582D01*
G37*
G36*
X35864068Y22329582D02*
G01*
X33050390Y22329582D01*
X33050390Y26956518D01*
X33365952Y26956518D01*
X33365952Y22642213D01*
X35550460Y22642213D01*
X35550460Y26956518D01*
X33365952Y26956518D01*
X33050390Y26956518D01*
X33050390Y27269149D01*
X35864068Y27269149D01*
X35864068Y22329582D01*
G37*
G36*
X55644068Y22329582D02*
G01*
X52830390Y22329582D01*
X52830390Y26956518D01*
X53145952Y26956518D01*
X53145952Y22642213D01*
X55330460Y22642213D01*
X55330460Y26956518D01*
X53145952Y26956518D01*
X52830390Y26956518D01*
X52830390Y27269149D01*
X55644068Y27269149D01*
X55644068Y22329582D01*
G37*
G36*
X75424068Y22329582D02*
G01*
X72610390Y22329582D01*
X72610390Y26956518D01*
X72925952Y26956518D01*
X72925952Y22642213D01*
X75110460Y22642213D01*
X75110460Y26956518D01*
X72925952Y26956518D01*
X72610390Y26956518D01*
X72610390Y27269149D01*
X75424068Y27269149D01*
X75424068Y22329582D01*
G37*
G36*
X95204068Y22329582D02*
G01*
X92390390Y22329582D01*
X92390390Y26956518D01*
X92705952Y26956518D01*
X92705952Y22642213D01*
X94890460Y22642213D01*
X94890460Y26956518D01*
X92705952Y26956518D01*
X92390390Y26956518D01*
X92390390Y27269149D01*
X95204068Y27269149D01*
X95204068Y22329582D01*
G37*
G36*
X114984068Y22329582D02*
G01*
X112170390Y22329582D01*
X112170390Y26956518D01*
X112485952Y26956518D01*
X112485952Y22642213D01*
X114670460Y22642213D01*
X114670460Y26956518D01*
X112485952Y26956518D01*
X112170390Y26956518D01*
X112170390Y27269149D01*
X114984068Y27269149D01*
X114984068Y22329582D01*
G37*
G36*
X134764068Y22329582D02*
G01*
X131950390Y22329582D01*
X131950390Y26956518D01*
X132265952Y26956518D01*
X132265952Y22642213D01*
X134450460Y22642213D01*
X134450460Y26956518D01*
X132265952Y26956518D01*
X131950390Y26956518D01*
X131950390Y27269149D01*
X134764068Y27269149D01*
X134764068Y22329582D01*
G37*
G36*
X154544068Y22329582D02*
G01*
X151730390Y22329582D01*
X151730390Y26956518D01*
X152045952Y26956518D01*
X152045952Y22642213D01*
X154230460Y22642213D01*
X154230460Y26956518D01*
X152045952Y26956518D01*
X151730390Y26956518D01*
X151730390Y27269149D01*
X154544068Y27269149D01*
X154544068Y22329582D01*
G37*
G36*
X174324068Y22329582D02*
G01*
X171510390Y22329582D01*
X171510390Y26956518D01*
X171825952Y26956518D01*
X171825952Y22642213D01*
X174010460Y22642213D01*
X174010460Y26956518D01*
X171825952Y26956518D01*
X171510390Y26956518D01*
X171510390Y27269149D01*
X174324068Y27269149D01*
X174324068Y22329582D01*
G37*
G36*
X194104068Y22329582D02*
G01*
X191290390Y22329582D01*
X191290390Y26956518D01*
X191605952Y26956518D01*
X191605952Y22642213D01*
X193790460Y22642213D01*
X193790460Y26956518D01*
X191605952Y26956518D01*
X191290390Y26956518D01*
X191290390Y27269149D01*
X194104068Y27269149D01*
X194104068Y22329582D01*
G37*
M02*
