G04 #@! TF.GenerationSoftware,KiCad,Pcbnew,7.0.0-da2b9df05c~165~ubuntu22.04.1*
G04 #@! TF.CreationDate,2023-12-10T21:50:17+00:00*
G04 #@! TF.ProjectId,kicad_miao-panel,6b696361-645f-46d6-9961-6f2d70616e65,rev?*
G04 #@! TF.SameCoordinates,Original*
G04 #@! TF.FileFunction,Legend,Bot*
G04 #@! TF.FilePolarity,Positive*
%FSLAX46Y46*%
G04 Gerber Fmt 4.6, Leading zero omitted, Abs format (unit mm)*
G04 Created by KiCad (PCBNEW 7.0.0-da2b9df05c~165~ubuntu22.04.1) date 2023-12-10 21:50:17*
%MOMM*%
%LPD*%
G01*
G04 APERTURE LIST*
%ADD10C,0.000000*%
%ADD11C,0.150000*%
G04 APERTURE END LIST*
D10*
G36*
X19845413Y124866163D02*
G01*
X19845406Y124863205D01*
X19844418Y124442959D01*
X19634431Y124442959D01*
X19634431Y124232972D01*
X19422958Y124231486D01*
X19421493Y124021447D01*
X19421473Y124018515D01*
X19210000Y124020000D01*
X19211485Y123810026D01*
X17729664Y123805556D01*
X17728178Y124017029D01*
X17515220Y124020000D01*
X17513727Y124229200D01*
X17942261Y124229200D01*
X17943010Y124020698D01*
X18151498Y124021447D01*
X18150762Y124229200D01*
X18150762Y124229949D01*
X17942261Y124229200D01*
X17513727Y124229200D01*
X17513721Y124229988D01*
X17305232Y124231486D01*
X17303737Y124444083D01*
X18575284Y124444083D01*
X18998088Y124444083D01*
X18998088Y124863205D01*
X18786951Y124863205D01*
X18786951Y124652585D01*
X18575284Y124652585D01*
X18575284Y124444083D01*
X17303737Y124444083D01*
X17303734Y124444445D01*
X17092261Y124444445D01*
X17092261Y124447042D01*
X17521240Y124447042D01*
X17944056Y124447042D01*
X17944056Y124866163D01*
X17732907Y124866163D01*
X17732907Y124655543D01*
X17521240Y124655543D01*
X17521240Y124447042D01*
X17092261Y124447042D01*
X17092261Y125077378D01*
X17302248Y125078876D01*
X17303734Y125503308D01*
X17512235Y125501822D01*
X17515220Y126136254D01*
X17728178Y126133269D01*
X17728178Y125923282D01*
X17944121Y125926266D01*
X17942635Y125714794D01*
X18997028Y125713295D01*
X18998527Y125924768D01*
X19208501Y125926266D01*
X19207015Y126139225D01*
X19424457Y126136254D01*
X19424457Y125501822D01*
X19635930Y125500336D01*
X19635930Y125078876D01*
X19845917Y125080362D01*
X19845413Y124866163D01*
G37*
G36*
X39625413Y124866163D02*
G01*
X39625406Y124863205D01*
X39624418Y124442959D01*
X39414431Y124442959D01*
X39414431Y124232972D01*
X39202958Y124231486D01*
X39201493Y124021447D01*
X39201473Y124018515D01*
X38990000Y124020000D01*
X38991485Y123810026D01*
X37509664Y123805556D01*
X37508178Y124017029D01*
X37295220Y124020000D01*
X37293727Y124229200D01*
X37722261Y124229200D01*
X37723010Y124020698D01*
X37931498Y124021447D01*
X37930762Y124229200D01*
X37930762Y124229949D01*
X37722261Y124229200D01*
X37293727Y124229200D01*
X37293721Y124229988D01*
X37085232Y124231486D01*
X37083737Y124444083D01*
X38355284Y124444083D01*
X38778088Y124444083D01*
X38778088Y124863205D01*
X38566951Y124863205D01*
X38566951Y124652585D01*
X38355284Y124652585D01*
X38355284Y124444083D01*
X37083737Y124444083D01*
X37083734Y124444445D01*
X36872261Y124444445D01*
X36872261Y124447042D01*
X37301240Y124447042D01*
X37724056Y124447042D01*
X37724056Y124866163D01*
X37512907Y124866163D01*
X37512907Y124655543D01*
X37301240Y124655543D01*
X37301240Y124447042D01*
X36872261Y124447042D01*
X36872261Y125077378D01*
X37082248Y125078876D01*
X37083734Y125503308D01*
X37292235Y125501822D01*
X37295220Y126136254D01*
X37508178Y126133269D01*
X37508178Y125923282D01*
X37724121Y125926266D01*
X37722635Y125714794D01*
X38777028Y125713295D01*
X38778527Y125924768D01*
X38988501Y125926266D01*
X38987015Y126139225D01*
X39204457Y126136254D01*
X39204457Y125501822D01*
X39415930Y125500336D01*
X39415930Y125078876D01*
X39625917Y125080362D01*
X39625413Y124866163D01*
G37*
G36*
X59405413Y124866163D02*
G01*
X59405406Y124863205D01*
X59404418Y124442959D01*
X59194431Y124442959D01*
X59194431Y124232972D01*
X58982958Y124231486D01*
X58981493Y124021447D01*
X58981473Y124018515D01*
X58770000Y124020000D01*
X58771485Y123810026D01*
X57289664Y123805556D01*
X57288178Y124017029D01*
X57075220Y124020000D01*
X57073727Y124229200D01*
X57502261Y124229200D01*
X57503010Y124020698D01*
X57711498Y124021447D01*
X57710762Y124229200D01*
X57710762Y124229949D01*
X57502261Y124229200D01*
X57073727Y124229200D01*
X57073721Y124229988D01*
X56865232Y124231486D01*
X56863737Y124444083D01*
X58135284Y124444083D01*
X58558088Y124444083D01*
X58558088Y124863205D01*
X58346951Y124863205D01*
X58346951Y124652585D01*
X58135284Y124652585D01*
X58135284Y124444083D01*
X56863737Y124444083D01*
X56863734Y124444445D01*
X56652261Y124444445D01*
X56652261Y124447042D01*
X57081240Y124447042D01*
X57504056Y124447042D01*
X57504056Y124866163D01*
X57292907Y124866163D01*
X57292907Y124655543D01*
X57081240Y124655543D01*
X57081240Y124447042D01*
X56652261Y124447042D01*
X56652261Y125077378D01*
X56862248Y125078876D01*
X56863734Y125503308D01*
X57072235Y125501822D01*
X57075220Y126136254D01*
X57288178Y126133269D01*
X57288178Y125923282D01*
X57504121Y125926266D01*
X57502635Y125714794D01*
X58557028Y125713295D01*
X58558527Y125924768D01*
X58768501Y125926266D01*
X58767015Y126139225D01*
X58984457Y126136254D01*
X58984457Y125501822D01*
X59195930Y125500336D01*
X59195930Y125078876D01*
X59405917Y125080362D01*
X59405413Y124866163D01*
G37*
G36*
X79185413Y124866163D02*
G01*
X79185406Y124863205D01*
X79184418Y124442959D01*
X78974431Y124442959D01*
X78974431Y124232972D01*
X78762958Y124231486D01*
X78761493Y124021447D01*
X78761473Y124018515D01*
X78550000Y124020000D01*
X78551485Y123810026D01*
X77069664Y123805556D01*
X77068178Y124017029D01*
X76855220Y124020000D01*
X76853727Y124229200D01*
X77282261Y124229200D01*
X77283010Y124020698D01*
X77491498Y124021447D01*
X77490762Y124229200D01*
X77490762Y124229949D01*
X77282261Y124229200D01*
X76853727Y124229200D01*
X76853721Y124229988D01*
X76645232Y124231486D01*
X76643737Y124444083D01*
X77915284Y124444083D01*
X78338088Y124444083D01*
X78338088Y124863205D01*
X78126951Y124863205D01*
X78126951Y124652585D01*
X77915284Y124652585D01*
X77915284Y124444083D01*
X76643737Y124444083D01*
X76643734Y124444445D01*
X76432261Y124444445D01*
X76432261Y124447042D01*
X76861240Y124447042D01*
X77284056Y124447042D01*
X77284056Y124866163D01*
X77072907Y124866163D01*
X77072907Y124655543D01*
X76861240Y124655543D01*
X76861240Y124447042D01*
X76432261Y124447042D01*
X76432261Y125077378D01*
X76642248Y125078876D01*
X76643734Y125503308D01*
X76852235Y125501822D01*
X76855220Y126136254D01*
X77068178Y126133269D01*
X77068178Y125923282D01*
X77284121Y125926266D01*
X77282635Y125714794D01*
X78337028Y125713295D01*
X78338527Y125924768D01*
X78548501Y125926266D01*
X78547015Y126139225D01*
X78764457Y126136254D01*
X78764457Y125501822D01*
X78975930Y125500336D01*
X78975930Y125078876D01*
X79185917Y125080362D01*
X79185413Y124866163D01*
G37*
G36*
X98965413Y124866163D02*
G01*
X98965406Y124863205D01*
X98964418Y124442959D01*
X98754431Y124442959D01*
X98754431Y124232972D01*
X98542958Y124231486D01*
X98541493Y124021447D01*
X98541473Y124018515D01*
X98330000Y124020000D01*
X98331485Y123810026D01*
X96849664Y123805556D01*
X96848178Y124017029D01*
X96635220Y124020000D01*
X96633727Y124229200D01*
X97062261Y124229200D01*
X97063010Y124020698D01*
X97271498Y124021447D01*
X97270762Y124229200D01*
X97270762Y124229949D01*
X97062261Y124229200D01*
X96633727Y124229200D01*
X96633721Y124229988D01*
X96425232Y124231486D01*
X96423737Y124444083D01*
X97695284Y124444083D01*
X98118088Y124444083D01*
X98118088Y124863205D01*
X97906951Y124863205D01*
X97906951Y124652585D01*
X97695284Y124652585D01*
X97695284Y124444083D01*
X96423737Y124444083D01*
X96423734Y124444445D01*
X96212261Y124444445D01*
X96212261Y124447042D01*
X96641240Y124447042D01*
X97064056Y124447042D01*
X97064056Y124866163D01*
X96852907Y124866163D01*
X96852907Y124655543D01*
X96641240Y124655543D01*
X96641240Y124447042D01*
X96212261Y124447042D01*
X96212261Y125077378D01*
X96422248Y125078876D01*
X96423734Y125503308D01*
X96632235Y125501822D01*
X96635220Y126136254D01*
X96848178Y126133269D01*
X96848178Y125923282D01*
X97064121Y125926266D01*
X97062635Y125714794D01*
X98117028Y125713295D01*
X98118527Y125924768D01*
X98328501Y125926266D01*
X98327015Y126139225D01*
X98544457Y126136254D01*
X98544457Y125501822D01*
X98755930Y125500336D01*
X98755930Y125078876D01*
X98965917Y125080362D01*
X98965413Y124866163D01*
G37*
G36*
X118745413Y124866163D02*
G01*
X118745406Y124863205D01*
X118744418Y124442959D01*
X118534431Y124442959D01*
X118534431Y124232972D01*
X118322958Y124231486D01*
X118321493Y124021447D01*
X118321473Y124018515D01*
X118110000Y124020000D01*
X118111485Y123810026D01*
X116629664Y123805556D01*
X116628178Y124017029D01*
X116415220Y124020000D01*
X116413727Y124229200D01*
X116842261Y124229200D01*
X116843010Y124020698D01*
X117051498Y124021447D01*
X117050762Y124229200D01*
X117050762Y124229949D01*
X116842261Y124229200D01*
X116413727Y124229200D01*
X116413721Y124229988D01*
X116205232Y124231486D01*
X116203737Y124444083D01*
X117475284Y124444083D01*
X117898088Y124444083D01*
X117898088Y124863205D01*
X117686951Y124863205D01*
X117686951Y124652585D01*
X117475284Y124652585D01*
X117475284Y124444083D01*
X116203737Y124444083D01*
X116203734Y124444445D01*
X115992261Y124444445D01*
X115992261Y124447042D01*
X116421240Y124447042D01*
X116844056Y124447042D01*
X116844056Y124866163D01*
X116632907Y124866163D01*
X116632907Y124655543D01*
X116421240Y124655543D01*
X116421240Y124447042D01*
X115992261Y124447042D01*
X115992261Y125077378D01*
X116202248Y125078876D01*
X116203734Y125503308D01*
X116412235Y125501822D01*
X116415220Y126136254D01*
X116628178Y126133269D01*
X116628178Y125923282D01*
X116844121Y125926266D01*
X116842635Y125714794D01*
X117897028Y125713295D01*
X117898527Y125924768D01*
X118108501Y125926266D01*
X118107015Y126139225D01*
X118324457Y126136254D01*
X118324457Y125501822D01*
X118535930Y125500336D01*
X118535930Y125078876D01*
X118745917Y125080362D01*
X118745413Y124866163D01*
G37*
G36*
X138525413Y124866163D02*
G01*
X138525406Y124863205D01*
X138524418Y124442959D01*
X138314431Y124442959D01*
X138314431Y124232972D01*
X138102958Y124231486D01*
X138101493Y124021447D01*
X138101473Y124018515D01*
X137890000Y124020000D01*
X137891485Y123810026D01*
X136409664Y123805556D01*
X136408178Y124017029D01*
X136195220Y124020000D01*
X136193727Y124229200D01*
X136622261Y124229200D01*
X136623010Y124020698D01*
X136831498Y124021447D01*
X136830762Y124229200D01*
X136830762Y124229949D01*
X136622261Y124229200D01*
X136193727Y124229200D01*
X136193721Y124229988D01*
X135985232Y124231486D01*
X135983737Y124444083D01*
X137255284Y124444083D01*
X137678088Y124444083D01*
X137678088Y124863205D01*
X137466951Y124863205D01*
X137466951Y124652585D01*
X137255284Y124652585D01*
X137255284Y124444083D01*
X135983737Y124444083D01*
X135983734Y124444445D01*
X135772261Y124444445D01*
X135772261Y124447042D01*
X136201240Y124447042D01*
X136624056Y124447042D01*
X136624056Y124866163D01*
X136412907Y124866163D01*
X136412907Y124655543D01*
X136201240Y124655543D01*
X136201240Y124447042D01*
X135772261Y124447042D01*
X135772261Y125077378D01*
X135982248Y125078876D01*
X135983734Y125503308D01*
X136192235Y125501822D01*
X136195220Y126136254D01*
X136408178Y126133269D01*
X136408178Y125923282D01*
X136624121Y125926266D01*
X136622635Y125714794D01*
X137677028Y125713295D01*
X137678527Y125924768D01*
X137888501Y125926266D01*
X137887015Y126139225D01*
X138104457Y126136254D01*
X138104457Y125501822D01*
X138315930Y125500336D01*
X138315930Y125078876D01*
X138525917Y125080362D01*
X138525413Y124866163D01*
G37*
G36*
X158305413Y124866163D02*
G01*
X158305406Y124863205D01*
X158304418Y124442959D01*
X158094431Y124442959D01*
X158094431Y124232972D01*
X157882958Y124231486D01*
X157881493Y124021447D01*
X157881473Y124018515D01*
X157670000Y124020000D01*
X157671485Y123810026D01*
X156189664Y123805556D01*
X156188178Y124017029D01*
X155975220Y124020000D01*
X155973727Y124229200D01*
X156402261Y124229200D01*
X156403010Y124020698D01*
X156611498Y124021447D01*
X156610762Y124229200D01*
X156610762Y124229949D01*
X156402261Y124229200D01*
X155973727Y124229200D01*
X155973721Y124229988D01*
X155765232Y124231486D01*
X155763737Y124444083D01*
X157035284Y124444083D01*
X157458088Y124444083D01*
X157458088Y124863205D01*
X157246951Y124863205D01*
X157246951Y124652585D01*
X157035284Y124652585D01*
X157035284Y124444083D01*
X155763737Y124444083D01*
X155763734Y124444445D01*
X155552261Y124444445D01*
X155552261Y124447042D01*
X155981240Y124447042D01*
X156404056Y124447042D01*
X156404056Y124866163D01*
X156192907Y124866163D01*
X156192907Y124655543D01*
X155981240Y124655543D01*
X155981240Y124447042D01*
X155552261Y124447042D01*
X155552261Y125077378D01*
X155762248Y125078876D01*
X155763734Y125503308D01*
X155972235Y125501822D01*
X155975220Y126136254D01*
X156188178Y126133269D01*
X156188178Y125923282D01*
X156404121Y125926266D01*
X156402635Y125714794D01*
X157457028Y125713295D01*
X157458527Y125924768D01*
X157668501Y125926266D01*
X157667015Y126139225D01*
X157884457Y126136254D01*
X157884457Y125501822D01*
X158095930Y125500336D01*
X158095930Y125078876D01*
X158305917Y125080362D01*
X158305413Y124866163D01*
G37*
G36*
X178085413Y124866163D02*
G01*
X178085406Y124863205D01*
X178084418Y124442959D01*
X177874431Y124442959D01*
X177874431Y124232972D01*
X177662958Y124231486D01*
X177661493Y124021447D01*
X177661473Y124018515D01*
X177450000Y124020000D01*
X177451485Y123810026D01*
X175969664Y123805556D01*
X175968178Y124017029D01*
X175755220Y124020000D01*
X175753727Y124229200D01*
X176182261Y124229200D01*
X176183010Y124020698D01*
X176391498Y124021447D01*
X176390762Y124229200D01*
X176390762Y124229949D01*
X176182261Y124229200D01*
X175753727Y124229200D01*
X175753721Y124229988D01*
X175545232Y124231486D01*
X175543737Y124444083D01*
X176815284Y124444083D01*
X177238088Y124444083D01*
X177238088Y124863205D01*
X177026951Y124863205D01*
X177026951Y124652585D01*
X176815284Y124652585D01*
X176815284Y124444083D01*
X175543737Y124444083D01*
X175543734Y124444445D01*
X175332261Y124444445D01*
X175332261Y124447042D01*
X175761240Y124447042D01*
X176184056Y124447042D01*
X176184056Y124866163D01*
X175972907Y124866163D01*
X175972907Y124655543D01*
X175761240Y124655543D01*
X175761240Y124447042D01*
X175332261Y124447042D01*
X175332261Y125077378D01*
X175542248Y125078876D01*
X175543734Y125503308D01*
X175752235Y125501822D01*
X175755220Y126136254D01*
X175968178Y126133269D01*
X175968178Y125923282D01*
X176184121Y125926266D01*
X176182635Y125714794D01*
X177237028Y125713295D01*
X177238527Y125924768D01*
X177448501Y125926266D01*
X177447015Y126139225D01*
X177664457Y126136254D01*
X177664457Y125501822D01*
X177875930Y125500336D01*
X177875930Y125078876D01*
X178085917Y125080362D01*
X178085413Y124866163D01*
G37*
G36*
X197865413Y124866163D02*
G01*
X197865406Y124863205D01*
X197864418Y124442959D01*
X197654431Y124442959D01*
X197654431Y124232972D01*
X197442958Y124231486D01*
X197441493Y124021447D01*
X197441473Y124018515D01*
X197230000Y124020000D01*
X197231485Y123810026D01*
X195749664Y123805556D01*
X195748178Y124017029D01*
X195535220Y124020000D01*
X195533727Y124229200D01*
X195962261Y124229200D01*
X195963010Y124020698D01*
X196171498Y124021447D01*
X196170762Y124229200D01*
X196170762Y124229949D01*
X195962261Y124229200D01*
X195533727Y124229200D01*
X195533721Y124229988D01*
X195325232Y124231486D01*
X195323737Y124444083D01*
X196595284Y124444083D01*
X197018088Y124444083D01*
X197018088Y124863205D01*
X196806951Y124863205D01*
X196806951Y124652585D01*
X196595284Y124652585D01*
X196595284Y124444083D01*
X195323737Y124444083D01*
X195323734Y124444445D01*
X195112261Y124444445D01*
X195112261Y124447042D01*
X195541240Y124447042D01*
X195964056Y124447042D01*
X195964056Y124866163D01*
X195752907Y124866163D01*
X195752907Y124655543D01*
X195541240Y124655543D01*
X195541240Y124447042D01*
X195112261Y124447042D01*
X195112261Y125077378D01*
X195322248Y125078876D01*
X195323734Y125503308D01*
X195532235Y125501822D01*
X195535220Y126136254D01*
X195748178Y126133269D01*
X195748178Y125923282D01*
X195964121Y125926266D01*
X195962635Y125714794D01*
X197017028Y125713295D01*
X197018527Y125924768D01*
X197228501Y125926266D01*
X197227015Y126139225D01*
X197444457Y126136254D01*
X197444457Y125501822D01*
X197655930Y125500336D01*
X197655930Y125078876D01*
X197865917Y125080362D01*
X197865413Y124866163D01*
G37*
G36*
X19845413Y96866163D02*
G01*
X19845406Y96863205D01*
X19844418Y96442959D01*
X19634431Y96442959D01*
X19634431Y96232972D01*
X19422958Y96231486D01*
X19421493Y96021447D01*
X19421473Y96018515D01*
X19210000Y96020000D01*
X19211485Y95810026D01*
X17729664Y95805556D01*
X17728178Y96017029D01*
X17515220Y96020000D01*
X17513727Y96229200D01*
X17942261Y96229200D01*
X17943010Y96020698D01*
X18151498Y96021447D01*
X18150762Y96229200D01*
X18150762Y96229949D01*
X17942261Y96229200D01*
X17513727Y96229200D01*
X17513721Y96229988D01*
X17305232Y96231486D01*
X17303737Y96444083D01*
X18575284Y96444083D01*
X18998088Y96444083D01*
X18998088Y96863205D01*
X18786951Y96863205D01*
X18786951Y96652585D01*
X18575284Y96652585D01*
X18575284Y96444083D01*
X17303737Y96444083D01*
X17303734Y96444445D01*
X17092261Y96444445D01*
X17092261Y96447042D01*
X17521240Y96447042D01*
X17944056Y96447042D01*
X17944056Y96866163D01*
X17732907Y96866163D01*
X17732907Y96655543D01*
X17521240Y96655543D01*
X17521240Y96447042D01*
X17092261Y96447042D01*
X17092261Y97077378D01*
X17302248Y97078876D01*
X17303734Y97503308D01*
X17512235Y97501822D01*
X17515220Y98136254D01*
X17728178Y98133269D01*
X17728178Y97923282D01*
X17944121Y97926266D01*
X17942635Y97714794D01*
X18997028Y97713295D01*
X18998527Y97924768D01*
X19208501Y97926266D01*
X19207015Y98139225D01*
X19424457Y98136254D01*
X19424457Y97501822D01*
X19635930Y97500336D01*
X19635930Y97078876D01*
X19845917Y97080362D01*
X19845413Y96866163D01*
G37*
G36*
X39625413Y96866163D02*
G01*
X39625406Y96863205D01*
X39624418Y96442959D01*
X39414431Y96442959D01*
X39414431Y96232972D01*
X39202958Y96231486D01*
X39201493Y96021447D01*
X39201473Y96018515D01*
X38990000Y96020000D01*
X38991485Y95810026D01*
X37509664Y95805556D01*
X37508178Y96017029D01*
X37295220Y96020000D01*
X37293727Y96229200D01*
X37722261Y96229200D01*
X37723010Y96020698D01*
X37931498Y96021447D01*
X37930762Y96229200D01*
X37930762Y96229949D01*
X37722261Y96229200D01*
X37293727Y96229200D01*
X37293721Y96229988D01*
X37085232Y96231486D01*
X37083737Y96444083D01*
X38355284Y96444083D01*
X38778088Y96444083D01*
X38778088Y96863205D01*
X38566951Y96863205D01*
X38566951Y96652585D01*
X38355284Y96652585D01*
X38355284Y96444083D01*
X37083737Y96444083D01*
X37083734Y96444445D01*
X36872261Y96444445D01*
X36872261Y96447042D01*
X37301240Y96447042D01*
X37724056Y96447042D01*
X37724056Y96866163D01*
X37512907Y96866163D01*
X37512907Y96655543D01*
X37301240Y96655543D01*
X37301240Y96447042D01*
X36872261Y96447042D01*
X36872261Y97077378D01*
X37082248Y97078876D01*
X37083734Y97503308D01*
X37292235Y97501822D01*
X37295220Y98136254D01*
X37508178Y98133269D01*
X37508178Y97923282D01*
X37724121Y97926266D01*
X37722635Y97714794D01*
X38777028Y97713295D01*
X38778527Y97924768D01*
X38988501Y97926266D01*
X38987015Y98139225D01*
X39204457Y98136254D01*
X39204457Y97501822D01*
X39415930Y97500336D01*
X39415930Y97078876D01*
X39625917Y97080362D01*
X39625413Y96866163D01*
G37*
G36*
X59405413Y96866163D02*
G01*
X59405406Y96863205D01*
X59404418Y96442959D01*
X59194431Y96442959D01*
X59194431Y96232972D01*
X58982958Y96231486D01*
X58981493Y96021447D01*
X58981473Y96018515D01*
X58770000Y96020000D01*
X58771485Y95810026D01*
X57289664Y95805556D01*
X57288178Y96017029D01*
X57075220Y96020000D01*
X57073727Y96229200D01*
X57502261Y96229200D01*
X57503010Y96020698D01*
X57711498Y96021447D01*
X57710762Y96229200D01*
X57710762Y96229949D01*
X57502261Y96229200D01*
X57073727Y96229200D01*
X57073721Y96229988D01*
X56865232Y96231486D01*
X56863737Y96444083D01*
X58135284Y96444083D01*
X58558088Y96444083D01*
X58558088Y96863205D01*
X58346951Y96863205D01*
X58346951Y96652585D01*
X58135284Y96652585D01*
X58135284Y96444083D01*
X56863737Y96444083D01*
X56863734Y96444445D01*
X56652261Y96444445D01*
X56652261Y96447042D01*
X57081240Y96447042D01*
X57504056Y96447042D01*
X57504056Y96866163D01*
X57292907Y96866163D01*
X57292907Y96655543D01*
X57081240Y96655543D01*
X57081240Y96447042D01*
X56652261Y96447042D01*
X56652261Y97077378D01*
X56862248Y97078876D01*
X56863734Y97503308D01*
X57072235Y97501822D01*
X57075220Y98136254D01*
X57288178Y98133269D01*
X57288178Y97923282D01*
X57504121Y97926266D01*
X57502635Y97714794D01*
X58557028Y97713295D01*
X58558527Y97924768D01*
X58768501Y97926266D01*
X58767015Y98139225D01*
X58984457Y98136254D01*
X58984457Y97501822D01*
X59195930Y97500336D01*
X59195930Y97078876D01*
X59405917Y97080362D01*
X59405413Y96866163D01*
G37*
G36*
X79185413Y96866163D02*
G01*
X79185406Y96863205D01*
X79184418Y96442959D01*
X78974431Y96442959D01*
X78974431Y96232972D01*
X78762958Y96231486D01*
X78761493Y96021447D01*
X78761473Y96018515D01*
X78550000Y96020000D01*
X78551485Y95810026D01*
X77069664Y95805556D01*
X77068178Y96017029D01*
X76855220Y96020000D01*
X76853727Y96229200D01*
X77282261Y96229200D01*
X77283010Y96020698D01*
X77491498Y96021447D01*
X77490762Y96229200D01*
X77490762Y96229949D01*
X77282261Y96229200D01*
X76853727Y96229200D01*
X76853721Y96229988D01*
X76645232Y96231486D01*
X76643737Y96444083D01*
X77915284Y96444083D01*
X78338088Y96444083D01*
X78338088Y96863205D01*
X78126951Y96863205D01*
X78126951Y96652585D01*
X77915284Y96652585D01*
X77915284Y96444083D01*
X76643737Y96444083D01*
X76643734Y96444445D01*
X76432261Y96444445D01*
X76432261Y96447042D01*
X76861240Y96447042D01*
X77284056Y96447042D01*
X77284056Y96866163D01*
X77072907Y96866163D01*
X77072907Y96655543D01*
X76861240Y96655543D01*
X76861240Y96447042D01*
X76432261Y96447042D01*
X76432261Y97077378D01*
X76642248Y97078876D01*
X76643734Y97503308D01*
X76852235Y97501822D01*
X76855220Y98136254D01*
X77068178Y98133269D01*
X77068178Y97923282D01*
X77284121Y97926266D01*
X77282635Y97714794D01*
X78337028Y97713295D01*
X78338527Y97924768D01*
X78548501Y97926266D01*
X78547015Y98139225D01*
X78764457Y98136254D01*
X78764457Y97501822D01*
X78975930Y97500336D01*
X78975930Y97078876D01*
X79185917Y97080362D01*
X79185413Y96866163D01*
G37*
G36*
X98965413Y96866163D02*
G01*
X98965406Y96863205D01*
X98964418Y96442959D01*
X98754431Y96442959D01*
X98754431Y96232972D01*
X98542958Y96231486D01*
X98541493Y96021447D01*
X98541473Y96018515D01*
X98330000Y96020000D01*
X98331485Y95810026D01*
X96849664Y95805556D01*
X96848178Y96017029D01*
X96635220Y96020000D01*
X96633727Y96229200D01*
X97062261Y96229200D01*
X97063010Y96020698D01*
X97271498Y96021447D01*
X97270762Y96229200D01*
X97270762Y96229949D01*
X97062261Y96229200D01*
X96633727Y96229200D01*
X96633721Y96229988D01*
X96425232Y96231486D01*
X96423737Y96444083D01*
X97695284Y96444083D01*
X98118088Y96444083D01*
X98118088Y96863205D01*
X97906951Y96863205D01*
X97906951Y96652585D01*
X97695284Y96652585D01*
X97695284Y96444083D01*
X96423737Y96444083D01*
X96423734Y96444445D01*
X96212261Y96444445D01*
X96212261Y96447042D01*
X96641240Y96447042D01*
X97064056Y96447042D01*
X97064056Y96866163D01*
X96852907Y96866163D01*
X96852907Y96655543D01*
X96641240Y96655543D01*
X96641240Y96447042D01*
X96212261Y96447042D01*
X96212261Y97077378D01*
X96422248Y97078876D01*
X96423734Y97503308D01*
X96632235Y97501822D01*
X96635220Y98136254D01*
X96848178Y98133269D01*
X96848178Y97923282D01*
X97064121Y97926266D01*
X97062635Y97714794D01*
X98117028Y97713295D01*
X98118527Y97924768D01*
X98328501Y97926266D01*
X98327015Y98139225D01*
X98544457Y98136254D01*
X98544457Y97501822D01*
X98755930Y97500336D01*
X98755930Y97078876D01*
X98965917Y97080362D01*
X98965413Y96866163D01*
G37*
G36*
X118745413Y96866163D02*
G01*
X118745406Y96863205D01*
X118744418Y96442959D01*
X118534431Y96442959D01*
X118534431Y96232972D01*
X118322958Y96231486D01*
X118321493Y96021447D01*
X118321473Y96018515D01*
X118110000Y96020000D01*
X118111485Y95810026D01*
X116629664Y95805556D01*
X116628178Y96017029D01*
X116415220Y96020000D01*
X116413727Y96229200D01*
X116842261Y96229200D01*
X116843010Y96020698D01*
X117051498Y96021447D01*
X117050762Y96229200D01*
X117050762Y96229949D01*
X116842261Y96229200D01*
X116413727Y96229200D01*
X116413721Y96229988D01*
X116205232Y96231486D01*
X116203737Y96444083D01*
X117475284Y96444083D01*
X117898088Y96444083D01*
X117898088Y96863205D01*
X117686951Y96863205D01*
X117686951Y96652585D01*
X117475284Y96652585D01*
X117475284Y96444083D01*
X116203737Y96444083D01*
X116203734Y96444445D01*
X115992261Y96444445D01*
X115992261Y96447042D01*
X116421240Y96447042D01*
X116844056Y96447042D01*
X116844056Y96866163D01*
X116632907Y96866163D01*
X116632907Y96655543D01*
X116421240Y96655543D01*
X116421240Y96447042D01*
X115992261Y96447042D01*
X115992261Y97077378D01*
X116202248Y97078876D01*
X116203734Y97503308D01*
X116412235Y97501822D01*
X116415220Y98136254D01*
X116628178Y98133269D01*
X116628178Y97923282D01*
X116844121Y97926266D01*
X116842635Y97714794D01*
X117897028Y97713295D01*
X117898527Y97924768D01*
X118108501Y97926266D01*
X118107015Y98139225D01*
X118324457Y98136254D01*
X118324457Y97501822D01*
X118535930Y97500336D01*
X118535930Y97078876D01*
X118745917Y97080362D01*
X118745413Y96866163D01*
G37*
G36*
X138525413Y96866163D02*
G01*
X138525406Y96863205D01*
X138524418Y96442959D01*
X138314431Y96442959D01*
X138314431Y96232972D01*
X138102958Y96231486D01*
X138101493Y96021447D01*
X138101473Y96018515D01*
X137890000Y96020000D01*
X137891485Y95810026D01*
X136409664Y95805556D01*
X136408178Y96017029D01*
X136195220Y96020000D01*
X136193727Y96229200D01*
X136622261Y96229200D01*
X136623010Y96020698D01*
X136831498Y96021447D01*
X136830762Y96229200D01*
X136830762Y96229949D01*
X136622261Y96229200D01*
X136193727Y96229200D01*
X136193721Y96229988D01*
X135985232Y96231486D01*
X135983737Y96444083D01*
X137255284Y96444083D01*
X137678088Y96444083D01*
X137678088Y96863205D01*
X137466951Y96863205D01*
X137466951Y96652585D01*
X137255284Y96652585D01*
X137255284Y96444083D01*
X135983737Y96444083D01*
X135983734Y96444445D01*
X135772261Y96444445D01*
X135772261Y96447042D01*
X136201240Y96447042D01*
X136624056Y96447042D01*
X136624056Y96866163D01*
X136412907Y96866163D01*
X136412907Y96655543D01*
X136201240Y96655543D01*
X136201240Y96447042D01*
X135772261Y96447042D01*
X135772261Y97077378D01*
X135982248Y97078876D01*
X135983734Y97503308D01*
X136192235Y97501822D01*
X136195220Y98136254D01*
X136408178Y98133269D01*
X136408178Y97923282D01*
X136624121Y97926266D01*
X136622635Y97714794D01*
X137677028Y97713295D01*
X137678527Y97924768D01*
X137888501Y97926266D01*
X137887015Y98139225D01*
X138104457Y98136254D01*
X138104457Y97501822D01*
X138315930Y97500336D01*
X138315930Y97078876D01*
X138525917Y97080362D01*
X138525413Y96866163D01*
G37*
G36*
X158305413Y96866163D02*
G01*
X158305406Y96863205D01*
X158304418Y96442959D01*
X158094431Y96442959D01*
X158094431Y96232972D01*
X157882958Y96231486D01*
X157881493Y96021447D01*
X157881473Y96018515D01*
X157670000Y96020000D01*
X157671485Y95810026D01*
X156189664Y95805556D01*
X156188178Y96017029D01*
X155975220Y96020000D01*
X155973727Y96229200D01*
X156402261Y96229200D01*
X156403010Y96020698D01*
X156611498Y96021447D01*
X156610762Y96229200D01*
X156610762Y96229949D01*
X156402261Y96229200D01*
X155973727Y96229200D01*
X155973721Y96229988D01*
X155765232Y96231486D01*
X155763737Y96444083D01*
X157035284Y96444083D01*
X157458088Y96444083D01*
X157458088Y96863205D01*
X157246951Y96863205D01*
X157246951Y96652585D01*
X157035284Y96652585D01*
X157035284Y96444083D01*
X155763737Y96444083D01*
X155763734Y96444445D01*
X155552261Y96444445D01*
X155552261Y96447042D01*
X155981240Y96447042D01*
X156404056Y96447042D01*
X156404056Y96866163D01*
X156192907Y96866163D01*
X156192907Y96655543D01*
X155981240Y96655543D01*
X155981240Y96447042D01*
X155552261Y96447042D01*
X155552261Y97077378D01*
X155762248Y97078876D01*
X155763734Y97503308D01*
X155972235Y97501822D01*
X155975220Y98136254D01*
X156188178Y98133269D01*
X156188178Y97923282D01*
X156404121Y97926266D01*
X156402635Y97714794D01*
X157457028Y97713295D01*
X157458527Y97924768D01*
X157668501Y97926266D01*
X157667015Y98139225D01*
X157884457Y98136254D01*
X157884457Y97501822D01*
X158095930Y97500336D01*
X158095930Y97078876D01*
X158305917Y97080362D01*
X158305413Y96866163D01*
G37*
G36*
X178085413Y96866163D02*
G01*
X178085406Y96863205D01*
X178084418Y96442959D01*
X177874431Y96442959D01*
X177874431Y96232972D01*
X177662958Y96231486D01*
X177661493Y96021447D01*
X177661473Y96018515D01*
X177450000Y96020000D01*
X177451485Y95810026D01*
X175969664Y95805556D01*
X175968178Y96017029D01*
X175755220Y96020000D01*
X175753727Y96229200D01*
X176182261Y96229200D01*
X176183010Y96020698D01*
X176391498Y96021447D01*
X176390762Y96229200D01*
X176390762Y96229949D01*
X176182261Y96229200D01*
X175753727Y96229200D01*
X175753721Y96229988D01*
X175545232Y96231486D01*
X175543737Y96444083D01*
X176815284Y96444083D01*
X177238088Y96444083D01*
X177238088Y96863205D01*
X177026951Y96863205D01*
X177026951Y96652585D01*
X176815284Y96652585D01*
X176815284Y96444083D01*
X175543737Y96444083D01*
X175543734Y96444445D01*
X175332261Y96444445D01*
X175332261Y96447042D01*
X175761240Y96447042D01*
X176184056Y96447042D01*
X176184056Y96866163D01*
X175972907Y96866163D01*
X175972907Y96655543D01*
X175761240Y96655543D01*
X175761240Y96447042D01*
X175332261Y96447042D01*
X175332261Y97077378D01*
X175542248Y97078876D01*
X175543734Y97503308D01*
X175752235Y97501822D01*
X175755220Y98136254D01*
X175968178Y98133269D01*
X175968178Y97923282D01*
X176184121Y97926266D01*
X176182635Y97714794D01*
X177237028Y97713295D01*
X177238527Y97924768D01*
X177448501Y97926266D01*
X177447015Y98139225D01*
X177664457Y98136254D01*
X177664457Y97501822D01*
X177875930Y97500336D01*
X177875930Y97078876D01*
X178085917Y97080362D01*
X178085413Y96866163D01*
G37*
G36*
X197865413Y96866163D02*
G01*
X197865406Y96863205D01*
X197864418Y96442959D01*
X197654431Y96442959D01*
X197654431Y96232972D01*
X197442958Y96231486D01*
X197441493Y96021447D01*
X197441473Y96018515D01*
X197230000Y96020000D01*
X197231485Y95810026D01*
X195749664Y95805556D01*
X195748178Y96017029D01*
X195535220Y96020000D01*
X195533727Y96229200D01*
X195962261Y96229200D01*
X195963010Y96020698D01*
X196171498Y96021447D01*
X196170762Y96229200D01*
X196170762Y96229949D01*
X195962261Y96229200D01*
X195533727Y96229200D01*
X195533721Y96229988D01*
X195325232Y96231486D01*
X195323737Y96444083D01*
X196595284Y96444083D01*
X197018088Y96444083D01*
X197018088Y96863205D01*
X196806951Y96863205D01*
X196806951Y96652585D01*
X196595284Y96652585D01*
X196595284Y96444083D01*
X195323737Y96444083D01*
X195323734Y96444445D01*
X195112261Y96444445D01*
X195112261Y96447042D01*
X195541240Y96447042D01*
X195964056Y96447042D01*
X195964056Y96866163D01*
X195752907Y96866163D01*
X195752907Y96655543D01*
X195541240Y96655543D01*
X195541240Y96447042D01*
X195112261Y96447042D01*
X195112261Y97077378D01*
X195322248Y97078876D01*
X195323734Y97503308D01*
X195532235Y97501822D01*
X195535220Y98136254D01*
X195748178Y98133269D01*
X195748178Y97923282D01*
X195964121Y97926266D01*
X195962635Y97714794D01*
X197017028Y97713295D01*
X197018527Y97924768D01*
X197228501Y97926266D01*
X197227015Y98139225D01*
X197444457Y98136254D01*
X197444457Y97501822D01*
X197655930Y97500336D01*
X197655930Y97078876D01*
X197865917Y97080362D01*
X197865413Y96866163D01*
G37*
G36*
X19845413Y68866163D02*
G01*
X19845406Y68863205D01*
X19844418Y68442959D01*
X19634431Y68442959D01*
X19634431Y68232972D01*
X19422958Y68231486D01*
X19421493Y68021447D01*
X19421473Y68018515D01*
X19210000Y68020000D01*
X19211485Y67810026D01*
X17729664Y67805556D01*
X17728178Y68017029D01*
X17515220Y68020000D01*
X17513727Y68229200D01*
X17942261Y68229200D01*
X17943010Y68020698D01*
X18151498Y68021447D01*
X18150762Y68229200D01*
X18150762Y68229949D01*
X17942261Y68229200D01*
X17513727Y68229200D01*
X17513721Y68229988D01*
X17305232Y68231486D01*
X17303737Y68444083D01*
X18575284Y68444083D01*
X18998088Y68444083D01*
X18998088Y68863205D01*
X18786951Y68863205D01*
X18786951Y68652585D01*
X18575284Y68652585D01*
X18575284Y68444083D01*
X17303737Y68444083D01*
X17303734Y68444445D01*
X17092261Y68444445D01*
X17092261Y68447042D01*
X17521240Y68447042D01*
X17944056Y68447042D01*
X17944056Y68866163D01*
X17732907Y68866163D01*
X17732907Y68655543D01*
X17521240Y68655543D01*
X17521240Y68447042D01*
X17092261Y68447042D01*
X17092261Y69077378D01*
X17302248Y69078876D01*
X17303734Y69503308D01*
X17512235Y69501822D01*
X17515220Y70136254D01*
X17728178Y70133269D01*
X17728178Y69923282D01*
X17944121Y69926266D01*
X17942635Y69714794D01*
X18997028Y69713295D01*
X18998527Y69924768D01*
X19208501Y69926266D01*
X19207015Y70139225D01*
X19424457Y70136254D01*
X19424457Y69501822D01*
X19635930Y69500336D01*
X19635930Y69078876D01*
X19845917Y69080362D01*
X19845413Y68866163D01*
G37*
G36*
X39625413Y68866163D02*
G01*
X39625406Y68863205D01*
X39624418Y68442959D01*
X39414431Y68442959D01*
X39414431Y68232972D01*
X39202958Y68231486D01*
X39201493Y68021447D01*
X39201473Y68018515D01*
X38990000Y68020000D01*
X38991485Y67810026D01*
X37509664Y67805556D01*
X37508178Y68017029D01*
X37295220Y68020000D01*
X37293727Y68229200D01*
X37722261Y68229200D01*
X37723010Y68020698D01*
X37931498Y68021447D01*
X37930762Y68229200D01*
X37930762Y68229949D01*
X37722261Y68229200D01*
X37293727Y68229200D01*
X37293721Y68229988D01*
X37085232Y68231486D01*
X37083737Y68444083D01*
X38355284Y68444083D01*
X38778088Y68444083D01*
X38778088Y68863205D01*
X38566951Y68863205D01*
X38566951Y68652585D01*
X38355284Y68652585D01*
X38355284Y68444083D01*
X37083737Y68444083D01*
X37083734Y68444445D01*
X36872261Y68444445D01*
X36872261Y68447042D01*
X37301240Y68447042D01*
X37724056Y68447042D01*
X37724056Y68866163D01*
X37512907Y68866163D01*
X37512907Y68655543D01*
X37301240Y68655543D01*
X37301240Y68447042D01*
X36872261Y68447042D01*
X36872261Y69077378D01*
X37082248Y69078876D01*
X37083734Y69503308D01*
X37292235Y69501822D01*
X37295220Y70136254D01*
X37508178Y70133269D01*
X37508178Y69923282D01*
X37724121Y69926266D01*
X37722635Y69714794D01*
X38777028Y69713295D01*
X38778527Y69924768D01*
X38988501Y69926266D01*
X38987015Y70139225D01*
X39204457Y70136254D01*
X39204457Y69501822D01*
X39415930Y69500336D01*
X39415930Y69078876D01*
X39625917Y69080362D01*
X39625413Y68866163D01*
G37*
G36*
X59405413Y68866163D02*
G01*
X59405406Y68863205D01*
X59404418Y68442959D01*
X59194431Y68442959D01*
X59194431Y68232972D01*
X58982958Y68231486D01*
X58981493Y68021447D01*
X58981473Y68018515D01*
X58770000Y68020000D01*
X58771485Y67810026D01*
X57289664Y67805556D01*
X57288178Y68017029D01*
X57075220Y68020000D01*
X57073727Y68229200D01*
X57502261Y68229200D01*
X57503010Y68020698D01*
X57711498Y68021447D01*
X57710762Y68229200D01*
X57710762Y68229949D01*
X57502261Y68229200D01*
X57073727Y68229200D01*
X57073721Y68229988D01*
X56865232Y68231486D01*
X56863737Y68444083D01*
X58135284Y68444083D01*
X58558088Y68444083D01*
X58558088Y68863205D01*
X58346951Y68863205D01*
X58346951Y68652585D01*
X58135284Y68652585D01*
X58135284Y68444083D01*
X56863737Y68444083D01*
X56863734Y68444445D01*
X56652261Y68444445D01*
X56652261Y68447042D01*
X57081240Y68447042D01*
X57504056Y68447042D01*
X57504056Y68866163D01*
X57292907Y68866163D01*
X57292907Y68655543D01*
X57081240Y68655543D01*
X57081240Y68447042D01*
X56652261Y68447042D01*
X56652261Y69077378D01*
X56862248Y69078876D01*
X56863734Y69503308D01*
X57072235Y69501822D01*
X57075220Y70136254D01*
X57288178Y70133269D01*
X57288178Y69923282D01*
X57504121Y69926266D01*
X57502635Y69714794D01*
X58557028Y69713295D01*
X58558527Y69924768D01*
X58768501Y69926266D01*
X58767015Y70139225D01*
X58984457Y70136254D01*
X58984457Y69501822D01*
X59195930Y69500336D01*
X59195930Y69078876D01*
X59405917Y69080362D01*
X59405413Y68866163D01*
G37*
G36*
X79185413Y68866163D02*
G01*
X79185406Y68863205D01*
X79184418Y68442959D01*
X78974431Y68442959D01*
X78974431Y68232972D01*
X78762958Y68231486D01*
X78761493Y68021447D01*
X78761473Y68018515D01*
X78550000Y68020000D01*
X78551485Y67810026D01*
X77069664Y67805556D01*
X77068178Y68017029D01*
X76855220Y68020000D01*
X76853727Y68229200D01*
X77282261Y68229200D01*
X77283010Y68020698D01*
X77491498Y68021447D01*
X77490762Y68229200D01*
X77490762Y68229949D01*
X77282261Y68229200D01*
X76853727Y68229200D01*
X76853721Y68229988D01*
X76645232Y68231486D01*
X76643737Y68444083D01*
X77915284Y68444083D01*
X78338088Y68444083D01*
X78338088Y68863205D01*
X78126951Y68863205D01*
X78126951Y68652585D01*
X77915284Y68652585D01*
X77915284Y68444083D01*
X76643737Y68444083D01*
X76643734Y68444445D01*
X76432261Y68444445D01*
X76432261Y68447042D01*
X76861240Y68447042D01*
X77284056Y68447042D01*
X77284056Y68866163D01*
X77072907Y68866163D01*
X77072907Y68655543D01*
X76861240Y68655543D01*
X76861240Y68447042D01*
X76432261Y68447042D01*
X76432261Y69077378D01*
X76642248Y69078876D01*
X76643734Y69503308D01*
X76852235Y69501822D01*
X76855220Y70136254D01*
X77068178Y70133269D01*
X77068178Y69923282D01*
X77284121Y69926266D01*
X77282635Y69714794D01*
X78337028Y69713295D01*
X78338527Y69924768D01*
X78548501Y69926266D01*
X78547015Y70139225D01*
X78764457Y70136254D01*
X78764457Y69501822D01*
X78975930Y69500336D01*
X78975930Y69078876D01*
X79185917Y69080362D01*
X79185413Y68866163D01*
G37*
G36*
X98965413Y68866163D02*
G01*
X98965406Y68863205D01*
X98964418Y68442959D01*
X98754431Y68442959D01*
X98754431Y68232972D01*
X98542958Y68231486D01*
X98541493Y68021447D01*
X98541473Y68018515D01*
X98330000Y68020000D01*
X98331485Y67810026D01*
X96849664Y67805556D01*
X96848178Y68017029D01*
X96635220Y68020000D01*
X96633727Y68229200D01*
X97062261Y68229200D01*
X97063010Y68020698D01*
X97271498Y68021447D01*
X97270762Y68229200D01*
X97270762Y68229949D01*
X97062261Y68229200D01*
X96633727Y68229200D01*
X96633721Y68229988D01*
X96425232Y68231486D01*
X96423737Y68444083D01*
X97695284Y68444083D01*
X98118088Y68444083D01*
X98118088Y68863205D01*
X97906951Y68863205D01*
X97906951Y68652585D01*
X97695284Y68652585D01*
X97695284Y68444083D01*
X96423737Y68444083D01*
X96423734Y68444445D01*
X96212261Y68444445D01*
X96212261Y68447042D01*
X96641240Y68447042D01*
X97064056Y68447042D01*
X97064056Y68866163D01*
X96852907Y68866163D01*
X96852907Y68655543D01*
X96641240Y68655543D01*
X96641240Y68447042D01*
X96212261Y68447042D01*
X96212261Y69077378D01*
X96422248Y69078876D01*
X96423734Y69503308D01*
X96632235Y69501822D01*
X96635220Y70136254D01*
X96848178Y70133269D01*
X96848178Y69923282D01*
X97064121Y69926266D01*
X97062635Y69714794D01*
X98117028Y69713295D01*
X98118527Y69924768D01*
X98328501Y69926266D01*
X98327015Y70139225D01*
X98544457Y70136254D01*
X98544457Y69501822D01*
X98755930Y69500336D01*
X98755930Y69078876D01*
X98965917Y69080362D01*
X98965413Y68866163D01*
G37*
G36*
X118745413Y68866163D02*
G01*
X118745406Y68863205D01*
X118744418Y68442959D01*
X118534431Y68442959D01*
X118534431Y68232972D01*
X118322958Y68231486D01*
X118321493Y68021447D01*
X118321473Y68018515D01*
X118110000Y68020000D01*
X118111485Y67810026D01*
X116629664Y67805556D01*
X116628178Y68017029D01*
X116415220Y68020000D01*
X116413727Y68229200D01*
X116842261Y68229200D01*
X116843010Y68020698D01*
X117051498Y68021447D01*
X117050762Y68229200D01*
X117050762Y68229949D01*
X116842261Y68229200D01*
X116413727Y68229200D01*
X116413721Y68229988D01*
X116205232Y68231486D01*
X116203737Y68444083D01*
X117475284Y68444083D01*
X117898088Y68444083D01*
X117898088Y68863205D01*
X117686951Y68863205D01*
X117686951Y68652585D01*
X117475284Y68652585D01*
X117475284Y68444083D01*
X116203737Y68444083D01*
X116203734Y68444445D01*
X115992261Y68444445D01*
X115992261Y68447042D01*
X116421240Y68447042D01*
X116844056Y68447042D01*
X116844056Y68866163D01*
X116632907Y68866163D01*
X116632907Y68655543D01*
X116421240Y68655543D01*
X116421240Y68447042D01*
X115992261Y68447042D01*
X115992261Y69077378D01*
X116202248Y69078876D01*
X116203734Y69503308D01*
X116412235Y69501822D01*
X116415220Y70136254D01*
X116628178Y70133269D01*
X116628178Y69923282D01*
X116844121Y69926266D01*
X116842635Y69714794D01*
X117897028Y69713295D01*
X117898527Y69924768D01*
X118108501Y69926266D01*
X118107015Y70139225D01*
X118324457Y70136254D01*
X118324457Y69501822D01*
X118535930Y69500336D01*
X118535930Y69078876D01*
X118745917Y69080362D01*
X118745413Y68866163D01*
G37*
G36*
X138525413Y68866163D02*
G01*
X138525406Y68863205D01*
X138524418Y68442959D01*
X138314431Y68442959D01*
X138314431Y68232972D01*
X138102958Y68231486D01*
X138101493Y68021447D01*
X138101473Y68018515D01*
X137890000Y68020000D01*
X137891485Y67810026D01*
X136409664Y67805556D01*
X136408178Y68017029D01*
X136195220Y68020000D01*
X136193727Y68229200D01*
X136622261Y68229200D01*
X136623010Y68020698D01*
X136831498Y68021447D01*
X136830762Y68229200D01*
X136830762Y68229949D01*
X136622261Y68229200D01*
X136193727Y68229200D01*
X136193721Y68229988D01*
X135985232Y68231486D01*
X135983737Y68444083D01*
X137255284Y68444083D01*
X137678088Y68444083D01*
X137678088Y68863205D01*
X137466951Y68863205D01*
X137466951Y68652585D01*
X137255284Y68652585D01*
X137255284Y68444083D01*
X135983737Y68444083D01*
X135983734Y68444445D01*
X135772261Y68444445D01*
X135772261Y68447042D01*
X136201240Y68447042D01*
X136624056Y68447042D01*
X136624056Y68866163D01*
X136412907Y68866163D01*
X136412907Y68655543D01*
X136201240Y68655543D01*
X136201240Y68447042D01*
X135772261Y68447042D01*
X135772261Y69077378D01*
X135982248Y69078876D01*
X135983734Y69503308D01*
X136192235Y69501822D01*
X136195220Y70136254D01*
X136408178Y70133269D01*
X136408178Y69923282D01*
X136624121Y69926266D01*
X136622635Y69714794D01*
X137677028Y69713295D01*
X137678527Y69924768D01*
X137888501Y69926266D01*
X137887015Y70139225D01*
X138104457Y70136254D01*
X138104457Y69501822D01*
X138315930Y69500336D01*
X138315930Y69078876D01*
X138525917Y69080362D01*
X138525413Y68866163D01*
G37*
G36*
X158305413Y68866163D02*
G01*
X158305406Y68863205D01*
X158304418Y68442959D01*
X158094431Y68442959D01*
X158094431Y68232972D01*
X157882958Y68231486D01*
X157881493Y68021447D01*
X157881473Y68018515D01*
X157670000Y68020000D01*
X157671485Y67810026D01*
X156189664Y67805556D01*
X156188178Y68017029D01*
X155975220Y68020000D01*
X155973727Y68229200D01*
X156402261Y68229200D01*
X156403010Y68020698D01*
X156611498Y68021447D01*
X156610762Y68229200D01*
X156610762Y68229949D01*
X156402261Y68229200D01*
X155973727Y68229200D01*
X155973721Y68229988D01*
X155765232Y68231486D01*
X155763737Y68444083D01*
X157035284Y68444083D01*
X157458088Y68444083D01*
X157458088Y68863205D01*
X157246951Y68863205D01*
X157246951Y68652585D01*
X157035284Y68652585D01*
X157035284Y68444083D01*
X155763737Y68444083D01*
X155763734Y68444445D01*
X155552261Y68444445D01*
X155552261Y68447042D01*
X155981240Y68447042D01*
X156404056Y68447042D01*
X156404056Y68866163D01*
X156192907Y68866163D01*
X156192907Y68655543D01*
X155981240Y68655543D01*
X155981240Y68447042D01*
X155552261Y68447042D01*
X155552261Y69077378D01*
X155762248Y69078876D01*
X155763734Y69503308D01*
X155972235Y69501822D01*
X155975220Y70136254D01*
X156188178Y70133269D01*
X156188178Y69923282D01*
X156404121Y69926266D01*
X156402635Y69714794D01*
X157457028Y69713295D01*
X157458527Y69924768D01*
X157668501Y69926266D01*
X157667015Y70139225D01*
X157884457Y70136254D01*
X157884457Y69501822D01*
X158095930Y69500336D01*
X158095930Y69078876D01*
X158305917Y69080362D01*
X158305413Y68866163D01*
G37*
G36*
X178085413Y68866163D02*
G01*
X178085406Y68863205D01*
X178084418Y68442959D01*
X177874431Y68442959D01*
X177874431Y68232972D01*
X177662958Y68231486D01*
X177661493Y68021447D01*
X177661473Y68018515D01*
X177450000Y68020000D01*
X177451485Y67810026D01*
X175969664Y67805556D01*
X175968178Y68017029D01*
X175755220Y68020000D01*
X175753727Y68229200D01*
X176182261Y68229200D01*
X176183010Y68020698D01*
X176391498Y68021447D01*
X176390762Y68229200D01*
X176390762Y68229949D01*
X176182261Y68229200D01*
X175753727Y68229200D01*
X175753721Y68229988D01*
X175545232Y68231486D01*
X175543737Y68444083D01*
X176815284Y68444083D01*
X177238088Y68444083D01*
X177238088Y68863205D01*
X177026951Y68863205D01*
X177026951Y68652585D01*
X176815284Y68652585D01*
X176815284Y68444083D01*
X175543737Y68444083D01*
X175543734Y68444445D01*
X175332261Y68444445D01*
X175332261Y68447042D01*
X175761240Y68447042D01*
X176184056Y68447042D01*
X176184056Y68866163D01*
X175972907Y68866163D01*
X175972907Y68655543D01*
X175761240Y68655543D01*
X175761240Y68447042D01*
X175332261Y68447042D01*
X175332261Y69077378D01*
X175542248Y69078876D01*
X175543734Y69503308D01*
X175752235Y69501822D01*
X175755220Y70136254D01*
X175968178Y70133269D01*
X175968178Y69923282D01*
X176184121Y69926266D01*
X176182635Y69714794D01*
X177237028Y69713295D01*
X177238527Y69924768D01*
X177448501Y69926266D01*
X177447015Y70139225D01*
X177664457Y70136254D01*
X177664457Y69501822D01*
X177875930Y69500336D01*
X177875930Y69078876D01*
X178085917Y69080362D01*
X178085413Y68866163D01*
G37*
G36*
X197865413Y68866163D02*
G01*
X197865406Y68863205D01*
X197864418Y68442959D01*
X197654431Y68442959D01*
X197654431Y68232972D01*
X197442958Y68231486D01*
X197441493Y68021447D01*
X197441473Y68018515D01*
X197230000Y68020000D01*
X197231485Y67810026D01*
X195749664Y67805556D01*
X195748178Y68017029D01*
X195535220Y68020000D01*
X195533727Y68229200D01*
X195962261Y68229200D01*
X195963010Y68020698D01*
X196171498Y68021447D01*
X196170762Y68229200D01*
X196170762Y68229949D01*
X195962261Y68229200D01*
X195533727Y68229200D01*
X195533721Y68229988D01*
X195325232Y68231486D01*
X195323737Y68444083D01*
X196595284Y68444083D01*
X197018088Y68444083D01*
X197018088Y68863205D01*
X196806951Y68863205D01*
X196806951Y68652585D01*
X196595284Y68652585D01*
X196595284Y68444083D01*
X195323737Y68444083D01*
X195323734Y68444445D01*
X195112261Y68444445D01*
X195112261Y68447042D01*
X195541240Y68447042D01*
X195964056Y68447042D01*
X195964056Y68866163D01*
X195752907Y68866163D01*
X195752907Y68655543D01*
X195541240Y68655543D01*
X195541240Y68447042D01*
X195112261Y68447042D01*
X195112261Y69077378D01*
X195322248Y69078876D01*
X195323734Y69503308D01*
X195532235Y69501822D01*
X195535220Y70136254D01*
X195748178Y70133269D01*
X195748178Y69923282D01*
X195964121Y69926266D01*
X195962635Y69714794D01*
X197017028Y69713295D01*
X197018527Y69924768D01*
X197228501Y69926266D01*
X197227015Y70139225D01*
X197444457Y70136254D01*
X197444457Y69501822D01*
X197655930Y69500336D01*
X197655930Y69078876D01*
X197865917Y69080362D01*
X197865413Y68866163D01*
G37*
G36*
X19845413Y40866163D02*
G01*
X19845406Y40863205D01*
X19844418Y40442959D01*
X19634431Y40442959D01*
X19634431Y40232972D01*
X19422958Y40231486D01*
X19421493Y40021447D01*
X19421473Y40018515D01*
X19210000Y40020000D01*
X19211485Y39810026D01*
X17729664Y39805556D01*
X17728178Y40017029D01*
X17515220Y40020000D01*
X17513727Y40229200D01*
X17942261Y40229200D01*
X17943010Y40020698D01*
X18151498Y40021447D01*
X18150762Y40229200D01*
X18150762Y40229949D01*
X17942261Y40229200D01*
X17513727Y40229200D01*
X17513721Y40229988D01*
X17305232Y40231486D01*
X17303737Y40444083D01*
X18575284Y40444083D01*
X18998088Y40444083D01*
X18998088Y40863205D01*
X18786951Y40863205D01*
X18786951Y40652585D01*
X18575284Y40652585D01*
X18575284Y40444083D01*
X17303737Y40444083D01*
X17303734Y40444445D01*
X17092261Y40444445D01*
X17092261Y40447042D01*
X17521240Y40447042D01*
X17944056Y40447042D01*
X17944056Y40866163D01*
X17732907Y40866163D01*
X17732907Y40655543D01*
X17521240Y40655543D01*
X17521240Y40447042D01*
X17092261Y40447042D01*
X17092261Y41077378D01*
X17302248Y41078876D01*
X17303734Y41503308D01*
X17512235Y41501822D01*
X17515220Y42136254D01*
X17728178Y42133269D01*
X17728178Y41923282D01*
X17944121Y41926266D01*
X17942635Y41714794D01*
X18997028Y41713295D01*
X18998527Y41924768D01*
X19208501Y41926266D01*
X19207015Y42139225D01*
X19424457Y42136254D01*
X19424457Y41501822D01*
X19635930Y41500336D01*
X19635930Y41078876D01*
X19845917Y41080362D01*
X19845413Y40866163D01*
G37*
G36*
X39625413Y40866163D02*
G01*
X39625406Y40863205D01*
X39624418Y40442959D01*
X39414431Y40442959D01*
X39414431Y40232972D01*
X39202958Y40231486D01*
X39201493Y40021447D01*
X39201473Y40018515D01*
X38990000Y40020000D01*
X38991485Y39810026D01*
X37509664Y39805556D01*
X37508178Y40017029D01*
X37295220Y40020000D01*
X37293727Y40229200D01*
X37722261Y40229200D01*
X37723010Y40020698D01*
X37931498Y40021447D01*
X37930762Y40229200D01*
X37930762Y40229949D01*
X37722261Y40229200D01*
X37293727Y40229200D01*
X37293721Y40229988D01*
X37085232Y40231486D01*
X37083737Y40444083D01*
X38355284Y40444083D01*
X38778088Y40444083D01*
X38778088Y40863205D01*
X38566951Y40863205D01*
X38566951Y40652585D01*
X38355284Y40652585D01*
X38355284Y40444083D01*
X37083737Y40444083D01*
X37083734Y40444445D01*
X36872261Y40444445D01*
X36872261Y40447042D01*
X37301240Y40447042D01*
X37724056Y40447042D01*
X37724056Y40866163D01*
X37512907Y40866163D01*
X37512907Y40655543D01*
X37301240Y40655543D01*
X37301240Y40447042D01*
X36872261Y40447042D01*
X36872261Y41077378D01*
X37082248Y41078876D01*
X37083734Y41503308D01*
X37292235Y41501822D01*
X37295220Y42136254D01*
X37508178Y42133269D01*
X37508178Y41923282D01*
X37724121Y41926266D01*
X37722635Y41714794D01*
X38777028Y41713295D01*
X38778527Y41924768D01*
X38988501Y41926266D01*
X38987015Y42139225D01*
X39204457Y42136254D01*
X39204457Y41501822D01*
X39415930Y41500336D01*
X39415930Y41078876D01*
X39625917Y41080362D01*
X39625413Y40866163D01*
G37*
G36*
X59405413Y40866163D02*
G01*
X59405406Y40863205D01*
X59404418Y40442959D01*
X59194431Y40442959D01*
X59194431Y40232972D01*
X58982958Y40231486D01*
X58981493Y40021447D01*
X58981473Y40018515D01*
X58770000Y40020000D01*
X58771485Y39810026D01*
X57289664Y39805556D01*
X57288178Y40017029D01*
X57075220Y40020000D01*
X57073727Y40229200D01*
X57502261Y40229200D01*
X57503010Y40020698D01*
X57711498Y40021447D01*
X57710762Y40229200D01*
X57710762Y40229949D01*
X57502261Y40229200D01*
X57073727Y40229200D01*
X57073721Y40229988D01*
X56865232Y40231486D01*
X56863737Y40444083D01*
X58135284Y40444083D01*
X58558088Y40444083D01*
X58558088Y40863205D01*
X58346951Y40863205D01*
X58346951Y40652585D01*
X58135284Y40652585D01*
X58135284Y40444083D01*
X56863737Y40444083D01*
X56863734Y40444445D01*
X56652261Y40444445D01*
X56652261Y40447042D01*
X57081240Y40447042D01*
X57504056Y40447042D01*
X57504056Y40866163D01*
X57292907Y40866163D01*
X57292907Y40655543D01*
X57081240Y40655543D01*
X57081240Y40447042D01*
X56652261Y40447042D01*
X56652261Y41077378D01*
X56862248Y41078876D01*
X56863734Y41503308D01*
X57072235Y41501822D01*
X57075220Y42136254D01*
X57288178Y42133269D01*
X57288178Y41923282D01*
X57504121Y41926266D01*
X57502635Y41714794D01*
X58557028Y41713295D01*
X58558527Y41924768D01*
X58768501Y41926266D01*
X58767015Y42139225D01*
X58984457Y42136254D01*
X58984457Y41501822D01*
X59195930Y41500336D01*
X59195930Y41078876D01*
X59405917Y41080362D01*
X59405413Y40866163D01*
G37*
G36*
X79185413Y40866163D02*
G01*
X79185406Y40863205D01*
X79184418Y40442959D01*
X78974431Y40442959D01*
X78974431Y40232972D01*
X78762958Y40231486D01*
X78761493Y40021447D01*
X78761473Y40018515D01*
X78550000Y40020000D01*
X78551485Y39810026D01*
X77069664Y39805556D01*
X77068178Y40017029D01*
X76855220Y40020000D01*
X76853727Y40229200D01*
X77282261Y40229200D01*
X77283010Y40020698D01*
X77491498Y40021447D01*
X77490762Y40229200D01*
X77490762Y40229949D01*
X77282261Y40229200D01*
X76853727Y40229200D01*
X76853721Y40229988D01*
X76645232Y40231486D01*
X76643737Y40444083D01*
X77915284Y40444083D01*
X78338088Y40444083D01*
X78338088Y40863205D01*
X78126951Y40863205D01*
X78126951Y40652585D01*
X77915284Y40652585D01*
X77915284Y40444083D01*
X76643737Y40444083D01*
X76643734Y40444445D01*
X76432261Y40444445D01*
X76432261Y40447042D01*
X76861240Y40447042D01*
X77284056Y40447042D01*
X77284056Y40866163D01*
X77072907Y40866163D01*
X77072907Y40655543D01*
X76861240Y40655543D01*
X76861240Y40447042D01*
X76432261Y40447042D01*
X76432261Y41077378D01*
X76642248Y41078876D01*
X76643734Y41503308D01*
X76852235Y41501822D01*
X76855220Y42136254D01*
X77068178Y42133269D01*
X77068178Y41923282D01*
X77284121Y41926266D01*
X77282635Y41714794D01*
X78337028Y41713295D01*
X78338527Y41924768D01*
X78548501Y41926266D01*
X78547015Y42139225D01*
X78764457Y42136254D01*
X78764457Y41501822D01*
X78975930Y41500336D01*
X78975930Y41078876D01*
X79185917Y41080362D01*
X79185413Y40866163D01*
G37*
G36*
X98965413Y40866163D02*
G01*
X98965406Y40863205D01*
X98964418Y40442959D01*
X98754431Y40442959D01*
X98754431Y40232972D01*
X98542958Y40231486D01*
X98541493Y40021447D01*
X98541473Y40018515D01*
X98330000Y40020000D01*
X98331485Y39810026D01*
X96849664Y39805556D01*
X96848178Y40017029D01*
X96635220Y40020000D01*
X96633727Y40229200D01*
X97062261Y40229200D01*
X97063010Y40020698D01*
X97271498Y40021447D01*
X97270762Y40229200D01*
X97270762Y40229949D01*
X97062261Y40229200D01*
X96633727Y40229200D01*
X96633721Y40229988D01*
X96425232Y40231486D01*
X96423737Y40444083D01*
X97695284Y40444083D01*
X98118088Y40444083D01*
X98118088Y40863205D01*
X97906951Y40863205D01*
X97906951Y40652585D01*
X97695284Y40652585D01*
X97695284Y40444083D01*
X96423737Y40444083D01*
X96423734Y40444445D01*
X96212261Y40444445D01*
X96212261Y40447042D01*
X96641240Y40447042D01*
X97064056Y40447042D01*
X97064056Y40866163D01*
X96852907Y40866163D01*
X96852907Y40655543D01*
X96641240Y40655543D01*
X96641240Y40447042D01*
X96212261Y40447042D01*
X96212261Y41077378D01*
X96422248Y41078876D01*
X96423734Y41503308D01*
X96632235Y41501822D01*
X96635220Y42136254D01*
X96848178Y42133269D01*
X96848178Y41923282D01*
X97064121Y41926266D01*
X97062635Y41714794D01*
X98117028Y41713295D01*
X98118527Y41924768D01*
X98328501Y41926266D01*
X98327015Y42139225D01*
X98544457Y42136254D01*
X98544457Y41501822D01*
X98755930Y41500336D01*
X98755930Y41078876D01*
X98965917Y41080362D01*
X98965413Y40866163D01*
G37*
G36*
X118745413Y40866163D02*
G01*
X118745406Y40863205D01*
X118744418Y40442959D01*
X118534431Y40442959D01*
X118534431Y40232972D01*
X118322958Y40231486D01*
X118321493Y40021447D01*
X118321473Y40018515D01*
X118110000Y40020000D01*
X118111485Y39810026D01*
X116629664Y39805556D01*
X116628178Y40017029D01*
X116415220Y40020000D01*
X116413727Y40229200D01*
X116842261Y40229200D01*
X116843010Y40020698D01*
X117051498Y40021447D01*
X117050762Y40229200D01*
X117050762Y40229949D01*
X116842261Y40229200D01*
X116413727Y40229200D01*
X116413721Y40229988D01*
X116205232Y40231486D01*
X116203737Y40444083D01*
X117475284Y40444083D01*
X117898088Y40444083D01*
X117898088Y40863205D01*
X117686951Y40863205D01*
X117686951Y40652585D01*
X117475284Y40652585D01*
X117475284Y40444083D01*
X116203737Y40444083D01*
X116203734Y40444445D01*
X115992261Y40444445D01*
X115992261Y40447042D01*
X116421240Y40447042D01*
X116844056Y40447042D01*
X116844056Y40866163D01*
X116632907Y40866163D01*
X116632907Y40655543D01*
X116421240Y40655543D01*
X116421240Y40447042D01*
X115992261Y40447042D01*
X115992261Y41077378D01*
X116202248Y41078876D01*
X116203734Y41503308D01*
X116412235Y41501822D01*
X116415220Y42136254D01*
X116628178Y42133269D01*
X116628178Y41923282D01*
X116844121Y41926266D01*
X116842635Y41714794D01*
X117897028Y41713295D01*
X117898527Y41924768D01*
X118108501Y41926266D01*
X118107015Y42139225D01*
X118324457Y42136254D01*
X118324457Y41501822D01*
X118535930Y41500336D01*
X118535930Y41078876D01*
X118745917Y41080362D01*
X118745413Y40866163D01*
G37*
G36*
X138525413Y40866163D02*
G01*
X138525406Y40863205D01*
X138524418Y40442959D01*
X138314431Y40442959D01*
X138314431Y40232972D01*
X138102958Y40231486D01*
X138101493Y40021447D01*
X138101473Y40018515D01*
X137890000Y40020000D01*
X137891485Y39810026D01*
X136409664Y39805556D01*
X136408178Y40017029D01*
X136195220Y40020000D01*
X136193727Y40229200D01*
X136622261Y40229200D01*
X136623010Y40020698D01*
X136831498Y40021447D01*
X136830762Y40229200D01*
X136830762Y40229949D01*
X136622261Y40229200D01*
X136193727Y40229200D01*
X136193721Y40229988D01*
X135985232Y40231486D01*
X135983737Y40444083D01*
X137255284Y40444083D01*
X137678088Y40444083D01*
X137678088Y40863205D01*
X137466951Y40863205D01*
X137466951Y40652585D01*
X137255284Y40652585D01*
X137255284Y40444083D01*
X135983737Y40444083D01*
X135983734Y40444445D01*
X135772261Y40444445D01*
X135772261Y40447042D01*
X136201240Y40447042D01*
X136624056Y40447042D01*
X136624056Y40866163D01*
X136412907Y40866163D01*
X136412907Y40655543D01*
X136201240Y40655543D01*
X136201240Y40447042D01*
X135772261Y40447042D01*
X135772261Y41077378D01*
X135982248Y41078876D01*
X135983734Y41503308D01*
X136192235Y41501822D01*
X136195220Y42136254D01*
X136408178Y42133269D01*
X136408178Y41923282D01*
X136624121Y41926266D01*
X136622635Y41714794D01*
X137677028Y41713295D01*
X137678527Y41924768D01*
X137888501Y41926266D01*
X137887015Y42139225D01*
X138104457Y42136254D01*
X138104457Y41501822D01*
X138315930Y41500336D01*
X138315930Y41078876D01*
X138525917Y41080362D01*
X138525413Y40866163D01*
G37*
G36*
X158305413Y40866163D02*
G01*
X158305406Y40863205D01*
X158304418Y40442959D01*
X158094431Y40442959D01*
X158094431Y40232972D01*
X157882958Y40231486D01*
X157881493Y40021447D01*
X157881473Y40018515D01*
X157670000Y40020000D01*
X157671485Y39810026D01*
X156189664Y39805556D01*
X156188178Y40017029D01*
X155975220Y40020000D01*
X155973727Y40229200D01*
X156402261Y40229200D01*
X156403010Y40020698D01*
X156611498Y40021447D01*
X156610762Y40229200D01*
X156610762Y40229949D01*
X156402261Y40229200D01*
X155973727Y40229200D01*
X155973721Y40229988D01*
X155765232Y40231486D01*
X155763737Y40444083D01*
X157035284Y40444083D01*
X157458088Y40444083D01*
X157458088Y40863205D01*
X157246951Y40863205D01*
X157246951Y40652585D01*
X157035284Y40652585D01*
X157035284Y40444083D01*
X155763737Y40444083D01*
X155763734Y40444445D01*
X155552261Y40444445D01*
X155552261Y40447042D01*
X155981240Y40447042D01*
X156404056Y40447042D01*
X156404056Y40866163D01*
X156192907Y40866163D01*
X156192907Y40655543D01*
X155981240Y40655543D01*
X155981240Y40447042D01*
X155552261Y40447042D01*
X155552261Y41077378D01*
X155762248Y41078876D01*
X155763734Y41503308D01*
X155972235Y41501822D01*
X155975220Y42136254D01*
X156188178Y42133269D01*
X156188178Y41923282D01*
X156404121Y41926266D01*
X156402635Y41714794D01*
X157457028Y41713295D01*
X157458527Y41924768D01*
X157668501Y41926266D01*
X157667015Y42139225D01*
X157884457Y42136254D01*
X157884457Y41501822D01*
X158095930Y41500336D01*
X158095930Y41078876D01*
X158305917Y41080362D01*
X158305413Y40866163D01*
G37*
G36*
X178085413Y40866163D02*
G01*
X178085406Y40863205D01*
X178084418Y40442959D01*
X177874431Y40442959D01*
X177874431Y40232972D01*
X177662958Y40231486D01*
X177661493Y40021447D01*
X177661473Y40018515D01*
X177450000Y40020000D01*
X177451485Y39810026D01*
X175969664Y39805556D01*
X175968178Y40017029D01*
X175755220Y40020000D01*
X175753727Y40229200D01*
X176182261Y40229200D01*
X176183010Y40020698D01*
X176391498Y40021447D01*
X176390762Y40229200D01*
X176390762Y40229949D01*
X176182261Y40229200D01*
X175753727Y40229200D01*
X175753721Y40229988D01*
X175545232Y40231486D01*
X175543737Y40444083D01*
X176815284Y40444083D01*
X177238088Y40444083D01*
X177238088Y40863205D01*
X177026951Y40863205D01*
X177026951Y40652585D01*
X176815284Y40652585D01*
X176815284Y40444083D01*
X175543737Y40444083D01*
X175543734Y40444445D01*
X175332261Y40444445D01*
X175332261Y40447042D01*
X175761240Y40447042D01*
X176184056Y40447042D01*
X176184056Y40866163D01*
X175972907Y40866163D01*
X175972907Y40655543D01*
X175761240Y40655543D01*
X175761240Y40447042D01*
X175332261Y40447042D01*
X175332261Y41077378D01*
X175542248Y41078876D01*
X175543734Y41503308D01*
X175752235Y41501822D01*
X175755220Y42136254D01*
X175968178Y42133269D01*
X175968178Y41923282D01*
X176184121Y41926266D01*
X176182635Y41714794D01*
X177237028Y41713295D01*
X177238527Y41924768D01*
X177448501Y41926266D01*
X177447015Y42139225D01*
X177664457Y42136254D01*
X177664457Y41501822D01*
X177875930Y41500336D01*
X177875930Y41078876D01*
X178085917Y41080362D01*
X178085413Y40866163D01*
G37*
G36*
X197865413Y40866163D02*
G01*
X197865406Y40863205D01*
X197864418Y40442959D01*
X197654431Y40442959D01*
X197654431Y40232972D01*
X197442958Y40231486D01*
X197441493Y40021447D01*
X197441473Y40018515D01*
X197230000Y40020000D01*
X197231485Y39810026D01*
X195749664Y39805556D01*
X195748178Y40017029D01*
X195535220Y40020000D01*
X195533727Y40229200D01*
X195962261Y40229200D01*
X195963010Y40020698D01*
X196171498Y40021447D01*
X196170762Y40229200D01*
X196170762Y40229949D01*
X195962261Y40229200D01*
X195533727Y40229200D01*
X195533721Y40229988D01*
X195325232Y40231486D01*
X195323737Y40444083D01*
X196595284Y40444083D01*
X197018088Y40444083D01*
X197018088Y40863205D01*
X196806951Y40863205D01*
X196806951Y40652585D01*
X196595284Y40652585D01*
X196595284Y40444083D01*
X195323737Y40444083D01*
X195323734Y40444445D01*
X195112261Y40444445D01*
X195112261Y40447042D01*
X195541240Y40447042D01*
X195964056Y40447042D01*
X195964056Y40866163D01*
X195752907Y40866163D01*
X195752907Y40655543D01*
X195541240Y40655543D01*
X195541240Y40447042D01*
X195112261Y40447042D01*
X195112261Y41077378D01*
X195322248Y41078876D01*
X195323734Y41503308D01*
X195532235Y41501822D01*
X195535220Y42136254D01*
X195748178Y42133269D01*
X195748178Y41923282D01*
X195964121Y41926266D01*
X195962635Y41714794D01*
X197017028Y41713295D01*
X197018527Y41924768D01*
X197228501Y41926266D01*
X197227015Y42139225D01*
X197444457Y42136254D01*
X197444457Y41501822D01*
X197655930Y41500336D01*
X197655930Y41078876D01*
X197865917Y41080362D01*
X197865413Y40866163D01*
G37*
G36*
X19845413Y12866163D02*
G01*
X19845406Y12863205D01*
X19844418Y12442959D01*
X19634431Y12442959D01*
X19634431Y12232972D01*
X19422958Y12231486D01*
X19421493Y12021447D01*
X19421473Y12018515D01*
X19210000Y12020000D01*
X19211485Y11810026D01*
X17729664Y11805556D01*
X17728178Y12017029D01*
X17515220Y12020000D01*
X17513727Y12229200D01*
X17942261Y12229200D01*
X17943010Y12020698D01*
X18151498Y12021447D01*
X18150762Y12229200D01*
X18150762Y12229949D01*
X17942261Y12229200D01*
X17513727Y12229200D01*
X17513721Y12229988D01*
X17305232Y12231486D01*
X17303737Y12444083D01*
X18575284Y12444083D01*
X18998088Y12444083D01*
X18998088Y12863205D01*
X18786951Y12863205D01*
X18786951Y12652585D01*
X18575284Y12652585D01*
X18575284Y12444083D01*
X17303737Y12444083D01*
X17303734Y12444445D01*
X17092261Y12444445D01*
X17092261Y12447042D01*
X17521240Y12447042D01*
X17944056Y12447042D01*
X17944056Y12866163D01*
X17732907Y12866163D01*
X17732907Y12655543D01*
X17521240Y12655543D01*
X17521240Y12447042D01*
X17092261Y12447042D01*
X17092261Y13077378D01*
X17302248Y13078876D01*
X17303734Y13503308D01*
X17512235Y13501822D01*
X17515220Y14136254D01*
X17728178Y14133269D01*
X17728178Y13923282D01*
X17944121Y13926266D01*
X17942635Y13714794D01*
X18997028Y13713295D01*
X18998527Y13924768D01*
X19208501Y13926266D01*
X19207015Y14139225D01*
X19424457Y14136254D01*
X19424457Y13501822D01*
X19635930Y13500336D01*
X19635930Y13078876D01*
X19845917Y13080362D01*
X19845413Y12866163D01*
G37*
G36*
X39625413Y12866163D02*
G01*
X39625406Y12863205D01*
X39624418Y12442959D01*
X39414431Y12442959D01*
X39414431Y12232972D01*
X39202958Y12231486D01*
X39201493Y12021447D01*
X39201473Y12018515D01*
X38990000Y12020000D01*
X38991485Y11810026D01*
X37509664Y11805556D01*
X37508178Y12017029D01*
X37295220Y12020000D01*
X37293727Y12229200D01*
X37722261Y12229200D01*
X37723010Y12020698D01*
X37931498Y12021447D01*
X37930762Y12229200D01*
X37930762Y12229949D01*
X37722261Y12229200D01*
X37293727Y12229200D01*
X37293721Y12229988D01*
X37085232Y12231486D01*
X37083737Y12444083D01*
X38355284Y12444083D01*
X38778088Y12444083D01*
X38778088Y12863205D01*
X38566951Y12863205D01*
X38566951Y12652585D01*
X38355284Y12652585D01*
X38355284Y12444083D01*
X37083737Y12444083D01*
X37083734Y12444445D01*
X36872261Y12444445D01*
X36872261Y12447042D01*
X37301240Y12447042D01*
X37724056Y12447042D01*
X37724056Y12866163D01*
X37512907Y12866163D01*
X37512907Y12655543D01*
X37301240Y12655543D01*
X37301240Y12447042D01*
X36872261Y12447042D01*
X36872261Y13077378D01*
X37082248Y13078876D01*
X37083734Y13503308D01*
X37292235Y13501822D01*
X37295220Y14136254D01*
X37508178Y14133269D01*
X37508178Y13923282D01*
X37724121Y13926266D01*
X37722635Y13714794D01*
X38777028Y13713295D01*
X38778527Y13924768D01*
X38988501Y13926266D01*
X38987015Y14139225D01*
X39204457Y14136254D01*
X39204457Y13501822D01*
X39415930Y13500336D01*
X39415930Y13078876D01*
X39625917Y13080362D01*
X39625413Y12866163D01*
G37*
G36*
X59405413Y12866163D02*
G01*
X59405406Y12863205D01*
X59404418Y12442959D01*
X59194431Y12442959D01*
X59194431Y12232972D01*
X58982958Y12231486D01*
X58981493Y12021447D01*
X58981473Y12018515D01*
X58770000Y12020000D01*
X58771485Y11810026D01*
X57289664Y11805556D01*
X57288178Y12017029D01*
X57075220Y12020000D01*
X57073727Y12229200D01*
X57502261Y12229200D01*
X57503010Y12020698D01*
X57711498Y12021447D01*
X57710762Y12229200D01*
X57710762Y12229949D01*
X57502261Y12229200D01*
X57073727Y12229200D01*
X57073721Y12229988D01*
X56865232Y12231486D01*
X56863737Y12444083D01*
X58135284Y12444083D01*
X58558088Y12444083D01*
X58558088Y12863205D01*
X58346951Y12863205D01*
X58346951Y12652585D01*
X58135284Y12652585D01*
X58135284Y12444083D01*
X56863737Y12444083D01*
X56863734Y12444445D01*
X56652261Y12444445D01*
X56652261Y12447042D01*
X57081240Y12447042D01*
X57504056Y12447042D01*
X57504056Y12866163D01*
X57292907Y12866163D01*
X57292907Y12655543D01*
X57081240Y12655543D01*
X57081240Y12447042D01*
X56652261Y12447042D01*
X56652261Y13077378D01*
X56862248Y13078876D01*
X56863734Y13503308D01*
X57072235Y13501822D01*
X57075220Y14136254D01*
X57288178Y14133269D01*
X57288178Y13923282D01*
X57504121Y13926266D01*
X57502635Y13714794D01*
X58557028Y13713295D01*
X58558527Y13924768D01*
X58768501Y13926266D01*
X58767015Y14139225D01*
X58984457Y14136254D01*
X58984457Y13501822D01*
X59195930Y13500336D01*
X59195930Y13078876D01*
X59405917Y13080362D01*
X59405413Y12866163D01*
G37*
G36*
X79185413Y12866163D02*
G01*
X79185406Y12863205D01*
X79184418Y12442959D01*
X78974431Y12442959D01*
X78974431Y12232972D01*
X78762958Y12231486D01*
X78761493Y12021447D01*
X78761473Y12018515D01*
X78550000Y12020000D01*
X78551485Y11810026D01*
X77069664Y11805556D01*
X77068178Y12017029D01*
X76855220Y12020000D01*
X76853727Y12229200D01*
X77282261Y12229200D01*
X77283010Y12020698D01*
X77491498Y12021447D01*
X77490762Y12229200D01*
X77490762Y12229949D01*
X77282261Y12229200D01*
X76853727Y12229200D01*
X76853721Y12229988D01*
X76645232Y12231486D01*
X76643737Y12444083D01*
X77915284Y12444083D01*
X78338088Y12444083D01*
X78338088Y12863205D01*
X78126951Y12863205D01*
X78126951Y12652585D01*
X77915284Y12652585D01*
X77915284Y12444083D01*
X76643737Y12444083D01*
X76643734Y12444445D01*
X76432261Y12444445D01*
X76432261Y12447042D01*
X76861240Y12447042D01*
X77284056Y12447042D01*
X77284056Y12866163D01*
X77072907Y12866163D01*
X77072907Y12655543D01*
X76861240Y12655543D01*
X76861240Y12447042D01*
X76432261Y12447042D01*
X76432261Y13077378D01*
X76642248Y13078876D01*
X76643734Y13503308D01*
X76852235Y13501822D01*
X76855220Y14136254D01*
X77068178Y14133269D01*
X77068178Y13923282D01*
X77284121Y13926266D01*
X77282635Y13714794D01*
X78337028Y13713295D01*
X78338527Y13924768D01*
X78548501Y13926266D01*
X78547015Y14139225D01*
X78764457Y14136254D01*
X78764457Y13501822D01*
X78975930Y13500336D01*
X78975930Y13078876D01*
X79185917Y13080362D01*
X79185413Y12866163D01*
G37*
G36*
X98965413Y12866163D02*
G01*
X98965406Y12863205D01*
X98964418Y12442959D01*
X98754431Y12442959D01*
X98754431Y12232972D01*
X98542958Y12231486D01*
X98541493Y12021447D01*
X98541473Y12018515D01*
X98330000Y12020000D01*
X98331485Y11810026D01*
X96849664Y11805556D01*
X96848178Y12017029D01*
X96635220Y12020000D01*
X96633727Y12229200D01*
X97062261Y12229200D01*
X97063010Y12020698D01*
X97271498Y12021447D01*
X97270762Y12229200D01*
X97270762Y12229949D01*
X97062261Y12229200D01*
X96633727Y12229200D01*
X96633721Y12229988D01*
X96425232Y12231486D01*
X96423737Y12444083D01*
X97695284Y12444083D01*
X98118088Y12444083D01*
X98118088Y12863205D01*
X97906951Y12863205D01*
X97906951Y12652585D01*
X97695284Y12652585D01*
X97695284Y12444083D01*
X96423737Y12444083D01*
X96423734Y12444445D01*
X96212261Y12444445D01*
X96212261Y12447042D01*
X96641240Y12447042D01*
X97064056Y12447042D01*
X97064056Y12866163D01*
X96852907Y12866163D01*
X96852907Y12655543D01*
X96641240Y12655543D01*
X96641240Y12447042D01*
X96212261Y12447042D01*
X96212261Y13077378D01*
X96422248Y13078876D01*
X96423734Y13503308D01*
X96632235Y13501822D01*
X96635220Y14136254D01*
X96848178Y14133269D01*
X96848178Y13923282D01*
X97064121Y13926266D01*
X97062635Y13714794D01*
X98117028Y13713295D01*
X98118527Y13924768D01*
X98328501Y13926266D01*
X98327015Y14139225D01*
X98544457Y14136254D01*
X98544457Y13501822D01*
X98755930Y13500336D01*
X98755930Y13078876D01*
X98965917Y13080362D01*
X98965413Y12866163D01*
G37*
G36*
X118745413Y12866163D02*
G01*
X118745406Y12863205D01*
X118744418Y12442959D01*
X118534431Y12442959D01*
X118534431Y12232972D01*
X118322958Y12231486D01*
X118321493Y12021447D01*
X118321473Y12018515D01*
X118110000Y12020000D01*
X118111485Y11810026D01*
X116629664Y11805556D01*
X116628178Y12017029D01*
X116415220Y12020000D01*
X116413727Y12229200D01*
X116842261Y12229200D01*
X116843010Y12020698D01*
X117051498Y12021447D01*
X117050762Y12229200D01*
X117050762Y12229949D01*
X116842261Y12229200D01*
X116413727Y12229200D01*
X116413721Y12229988D01*
X116205232Y12231486D01*
X116203737Y12444083D01*
X117475284Y12444083D01*
X117898088Y12444083D01*
X117898088Y12863205D01*
X117686951Y12863205D01*
X117686951Y12652585D01*
X117475284Y12652585D01*
X117475284Y12444083D01*
X116203737Y12444083D01*
X116203734Y12444445D01*
X115992261Y12444445D01*
X115992261Y12447042D01*
X116421240Y12447042D01*
X116844056Y12447042D01*
X116844056Y12866163D01*
X116632907Y12866163D01*
X116632907Y12655543D01*
X116421240Y12655543D01*
X116421240Y12447042D01*
X115992261Y12447042D01*
X115992261Y13077378D01*
X116202248Y13078876D01*
X116203734Y13503308D01*
X116412235Y13501822D01*
X116415220Y14136254D01*
X116628178Y14133269D01*
X116628178Y13923282D01*
X116844121Y13926266D01*
X116842635Y13714794D01*
X117897028Y13713295D01*
X117898527Y13924768D01*
X118108501Y13926266D01*
X118107015Y14139225D01*
X118324457Y14136254D01*
X118324457Y13501822D01*
X118535930Y13500336D01*
X118535930Y13078876D01*
X118745917Y13080362D01*
X118745413Y12866163D01*
G37*
G36*
X138525413Y12866163D02*
G01*
X138525406Y12863205D01*
X138524418Y12442959D01*
X138314431Y12442959D01*
X138314431Y12232972D01*
X138102958Y12231486D01*
X138101493Y12021447D01*
X138101473Y12018515D01*
X137890000Y12020000D01*
X137891485Y11810026D01*
X136409664Y11805556D01*
X136408178Y12017029D01*
X136195220Y12020000D01*
X136193727Y12229200D01*
X136622261Y12229200D01*
X136623010Y12020698D01*
X136831498Y12021447D01*
X136830762Y12229200D01*
X136830762Y12229949D01*
X136622261Y12229200D01*
X136193727Y12229200D01*
X136193721Y12229988D01*
X135985232Y12231486D01*
X135983737Y12444083D01*
X137255284Y12444083D01*
X137678088Y12444083D01*
X137678088Y12863205D01*
X137466951Y12863205D01*
X137466951Y12652585D01*
X137255284Y12652585D01*
X137255284Y12444083D01*
X135983737Y12444083D01*
X135983734Y12444445D01*
X135772261Y12444445D01*
X135772261Y12447042D01*
X136201240Y12447042D01*
X136624056Y12447042D01*
X136624056Y12866163D01*
X136412907Y12866163D01*
X136412907Y12655543D01*
X136201240Y12655543D01*
X136201240Y12447042D01*
X135772261Y12447042D01*
X135772261Y13077378D01*
X135982248Y13078876D01*
X135983734Y13503308D01*
X136192235Y13501822D01*
X136195220Y14136254D01*
X136408178Y14133269D01*
X136408178Y13923282D01*
X136624121Y13926266D01*
X136622635Y13714794D01*
X137677028Y13713295D01*
X137678527Y13924768D01*
X137888501Y13926266D01*
X137887015Y14139225D01*
X138104457Y14136254D01*
X138104457Y13501822D01*
X138315930Y13500336D01*
X138315930Y13078876D01*
X138525917Y13080362D01*
X138525413Y12866163D01*
G37*
G36*
X158305413Y12866163D02*
G01*
X158305406Y12863205D01*
X158304418Y12442959D01*
X158094431Y12442959D01*
X158094431Y12232972D01*
X157882958Y12231486D01*
X157881493Y12021447D01*
X157881473Y12018515D01*
X157670000Y12020000D01*
X157671485Y11810026D01*
X156189664Y11805556D01*
X156188178Y12017029D01*
X155975220Y12020000D01*
X155973727Y12229200D01*
X156402261Y12229200D01*
X156403010Y12020698D01*
X156611498Y12021447D01*
X156610762Y12229200D01*
X156610762Y12229949D01*
X156402261Y12229200D01*
X155973727Y12229200D01*
X155973721Y12229988D01*
X155765232Y12231486D01*
X155763737Y12444083D01*
X157035284Y12444083D01*
X157458088Y12444083D01*
X157458088Y12863205D01*
X157246951Y12863205D01*
X157246951Y12652585D01*
X157035284Y12652585D01*
X157035284Y12444083D01*
X155763737Y12444083D01*
X155763734Y12444445D01*
X155552261Y12444445D01*
X155552261Y12447042D01*
X155981240Y12447042D01*
X156404056Y12447042D01*
X156404056Y12866163D01*
X156192907Y12866163D01*
X156192907Y12655543D01*
X155981240Y12655543D01*
X155981240Y12447042D01*
X155552261Y12447042D01*
X155552261Y13077378D01*
X155762248Y13078876D01*
X155763734Y13503308D01*
X155972235Y13501822D01*
X155975220Y14136254D01*
X156188178Y14133269D01*
X156188178Y13923282D01*
X156404121Y13926266D01*
X156402635Y13714794D01*
X157457028Y13713295D01*
X157458527Y13924768D01*
X157668501Y13926266D01*
X157667015Y14139225D01*
X157884457Y14136254D01*
X157884457Y13501822D01*
X158095930Y13500336D01*
X158095930Y13078876D01*
X158305917Y13080362D01*
X158305413Y12866163D01*
G37*
G36*
X178085413Y12866163D02*
G01*
X178085406Y12863205D01*
X178084418Y12442959D01*
X177874431Y12442959D01*
X177874431Y12232972D01*
X177662958Y12231486D01*
X177661493Y12021447D01*
X177661473Y12018515D01*
X177450000Y12020000D01*
X177451485Y11810026D01*
X175969664Y11805556D01*
X175968178Y12017029D01*
X175755220Y12020000D01*
X175753727Y12229200D01*
X176182261Y12229200D01*
X176183010Y12020698D01*
X176391498Y12021447D01*
X176390762Y12229200D01*
X176390762Y12229949D01*
X176182261Y12229200D01*
X175753727Y12229200D01*
X175753721Y12229988D01*
X175545232Y12231486D01*
X175543737Y12444083D01*
X176815284Y12444083D01*
X177238088Y12444083D01*
X177238088Y12863205D01*
X177026951Y12863205D01*
X177026951Y12652585D01*
X176815284Y12652585D01*
X176815284Y12444083D01*
X175543737Y12444083D01*
X175543734Y12444445D01*
X175332261Y12444445D01*
X175332261Y12447042D01*
X175761240Y12447042D01*
X176184056Y12447042D01*
X176184056Y12866163D01*
X175972907Y12866163D01*
X175972907Y12655543D01*
X175761240Y12655543D01*
X175761240Y12447042D01*
X175332261Y12447042D01*
X175332261Y13077378D01*
X175542248Y13078876D01*
X175543734Y13503308D01*
X175752235Y13501822D01*
X175755220Y14136254D01*
X175968178Y14133269D01*
X175968178Y13923282D01*
X176184121Y13926266D01*
X176182635Y13714794D01*
X177237028Y13713295D01*
X177238527Y13924768D01*
X177448501Y13926266D01*
X177447015Y14139225D01*
X177664457Y14136254D01*
X177664457Y13501822D01*
X177875930Y13500336D01*
X177875930Y13078876D01*
X178085917Y13080362D01*
X178085413Y12866163D01*
G37*
G36*
X197865413Y12866163D02*
G01*
X197865406Y12863205D01*
X197864418Y12442959D01*
X197654431Y12442959D01*
X197654431Y12232972D01*
X197442958Y12231486D01*
X197441493Y12021447D01*
X197441473Y12018515D01*
X197230000Y12020000D01*
X197231485Y11810026D01*
X195749664Y11805556D01*
X195748178Y12017029D01*
X195535220Y12020000D01*
X195533727Y12229200D01*
X195962261Y12229200D01*
X195963010Y12020698D01*
X196171498Y12021447D01*
X196170762Y12229200D01*
X196170762Y12229949D01*
X195962261Y12229200D01*
X195533727Y12229200D01*
X195533721Y12229988D01*
X195325232Y12231486D01*
X195323737Y12444083D01*
X196595284Y12444083D01*
X197018088Y12444083D01*
X197018088Y12863205D01*
X196806951Y12863205D01*
X196806951Y12652585D01*
X196595284Y12652585D01*
X196595284Y12444083D01*
X195323737Y12444083D01*
X195323734Y12444445D01*
X195112261Y12444445D01*
X195112261Y12447042D01*
X195541240Y12447042D01*
X195964056Y12447042D01*
X195964056Y12866163D01*
X195752907Y12866163D01*
X195752907Y12655543D01*
X195541240Y12655543D01*
X195541240Y12447042D01*
X195112261Y12447042D01*
X195112261Y13077378D01*
X195322248Y13078876D01*
X195323734Y13503308D01*
X195532235Y13501822D01*
X195535220Y14136254D01*
X195748178Y14133269D01*
X195748178Y13923282D01*
X195964121Y13926266D01*
X195962635Y13714794D01*
X197017028Y13713295D01*
X197018527Y13924768D01*
X197228501Y13926266D01*
X197227015Y14139225D01*
X197444457Y14136254D01*
X197444457Y13501822D01*
X197655930Y13500336D01*
X197655930Y13078876D01*
X197865917Y13080362D01*
X197865413Y12866163D01*
G37*
D11*
X16392253Y126024314D02*
X15535110Y126024314D01*
X16297015Y125452886D02*
X15630348Y125452886D01*
X16773205Y125357648D02*
X16487491Y125357648D01*
X16297015Y125119553D02*
X15630348Y125119553D01*
X16773205Y126071934D02*
X16773205Y125262410D01*
X16773205Y126071934D02*
X16487491Y126071934D01*
X16487491Y126071934D02*
X16487491Y125405267D01*
X16297015Y125738600D02*
X16297015Y125071934D01*
X16154158Y126167172D02*
X16154158Y125833838D01*
X15963682Y125738600D02*
X15963682Y125167172D01*
X15773205Y126167172D02*
X15773205Y125833838D01*
X16297015Y125738600D02*
X15630348Y125738600D01*
X15630348Y125738600D02*
X15630348Y125071934D01*
X36172253Y126024314D02*
X35315110Y126024314D01*
X36077015Y125452886D02*
X35410348Y125452886D01*
X36553205Y125357648D02*
X36267491Y125357648D01*
X36077015Y125119553D02*
X35410348Y125119553D01*
X36553205Y126071934D02*
X36553205Y125262410D01*
X36553205Y126071934D02*
X36267491Y126071934D01*
X36267491Y126071934D02*
X36267491Y125405267D01*
X36077015Y125738600D02*
X36077015Y125071934D01*
X35934158Y126167172D02*
X35934158Y125833838D01*
X35743682Y125738600D02*
X35743682Y125167172D01*
X35553205Y126167172D02*
X35553205Y125833838D01*
X36077015Y125738600D02*
X35410348Y125738600D01*
X35410348Y125738600D02*
X35410348Y125071934D01*
X55952253Y126024314D02*
X55095110Y126024314D01*
X55857015Y125452886D02*
X55190348Y125452886D01*
X56333205Y125357648D02*
X56047491Y125357648D01*
X55857015Y125119553D02*
X55190348Y125119553D01*
X56333205Y126071934D02*
X56333205Y125262410D01*
X56333205Y126071934D02*
X56047491Y126071934D01*
X56047491Y126071934D02*
X56047491Y125405267D01*
X55857015Y125738600D02*
X55857015Y125071934D01*
X55714158Y126167172D02*
X55714158Y125833838D01*
X55523682Y125738600D02*
X55523682Y125167172D01*
X55333205Y126167172D02*
X55333205Y125833838D01*
X55857015Y125738600D02*
X55190348Y125738600D01*
X55190348Y125738600D02*
X55190348Y125071934D01*
X75732253Y126024314D02*
X74875110Y126024314D01*
X75637015Y125452886D02*
X74970348Y125452886D01*
X76113205Y125357648D02*
X75827491Y125357648D01*
X75637015Y125119553D02*
X74970348Y125119553D01*
X76113205Y126071934D02*
X76113205Y125262410D01*
X76113205Y126071934D02*
X75827491Y126071934D01*
X75827491Y126071934D02*
X75827491Y125405267D01*
X75637015Y125738600D02*
X75637015Y125071934D01*
X75494158Y126167172D02*
X75494158Y125833838D01*
X75303682Y125738600D02*
X75303682Y125167172D01*
X75113205Y126167172D02*
X75113205Y125833838D01*
X75637015Y125738600D02*
X74970348Y125738600D01*
X74970348Y125738600D02*
X74970348Y125071934D01*
X95512253Y126024314D02*
X94655110Y126024314D01*
X95417015Y125452886D02*
X94750348Y125452886D01*
X95893205Y125357648D02*
X95607491Y125357648D01*
X95417015Y125119553D02*
X94750348Y125119553D01*
X95893205Y126071934D02*
X95893205Y125262410D01*
X95893205Y126071934D02*
X95607491Y126071934D01*
X95607491Y126071934D02*
X95607491Y125405267D01*
X95417015Y125738600D02*
X95417015Y125071934D01*
X95274158Y126167172D02*
X95274158Y125833838D01*
X95083682Y125738600D02*
X95083682Y125167172D01*
X94893205Y126167172D02*
X94893205Y125833838D01*
X95417015Y125738600D02*
X94750348Y125738600D01*
X94750348Y125738600D02*
X94750348Y125071934D01*
X115292253Y126024314D02*
X114435110Y126024314D01*
X115197015Y125452886D02*
X114530348Y125452886D01*
X115673205Y125357648D02*
X115387491Y125357648D01*
X115197015Y125119553D02*
X114530348Y125119553D01*
X115673205Y126071934D02*
X115673205Y125262410D01*
X115673205Y126071934D02*
X115387491Y126071934D01*
X115387491Y126071934D02*
X115387491Y125405267D01*
X115197015Y125738600D02*
X115197015Y125071934D01*
X115054158Y126167172D02*
X115054158Y125833838D01*
X114863682Y125738600D02*
X114863682Y125167172D01*
X114673205Y126167172D02*
X114673205Y125833838D01*
X115197015Y125738600D02*
X114530348Y125738600D01*
X114530348Y125738600D02*
X114530348Y125071934D01*
X135072253Y126024314D02*
X134215110Y126024314D01*
X134977015Y125452886D02*
X134310348Y125452886D01*
X135453205Y125357648D02*
X135167491Y125357648D01*
X134977015Y125119553D02*
X134310348Y125119553D01*
X135453205Y126071934D02*
X135453205Y125262410D01*
X135453205Y126071934D02*
X135167491Y126071934D01*
X135167491Y126071934D02*
X135167491Y125405267D01*
X134977015Y125738600D02*
X134977015Y125071934D01*
X134834158Y126167172D02*
X134834158Y125833838D01*
X134643682Y125738600D02*
X134643682Y125167172D01*
X134453205Y126167172D02*
X134453205Y125833838D01*
X134977015Y125738600D02*
X134310348Y125738600D01*
X134310348Y125738600D02*
X134310348Y125071934D01*
X154852253Y126024314D02*
X153995110Y126024314D01*
X154757015Y125452886D02*
X154090348Y125452886D01*
X155233205Y125357648D02*
X154947491Y125357648D01*
X154757015Y125119553D02*
X154090348Y125119553D01*
X155233205Y126071934D02*
X155233205Y125262410D01*
X155233205Y126071934D02*
X154947491Y126071934D01*
X154947491Y126071934D02*
X154947491Y125405267D01*
X154757015Y125738600D02*
X154757015Y125071934D01*
X154614158Y126167172D02*
X154614158Y125833838D01*
X154423682Y125738600D02*
X154423682Y125167172D01*
X154233205Y126167172D02*
X154233205Y125833838D01*
X154757015Y125738600D02*
X154090348Y125738600D01*
X154090348Y125738600D02*
X154090348Y125071934D01*
X174632253Y126024314D02*
X173775110Y126024314D01*
X174537015Y125452886D02*
X173870348Y125452886D01*
X175013205Y125357648D02*
X174727491Y125357648D01*
X174537015Y125119553D02*
X173870348Y125119553D01*
X175013205Y126071934D02*
X175013205Y125262410D01*
X175013205Y126071934D02*
X174727491Y126071934D01*
X174727491Y126071934D02*
X174727491Y125405267D01*
X174537015Y125738600D02*
X174537015Y125071934D01*
X174394158Y126167172D02*
X174394158Y125833838D01*
X174203682Y125738600D02*
X174203682Y125167172D01*
X174013205Y126167172D02*
X174013205Y125833838D01*
X174537015Y125738600D02*
X173870348Y125738600D01*
X173870348Y125738600D02*
X173870348Y125071934D01*
X194412253Y126024314D02*
X193555110Y126024314D01*
X194317015Y125452886D02*
X193650348Y125452886D01*
X194793205Y125357648D02*
X194507491Y125357648D01*
X194317015Y125119553D02*
X193650348Y125119553D01*
X194793205Y126071934D02*
X194793205Y125262410D01*
X194793205Y126071934D02*
X194507491Y126071934D01*
X194507491Y126071934D02*
X194507491Y125405267D01*
X194317015Y125738600D02*
X194317015Y125071934D01*
X194174158Y126167172D02*
X194174158Y125833838D01*
X193983682Y125738600D02*
X193983682Y125167172D01*
X193793205Y126167172D02*
X193793205Y125833838D01*
X194317015Y125738600D02*
X193650348Y125738600D01*
X193650348Y125738600D02*
X193650348Y125071934D01*
X16392253Y98024314D02*
X15535110Y98024314D01*
X16297015Y97452886D02*
X15630348Y97452886D01*
X16773205Y97357648D02*
X16487491Y97357648D01*
X16297015Y97119553D02*
X15630348Y97119553D01*
X16773205Y98071934D02*
X16773205Y97262410D01*
X16773205Y98071934D02*
X16487491Y98071934D01*
X16487491Y98071934D02*
X16487491Y97405267D01*
X16297015Y97738600D02*
X16297015Y97071934D01*
X16154158Y98167172D02*
X16154158Y97833838D01*
X15963682Y97738600D02*
X15963682Y97167172D01*
X15773205Y98167172D02*
X15773205Y97833838D01*
X16297015Y97738600D02*
X15630348Y97738600D01*
X15630348Y97738600D02*
X15630348Y97071934D01*
X36172253Y98024314D02*
X35315110Y98024314D01*
X36077015Y97452886D02*
X35410348Y97452886D01*
X36553205Y97357648D02*
X36267491Y97357648D01*
X36077015Y97119553D02*
X35410348Y97119553D01*
X36553205Y98071934D02*
X36553205Y97262410D01*
X36553205Y98071934D02*
X36267491Y98071934D01*
X36267491Y98071934D02*
X36267491Y97405267D01*
X36077015Y97738600D02*
X36077015Y97071934D01*
X35934158Y98167172D02*
X35934158Y97833838D01*
X35743682Y97738600D02*
X35743682Y97167172D01*
X35553205Y98167172D02*
X35553205Y97833838D01*
X36077015Y97738600D02*
X35410348Y97738600D01*
X35410348Y97738600D02*
X35410348Y97071934D01*
X55952253Y98024314D02*
X55095110Y98024314D01*
X55857015Y97452886D02*
X55190348Y97452886D01*
X56333205Y97357648D02*
X56047491Y97357648D01*
X55857015Y97119553D02*
X55190348Y97119553D01*
X56333205Y98071934D02*
X56333205Y97262410D01*
X56333205Y98071934D02*
X56047491Y98071934D01*
X56047491Y98071934D02*
X56047491Y97405267D01*
X55857015Y97738600D02*
X55857015Y97071934D01*
X55714158Y98167172D02*
X55714158Y97833838D01*
X55523682Y97738600D02*
X55523682Y97167172D01*
X55333205Y98167172D02*
X55333205Y97833838D01*
X55857015Y97738600D02*
X55190348Y97738600D01*
X55190348Y97738600D02*
X55190348Y97071934D01*
X75732253Y98024314D02*
X74875110Y98024314D01*
X75637015Y97452886D02*
X74970348Y97452886D01*
X76113205Y97357648D02*
X75827491Y97357648D01*
X75637015Y97119553D02*
X74970348Y97119553D01*
X76113205Y98071934D02*
X76113205Y97262410D01*
X76113205Y98071934D02*
X75827491Y98071934D01*
X75827491Y98071934D02*
X75827491Y97405267D01*
X75637015Y97738600D02*
X75637015Y97071934D01*
X75494158Y98167172D02*
X75494158Y97833838D01*
X75303682Y97738600D02*
X75303682Y97167172D01*
X75113205Y98167172D02*
X75113205Y97833838D01*
X75637015Y97738600D02*
X74970348Y97738600D01*
X74970348Y97738600D02*
X74970348Y97071934D01*
X95512253Y98024314D02*
X94655110Y98024314D01*
X95417015Y97452886D02*
X94750348Y97452886D01*
X95893205Y97357648D02*
X95607491Y97357648D01*
X95417015Y97119553D02*
X94750348Y97119553D01*
X95893205Y98071934D02*
X95893205Y97262410D01*
X95893205Y98071934D02*
X95607491Y98071934D01*
X95607491Y98071934D02*
X95607491Y97405267D01*
X95417015Y97738600D02*
X95417015Y97071934D01*
X95274158Y98167172D02*
X95274158Y97833838D01*
X95083682Y97738600D02*
X95083682Y97167172D01*
X94893205Y98167172D02*
X94893205Y97833838D01*
X95417015Y97738600D02*
X94750348Y97738600D01*
X94750348Y97738600D02*
X94750348Y97071934D01*
X115292253Y98024314D02*
X114435110Y98024314D01*
X115197015Y97452886D02*
X114530348Y97452886D01*
X115673205Y97357648D02*
X115387491Y97357648D01*
X115197015Y97119553D02*
X114530348Y97119553D01*
X115673205Y98071934D02*
X115673205Y97262410D01*
X115673205Y98071934D02*
X115387491Y98071934D01*
X115387491Y98071934D02*
X115387491Y97405267D01*
X115197015Y97738600D02*
X115197015Y97071934D01*
X115054158Y98167172D02*
X115054158Y97833838D01*
X114863682Y97738600D02*
X114863682Y97167172D01*
X114673205Y98167172D02*
X114673205Y97833838D01*
X115197015Y97738600D02*
X114530348Y97738600D01*
X114530348Y97738600D02*
X114530348Y97071934D01*
X135072253Y98024314D02*
X134215110Y98024314D01*
X134977015Y97452886D02*
X134310348Y97452886D01*
X135453205Y97357648D02*
X135167491Y97357648D01*
X134977015Y97119553D02*
X134310348Y97119553D01*
X135453205Y98071934D02*
X135453205Y97262410D01*
X135453205Y98071934D02*
X135167491Y98071934D01*
X135167491Y98071934D02*
X135167491Y97405267D01*
X134977015Y97738600D02*
X134977015Y97071934D01*
X134834158Y98167172D02*
X134834158Y97833838D01*
X134643682Y97738600D02*
X134643682Y97167172D01*
X134453205Y98167172D02*
X134453205Y97833838D01*
X134977015Y97738600D02*
X134310348Y97738600D01*
X134310348Y97738600D02*
X134310348Y97071934D01*
X154852253Y98024314D02*
X153995110Y98024314D01*
X154757015Y97452886D02*
X154090348Y97452886D01*
X155233205Y97357648D02*
X154947491Y97357648D01*
X154757015Y97119553D02*
X154090348Y97119553D01*
X155233205Y98071934D02*
X155233205Y97262410D01*
X155233205Y98071934D02*
X154947491Y98071934D01*
X154947491Y98071934D02*
X154947491Y97405267D01*
X154757015Y97738600D02*
X154757015Y97071934D01*
X154614158Y98167172D02*
X154614158Y97833838D01*
X154423682Y97738600D02*
X154423682Y97167172D01*
X154233205Y98167172D02*
X154233205Y97833838D01*
X154757015Y97738600D02*
X154090348Y97738600D01*
X154090348Y97738600D02*
X154090348Y97071934D01*
X174632253Y98024314D02*
X173775110Y98024314D01*
X174537015Y97452886D02*
X173870348Y97452886D01*
X175013205Y97357648D02*
X174727491Y97357648D01*
X174537015Y97119553D02*
X173870348Y97119553D01*
X175013205Y98071934D02*
X175013205Y97262410D01*
X175013205Y98071934D02*
X174727491Y98071934D01*
X174727491Y98071934D02*
X174727491Y97405267D01*
X174537015Y97738600D02*
X174537015Y97071934D01*
X174394158Y98167172D02*
X174394158Y97833838D01*
X174203682Y97738600D02*
X174203682Y97167172D01*
X174013205Y98167172D02*
X174013205Y97833838D01*
X174537015Y97738600D02*
X173870348Y97738600D01*
X173870348Y97738600D02*
X173870348Y97071934D01*
X194412253Y98024314D02*
X193555110Y98024314D01*
X194317015Y97452886D02*
X193650348Y97452886D01*
X194793205Y97357648D02*
X194507491Y97357648D01*
X194317015Y97119553D02*
X193650348Y97119553D01*
X194793205Y98071934D02*
X194793205Y97262410D01*
X194793205Y98071934D02*
X194507491Y98071934D01*
X194507491Y98071934D02*
X194507491Y97405267D01*
X194317015Y97738600D02*
X194317015Y97071934D01*
X194174158Y98167172D02*
X194174158Y97833838D01*
X193983682Y97738600D02*
X193983682Y97167172D01*
X193793205Y98167172D02*
X193793205Y97833838D01*
X194317015Y97738600D02*
X193650348Y97738600D01*
X193650348Y97738600D02*
X193650348Y97071934D01*
X16392253Y70024314D02*
X15535110Y70024314D01*
X16297015Y69452886D02*
X15630348Y69452886D01*
X16773205Y69357648D02*
X16487491Y69357648D01*
X16297015Y69119553D02*
X15630348Y69119553D01*
X16773205Y70071934D02*
X16773205Y69262410D01*
X16773205Y70071934D02*
X16487491Y70071934D01*
X16487491Y70071934D02*
X16487491Y69405267D01*
X16297015Y69738600D02*
X16297015Y69071934D01*
X16154158Y70167172D02*
X16154158Y69833838D01*
X15963682Y69738600D02*
X15963682Y69167172D01*
X15773205Y70167172D02*
X15773205Y69833838D01*
X16297015Y69738600D02*
X15630348Y69738600D01*
X15630348Y69738600D02*
X15630348Y69071934D01*
X36172253Y70024314D02*
X35315110Y70024314D01*
X36077015Y69452886D02*
X35410348Y69452886D01*
X36553205Y69357648D02*
X36267491Y69357648D01*
X36077015Y69119553D02*
X35410348Y69119553D01*
X36553205Y70071934D02*
X36553205Y69262410D01*
X36553205Y70071934D02*
X36267491Y70071934D01*
X36267491Y70071934D02*
X36267491Y69405267D01*
X36077015Y69738600D02*
X36077015Y69071934D01*
X35934158Y70167172D02*
X35934158Y69833838D01*
X35743682Y69738600D02*
X35743682Y69167172D01*
X35553205Y70167172D02*
X35553205Y69833838D01*
X36077015Y69738600D02*
X35410348Y69738600D01*
X35410348Y69738600D02*
X35410348Y69071934D01*
X55952253Y70024314D02*
X55095110Y70024314D01*
X55857015Y69452886D02*
X55190348Y69452886D01*
X56333205Y69357648D02*
X56047491Y69357648D01*
X55857015Y69119553D02*
X55190348Y69119553D01*
X56333205Y70071934D02*
X56333205Y69262410D01*
X56333205Y70071934D02*
X56047491Y70071934D01*
X56047491Y70071934D02*
X56047491Y69405267D01*
X55857015Y69738600D02*
X55857015Y69071934D01*
X55714158Y70167172D02*
X55714158Y69833838D01*
X55523682Y69738600D02*
X55523682Y69167172D01*
X55333205Y70167172D02*
X55333205Y69833838D01*
X55857015Y69738600D02*
X55190348Y69738600D01*
X55190348Y69738600D02*
X55190348Y69071934D01*
X75732253Y70024314D02*
X74875110Y70024314D01*
X75637015Y69452886D02*
X74970348Y69452886D01*
X76113205Y69357648D02*
X75827491Y69357648D01*
X75637015Y69119553D02*
X74970348Y69119553D01*
X76113205Y70071934D02*
X76113205Y69262410D01*
X76113205Y70071934D02*
X75827491Y70071934D01*
X75827491Y70071934D02*
X75827491Y69405267D01*
X75637015Y69738600D02*
X75637015Y69071934D01*
X75494158Y70167172D02*
X75494158Y69833838D01*
X75303682Y69738600D02*
X75303682Y69167172D01*
X75113205Y70167172D02*
X75113205Y69833838D01*
X75637015Y69738600D02*
X74970348Y69738600D01*
X74970348Y69738600D02*
X74970348Y69071934D01*
X95512253Y70024314D02*
X94655110Y70024314D01*
X95417015Y69452886D02*
X94750348Y69452886D01*
X95893205Y69357648D02*
X95607491Y69357648D01*
X95417015Y69119553D02*
X94750348Y69119553D01*
X95893205Y70071934D02*
X95893205Y69262410D01*
X95893205Y70071934D02*
X95607491Y70071934D01*
X95607491Y70071934D02*
X95607491Y69405267D01*
X95417015Y69738600D02*
X95417015Y69071934D01*
X95274158Y70167172D02*
X95274158Y69833838D01*
X95083682Y69738600D02*
X95083682Y69167172D01*
X94893205Y70167172D02*
X94893205Y69833838D01*
X95417015Y69738600D02*
X94750348Y69738600D01*
X94750348Y69738600D02*
X94750348Y69071934D01*
X115292253Y70024314D02*
X114435110Y70024314D01*
X115197015Y69452886D02*
X114530348Y69452886D01*
X115673205Y69357648D02*
X115387491Y69357648D01*
X115197015Y69119553D02*
X114530348Y69119553D01*
X115673205Y70071934D02*
X115673205Y69262410D01*
X115673205Y70071934D02*
X115387491Y70071934D01*
X115387491Y70071934D02*
X115387491Y69405267D01*
X115197015Y69738600D02*
X115197015Y69071934D01*
X115054158Y70167172D02*
X115054158Y69833838D01*
X114863682Y69738600D02*
X114863682Y69167172D01*
X114673205Y70167172D02*
X114673205Y69833838D01*
X115197015Y69738600D02*
X114530348Y69738600D01*
X114530348Y69738600D02*
X114530348Y69071934D01*
X135072253Y70024314D02*
X134215110Y70024314D01*
X134977015Y69452886D02*
X134310348Y69452886D01*
X135453205Y69357648D02*
X135167491Y69357648D01*
X134977015Y69119553D02*
X134310348Y69119553D01*
X135453205Y70071934D02*
X135453205Y69262410D01*
X135453205Y70071934D02*
X135167491Y70071934D01*
X135167491Y70071934D02*
X135167491Y69405267D01*
X134977015Y69738600D02*
X134977015Y69071934D01*
X134834158Y70167172D02*
X134834158Y69833838D01*
X134643682Y69738600D02*
X134643682Y69167172D01*
X134453205Y70167172D02*
X134453205Y69833838D01*
X134977015Y69738600D02*
X134310348Y69738600D01*
X134310348Y69738600D02*
X134310348Y69071934D01*
X154852253Y70024314D02*
X153995110Y70024314D01*
X154757015Y69452886D02*
X154090348Y69452886D01*
X155233205Y69357648D02*
X154947491Y69357648D01*
X154757015Y69119553D02*
X154090348Y69119553D01*
X155233205Y70071934D02*
X155233205Y69262410D01*
X155233205Y70071934D02*
X154947491Y70071934D01*
X154947491Y70071934D02*
X154947491Y69405267D01*
X154757015Y69738600D02*
X154757015Y69071934D01*
X154614158Y70167172D02*
X154614158Y69833838D01*
X154423682Y69738600D02*
X154423682Y69167172D01*
X154233205Y70167172D02*
X154233205Y69833838D01*
X154757015Y69738600D02*
X154090348Y69738600D01*
X154090348Y69738600D02*
X154090348Y69071934D01*
X174632253Y70024314D02*
X173775110Y70024314D01*
X174537015Y69452886D02*
X173870348Y69452886D01*
X175013205Y69357648D02*
X174727491Y69357648D01*
X174537015Y69119553D02*
X173870348Y69119553D01*
X175013205Y70071934D02*
X175013205Y69262410D01*
X175013205Y70071934D02*
X174727491Y70071934D01*
X174727491Y70071934D02*
X174727491Y69405267D01*
X174537015Y69738600D02*
X174537015Y69071934D01*
X174394158Y70167172D02*
X174394158Y69833838D01*
X174203682Y69738600D02*
X174203682Y69167172D01*
X174013205Y70167172D02*
X174013205Y69833838D01*
X174537015Y69738600D02*
X173870348Y69738600D01*
X173870348Y69738600D02*
X173870348Y69071934D01*
X194412253Y70024314D02*
X193555110Y70024314D01*
X194317015Y69452886D02*
X193650348Y69452886D01*
X194793205Y69357648D02*
X194507491Y69357648D01*
X194317015Y69119553D02*
X193650348Y69119553D01*
X194793205Y70071934D02*
X194793205Y69262410D01*
X194793205Y70071934D02*
X194507491Y70071934D01*
X194507491Y70071934D02*
X194507491Y69405267D01*
X194317015Y69738600D02*
X194317015Y69071934D01*
X194174158Y70167172D02*
X194174158Y69833838D01*
X193983682Y69738600D02*
X193983682Y69167172D01*
X193793205Y70167172D02*
X193793205Y69833838D01*
X194317015Y69738600D02*
X193650348Y69738600D01*
X193650348Y69738600D02*
X193650348Y69071934D01*
X16392253Y42024314D02*
X15535110Y42024314D01*
X16297015Y41452886D02*
X15630348Y41452886D01*
X16773205Y41357648D02*
X16487491Y41357648D01*
X16297015Y41119553D02*
X15630348Y41119553D01*
X16773205Y42071934D02*
X16773205Y41262410D01*
X16773205Y42071934D02*
X16487491Y42071934D01*
X16487491Y42071934D02*
X16487491Y41405267D01*
X16297015Y41738600D02*
X16297015Y41071934D01*
X16154158Y42167172D02*
X16154158Y41833838D01*
X15963682Y41738600D02*
X15963682Y41167172D01*
X15773205Y42167172D02*
X15773205Y41833838D01*
X16297015Y41738600D02*
X15630348Y41738600D01*
X15630348Y41738600D02*
X15630348Y41071934D01*
X36172253Y42024314D02*
X35315110Y42024314D01*
X36077015Y41452886D02*
X35410348Y41452886D01*
X36553205Y41357648D02*
X36267491Y41357648D01*
X36077015Y41119553D02*
X35410348Y41119553D01*
X36553205Y42071934D02*
X36553205Y41262410D01*
X36553205Y42071934D02*
X36267491Y42071934D01*
X36267491Y42071934D02*
X36267491Y41405267D01*
X36077015Y41738600D02*
X36077015Y41071934D01*
X35934158Y42167172D02*
X35934158Y41833838D01*
X35743682Y41738600D02*
X35743682Y41167172D01*
X35553205Y42167172D02*
X35553205Y41833838D01*
X36077015Y41738600D02*
X35410348Y41738600D01*
X35410348Y41738600D02*
X35410348Y41071934D01*
X55952253Y42024314D02*
X55095110Y42024314D01*
X55857015Y41452886D02*
X55190348Y41452886D01*
X56333205Y41357648D02*
X56047491Y41357648D01*
X55857015Y41119553D02*
X55190348Y41119553D01*
X56333205Y42071934D02*
X56333205Y41262410D01*
X56333205Y42071934D02*
X56047491Y42071934D01*
X56047491Y42071934D02*
X56047491Y41405267D01*
X55857015Y41738600D02*
X55857015Y41071934D01*
X55714158Y42167172D02*
X55714158Y41833838D01*
X55523682Y41738600D02*
X55523682Y41167172D01*
X55333205Y42167172D02*
X55333205Y41833838D01*
X55857015Y41738600D02*
X55190348Y41738600D01*
X55190348Y41738600D02*
X55190348Y41071934D01*
X75732253Y42024314D02*
X74875110Y42024314D01*
X75637015Y41452886D02*
X74970348Y41452886D01*
X76113205Y41357648D02*
X75827491Y41357648D01*
X75637015Y41119553D02*
X74970348Y41119553D01*
X76113205Y42071934D02*
X76113205Y41262410D01*
X76113205Y42071934D02*
X75827491Y42071934D01*
X75827491Y42071934D02*
X75827491Y41405267D01*
X75637015Y41738600D02*
X75637015Y41071934D01*
X75494158Y42167172D02*
X75494158Y41833838D01*
X75303682Y41738600D02*
X75303682Y41167172D01*
X75113205Y42167172D02*
X75113205Y41833838D01*
X75637015Y41738600D02*
X74970348Y41738600D01*
X74970348Y41738600D02*
X74970348Y41071934D01*
X95512253Y42024314D02*
X94655110Y42024314D01*
X95417015Y41452886D02*
X94750348Y41452886D01*
X95893205Y41357648D02*
X95607491Y41357648D01*
X95417015Y41119553D02*
X94750348Y41119553D01*
X95893205Y42071934D02*
X95893205Y41262410D01*
X95893205Y42071934D02*
X95607491Y42071934D01*
X95607491Y42071934D02*
X95607491Y41405267D01*
X95417015Y41738600D02*
X95417015Y41071934D01*
X95274158Y42167172D02*
X95274158Y41833838D01*
X95083682Y41738600D02*
X95083682Y41167172D01*
X94893205Y42167172D02*
X94893205Y41833838D01*
X95417015Y41738600D02*
X94750348Y41738600D01*
X94750348Y41738600D02*
X94750348Y41071934D01*
X115292253Y42024314D02*
X114435110Y42024314D01*
X115197015Y41452886D02*
X114530348Y41452886D01*
X115673205Y41357648D02*
X115387491Y41357648D01*
X115197015Y41119553D02*
X114530348Y41119553D01*
X115673205Y42071934D02*
X115673205Y41262410D01*
X115673205Y42071934D02*
X115387491Y42071934D01*
X115387491Y42071934D02*
X115387491Y41405267D01*
X115197015Y41738600D02*
X115197015Y41071934D01*
X115054158Y42167172D02*
X115054158Y41833838D01*
X114863682Y41738600D02*
X114863682Y41167172D01*
X114673205Y42167172D02*
X114673205Y41833838D01*
X115197015Y41738600D02*
X114530348Y41738600D01*
X114530348Y41738600D02*
X114530348Y41071934D01*
X135072253Y42024314D02*
X134215110Y42024314D01*
X134977015Y41452886D02*
X134310348Y41452886D01*
X135453205Y41357648D02*
X135167491Y41357648D01*
X134977015Y41119553D02*
X134310348Y41119553D01*
X135453205Y42071934D02*
X135453205Y41262410D01*
X135453205Y42071934D02*
X135167491Y42071934D01*
X135167491Y42071934D02*
X135167491Y41405267D01*
X134977015Y41738600D02*
X134977015Y41071934D01*
X134834158Y42167172D02*
X134834158Y41833838D01*
X134643682Y41738600D02*
X134643682Y41167172D01*
X134453205Y42167172D02*
X134453205Y41833838D01*
X134977015Y41738600D02*
X134310348Y41738600D01*
X134310348Y41738600D02*
X134310348Y41071934D01*
X154852253Y42024314D02*
X153995110Y42024314D01*
X154757015Y41452886D02*
X154090348Y41452886D01*
X155233205Y41357648D02*
X154947491Y41357648D01*
X154757015Y41119553D02*
X154090348Y41119553D01*
X155233205Y42071934D02*
X155233205Y41262410D01*
X155233205Y42071934D02*
X154947491Y42071934D01*
X154947491Y42071934D02*
X154947491Y41405267D01*
X154757015Y41738600D02*
X154757015Y41071934D01*
X154614158Y42167172D02*
X154614158Y41833838D01*
X154423682Y41738600D02*
X154423682Y41167172D01*
X154233205Y42167172D02*
X154233205Y41833838D01*
X154757015Y41738600D02*
X154090348Y41738600D01*
X154090348Y41738600D02*
X154090348Y41071934D01*
X174632253Y42024314D02*
X173775110Y42024314D01*
X174537015Y41452886D02*
X173870348Y41452886D01*
X175013205Y41357648D02*
X174727491Y41357648D01*
X174537015Y41119553D02*
X173870348Y41119553D01*
X175013205Y42071934D02*
X175013205Y41262410D01*
X175013205Y42071934D02*
X174727491Y42071934D01*
X174727491Y42071934D02*
X174727491Y41405267D01*
X174537015Y41738600D02*
X174537015Y41071934D01*
X174394158Y42167172D02*
X174394158Y41833838D01*
X174203682Y41738600D02*
X174203682Y41167172D01*
X174013205Y42167172D02*
X174013205Y41833838D01*
X174537015Y41738600D02*
X173870348Y41738600D01*
X173870348Y41738600D02*
X173870348Y41071934D01*
X194412253Y42024314D02*
X193555110Y42024314D01*
X194317015Y41452886D02*
X193650348Y41452886D01*
X194793205Y41357648D02*
X194507491Y41357648D01*
X194317015Y41119553D02*
X193650348Y41119553D01*
X194793205Y42071934D02*
X194793205Y41262410D01*
X194793205Y42071934D02*
X194507491Y42071934D01*
X194507491Y42071934D02*
X194507491Y41405267D01*
X194317015Y41738600D02*
X194317015Y41071934D01*
X194174158Y42167172D02*
X194174158Y41833838D01*
X193983682Y41738600D02*
X193983682Y41167172D01*
X193793205Y42167172D02*
X193793205Y41833838D01*
X194317015Y41738600D02*
X193650348Y41738600D01*
X193650348Y41738600D02*
X193650348Y41071934D01*
X16392253Y14024314D02*
X15535110Y14024314D01*
X16297015Y13452886D02*
X15630348Y13452886D01*
X16773205Y13357648D02*
X16487491Y13357648D01*
X16297015Y13119553D02*
X15630348Y13119553D01*
X16773205Y14071934D02*
X16773205Y13262410D01*
X16773205Y14071934D02*
X16487491Y14071934D01*
X16487491Y14071934D02*
X16487491Y13405267D01*
X16297015Y13738600D02*
X16297015Y13071934D01*
X16154158Y14167172D02*
X16154158Y13833838D01*
X15963682Y13738600D02*
X15963682Y13167172D01*
X15773205Y14167172D02*
X15773205Y13833838D01*
X16297015Y13738600D02*
X15630348Y13738600D01*
X15630348Y13738600D02*
X15630348Y13071934D01*
X36172253Y14024314D02*
X35315110Y14024314D01*
X36077015Y13452886D02*
X35410348Y13452886D01*
X36553205Y13357648D02*
X36267491Y13357648D01*
X36077015Y13119553D02*
X35410348Y13119553D01*
X36553205Y14071934D02*
X36553205Y13262410D01*
X36553205Y14071934D02*
X36267491Y14071934D01*
X36267491Y14071934D02*
X36267491Y13405267D01*
X36077015Y13738600D02*
X36077015Y13071934D01*
X35934158Y14167172D02*
X35934158Y13833838D01*
X35743682Y13738600D02*
X35743682Y13167172D01*
X35553205Y14167172D02*
X35553205Y13833838D01*
X36077015Y13738600D02*
X35410348Y13738600D01*
X35410348Y13738600D02*
X35410348Y13071934D01*
X55952253Y14024314D02*
X55095110Y14024314D01*
X55857015Y13452886D02*
X55190348Y13452886D01*
X56333205Y13357648D02*
X56047491Y13357648D01*
X55857015Y13119553D02*
X55190348Y13119553D01*
X56333205Y14071934D02*
X56333205Y13262410D01*
X56333205Y14071934D02*
X56047491Y14071934D01*
X56047491Y14071934D02*
X56047491Y13405267D01*
X55857015Y13738600D02*
X55857015Y13071934D01*
X55714158Y14167172D02*
X55714158Y13833838D01*
X55523682Y13738600D02*
X55523682Y13167172D01*
X55333205Y14167172D02*
X55333205Y13833838D01*
X55857015Y13738600D02*
X55190348Y13738600D01*
X55190348Y13738600D02*
X55190348Y13071934D01*
X75732253Y14024314D02*
X74875110Y14024314D01*
X75637015Y13452886D02*
X74970348Y13452886D01*
X76113205Y13357648D02*
X75827491Y13357648D01*
X75637015Y13119553D02*
X74970348Y13119553D01*
X76113205Y14071934D02*
X76113205Y13262410D01*
X76113205Y14071934D02*
X75827491Y14071934D01*
X75827491Y14071934D02*
X75827491Y13405267D01*
X75637015Y13738600D02*
X75637015Y13071934D01*
X75494158Y14167172D02*
X75494158Y13833838D01*
X75303682Y13738600D02*
X75303682Y13167172D01*
X75113205Y14167172D02*
X75113205Y13833838D01*
X75637015Y13738600D02*
X74970348Y13738600D01*
X74970348Y13738600D02*
X74970348Y13071934D01*
X95512253Y14024314D02*
X94655110Y14024314D01*
X95417015Y13452886D02*
X94750348Y13452886D01*
X95893205Y13357648D02*
X95607491Y13357648D01*
X95417015Y13119553D02*
X94750348Y13119553D01*
X95893205Y14071934D02*
X95893205Y13262410D01*
X95893205Y14071934D02*
X95607491Y14071934D01*
X95607491Y14071934D02*
X95607491Y13405267D01*
X95417015Y13738600D02*
X95417015Y13071934D01*
X95274158Y14167172D02*
X95274158Y13833838D01*
X95083682Y13738600D02*
X95083682Y13167172D01*
X94893205Y14167172D02*
X94893205Y13833838D01*
X95417015Y13738600D02*
X94750348Y13738600D01*
X94750348Y13738600D02*
X94750348Y13071934D01*
X115292253Y14024314D02*
X114435110Y14024314D01*
X115197015Y13452886D02*
X114530348Y13452886D01*
X115673205Y13357648D02*
X115387491Y13357648D01*
X115197015Y13119553D02*
X114530348Y13119553D01*
X115673205Y14071934D02*
X115673205Y13262410D01*
X115673205Y14071934D02*
X115387491Y14071934D01*
X115387491Y14071934D02*
X115387491Y13405267D01*
X115197015Y13738600D02*
X115197015Y13071934D01*
X115054158Y14167172D02*
X115054158Y13833838D01*
X114863682Y13738600D02*
X114863682Y13167172D01*
X114673205Y14167172D02*
X114673205Y13833838D01*
X115197015Y13738600D02*
X114530348Y13738600D01*
X114530348Y13738600D02*
X114530348Y13071934D01*
X135072253Y14024314D02*
X134215110Y14024314D01*
X134977015Y13452886D02*
X134310348Y13452886D01*
X135453205Y13357648D02*
X135167491Y13357648D01*
X134977015Y13119553D02*
X134310348Y13119553D01*
X135453205Y14071934D02*
X135453205Y13262410D01*
X135453205Y14071934D02*
X135167491Y14071934D01*
X135167491Y14071934D02*
X135167491Y13405267D01*
X134977015Y13738600D02*
X134977015Y13071934D01*
X134834158Y14167172D02*
X134834158Y13833838D01*
X134643682Y13738600D02*
X134643682Y13167172D01*
X134453205Y14167172D02*
X134453205Y13833838D01*
X134977015Y13738600D02*
X134310348Y13738600D01*
X134310348Y13738600D02*
X134310348Y13071934D01*
X154852253Y14024314D02*
X153995110Y14024314D01*
X154757015Y13452886D02*
X154090348Y13452886D01*
X155233205Y13357648D02*
X154947491Y13357648D01*
X154757015Y13119553D02*
X154090348Y13119553D01*
X155233205Y14071934D02*
X155233205Y13262410D01*
X155233205Y14071934D02*
X154947491Y14071934D01*
X154947491Y14071934D02*
X154947491Y13405267D01*
X154757015Y13738600D02*
X154757015Y13071934D01*
X154614158Y14167172D02*
X154614158Y13833838D01*
X154423682Y13738600D02*
X154423682Y13167172D01*
X154233205Y14167172D02*
X154233205Y13833838D01*
X154757015Y13738600D02*
X154090348Y13738600D01*
X154090348Y13738600D02*
X154090348Y13071934D01*
X174632253Y14024314D02*
X173775110Y14024314D01*
X174537015Y13452886D02*
X173870348Y13452886D01*
X175013205Y13357648D02*
X174727491Y13357648D01*
X174537015Y13119553D02*
X173870348Y13119553D01*
X175013205Y14071934D02*
X175013205Y13262410D01*
X175013205Y14071934D02*
X174727491Y14071934D01*
X174727491Y14071934D02*
X174727491Y13405267D01*
X174537015Y13738600D02*
X174537015Y13071934D01*
X174394158Y14167172D02*
X174394158Y13833838D01*
X174203682Y13738600D02*
X174203682Y13167172D01*
X174013205Y14167172D02*
X174013205Y13833838D01*
X174537015Y13738600D02*
X173870348Y13738600D01*
X173870348Y13738600D02*
X173870348Y13071934D01*
X194412253Y14024314D02*
X193555110Y14024314D01*
X194317015Y13452886D02*
X193650348Y13452886D01*
X194793205Y13357648D02*
X194507491Y13357648D01*
X194317015Y13119553D02*
X193650348Y13119553D01*
X194793205Y14071934D02*
X194793205Y13262410D01*
X194793205Y14071934D02*
X194507491Y14071934D01*
X194507491Y14071934D02*
X194507491Y13405267D01*
X194317015Y13738600D02*
X194317015Y13071934D01*
X194174158Y14167172D02*
X194174158Y13833838D01*
X193983682Y13738600D02*
X193983682Y13167172D01*
X193793205Y14167172D02*
X193793205Y13833838D01*
X194317015Y13738600D02*
X193650348Y13738600D01*
X193650348Y13738600D02*
X193650348Y13071934D01*
M02*
